<?xml version="1.0" standalone="no"?>
<!DOCTYPE svg PUBLIC "-//W3C//DTD SVG 1.1//EN" "http://www.w3.org/Graphics/SVG/1.1/DTD/svg11.dtd" >
<svg xmlns="http://www.w3.org/2000/svg">
<metadata>
Created by FontPrep 20130207 at Sat Jun 24 19:24:13 2017
 By Baptiste Briel
Copyright (c) 2011 by Timo Gaessner, 123buero for Milieu Grotesque. All rights reserved.
</metadata>
<defs>
<font id="6f121ab30e14cbd298b48f56c3575fb7" horiz-adv-x='1024' >
  <font-face 
    font-family="MaisonNeue-Light"
    font-weight="300"
    font-stretch="normal"
    units-per-em="2048"
    panose-1="2 0 0 0 0 0 0 0 0 0"
    ascent="1587"
    descent="-461"
    x-height="1085"
    cap-height="1434"
    bbox="-205 -614 2644 1993"
    underline-thickness="102"
    underline-position="-102"
    unicode-range="U+000D-FB02"
  />
<missing-glyph horiz-adv-x="1486" 
d="M319 653l29 -28l129 129l131 -129l29 28l-131 129l131 131l-29 29l-131 -131l-129 131l-29 -29l130 -131zM852 653l29 -28l129 129l131 -129l28 28l-131 129l131 131l-28 29l-131 -131l-129 131l-29 -29l129 -131zM143 0v866q0 238 175 418t424 180t423 -180
q178 -178 178 -418v-866h-57l-133 133l-139 -133l-129 133l-146 -133l-141 133l-129 -133l-137 133l-135 -133h-54z" />
    <glyph glyph-name="fi" unicode="fi" horiz-adv-x="1112" 
d="M928 1264h-166v170h166v-170zM356 0h-133v963h-151v122h151v107q-1 131 55 186t166 56h142v-123h-119q-67 0 -89 -27t-22 -113v-86h555v-1085h-133v963h-422v-963z" />
    <glyph glyph-name="fl" unicode="fl" horiz-adv-x="1079" 
d="M356 0h-133v963h-151v122h151v107q-1 131 55 186t166 56h142v-123h-119q-67 0 -89 -27t-22 -113v-86h406v410h133v-1495h-133v963h-406v-963z" />
    <glyph glyph-name=".notdef" horiz-adv-x="1486" 
d="M319 653l29 -28l129 129l131 -129l29 28l-131 129l131 131l-29 29l-131 -131l-129 131l-29 -29l130 -131zM852 653l29 -28l129 129l131 -129l28 28l-131 129l131 131l-28 29l-131 -131l-129 131l-29 -29l129 -131zM143 0v866q0 238 175 418t424 180t423 -180
q178 -178 178 -418v-866h-57l-133 133l-139 -133l-129 133l-146 -133l-141 133l-129 -133l-137 133l-135 -133h-54z" />
    <glyph glyph-name=".null" horiz-adv-x="0" 
 />
    <glyph glyph-name="nonmarkingreturn" horiz-adv-x="681" 
 />
    <glyph glyph-name="NULL" horiz-adv-x="0" 
 />
    <glyph glyph-name="NULL" horiz-adv-x="0" 
 />
    <glyph glyph-name="CR" unicode="&#xd;" horiz-adv-x="512" 
 />
    <glyph glyph-name="space" unicode=" " horiz-adv-x="512" 
 />
    <glyph glyph-name="exclam" unicode="!" horiz-adv-x="667" 
d="M442 0h-217v217h217v-217zM401 412h-133v1022h133v-1022z" />
    <glyph glyph-name="quotedbl" unicode="&#x22;" horiz-adv-x="780" 
d="M535 991h-113v443h113v-443zM276 991h-112v443h112v-443z" />
    <glyph glyph-name="numbersign" unicode="#" horiz-adv-x="1406" 
d="M569 1022l-18 -277h297l20 277h-299zM164 643v102h272l21 277h-230v100h236l22 312h113l-23 -312h299l23 312h113l-23 -312h256v-100h-262l-20 -277h219v-102h-226l-20 -307h-113l21 307h-299l-21 -307h-112l20 307h-266z" />
    <glyph glyph-name="dollar" unicode="$" horiz-adv-x="1370" 
d="M340 1100q0 -98 71 -158t238 -104v497q-147 -5 -228 -71t-81 -164zM739 98q178 0 271 79q92 79 92 195t-73 178t-298 128l-2 -580h10zM651 1587h82v-127q184 -16 298 -116t138 -277l-139 -25q-27 135 -94 205q-68 70 -205 84v-516q289 -80 397 -176t109 -270
q0 -174 -133 -287t-371 -113h-4v-170h-82v174q-453 42 -514 527l139 24q35 -201 115 -301t260 -121l2 598q-227 58 -337 152t-110 243t121 256q120 107 328 113v123z" />
    <glyph glyph-name="percent" unicode="%" horiz-adv-x="1980" 
d="M508 -137l-92 55l1001 1669l90 -57zM1139 400q0 196 100 300q99 104 237 104t239 -106t101 -299t-90 -309t-250 -115t-248 115q-89 114 -89 310zM1262 398q0 -146 56 -228q56 -84 158 -84t160 85t58 230t-58 219t-158 74q-101 0 -159 -74q-57 -76 -57 -222zM164 1054
q0 196 100 300t238 104t238 -106q102 -106 102 -299t-90 -309t-250 -116t-249 116q-89 114 -89 310zM504 1348q-102 0 -160 -75t-57 -221q0 -146 56 -229q57 -84 159 -84t160 85q57 84 57 230t-57 220q-56 74 -158 74z" />
    <glyph glyph-name="ampersand" unicode="&#x26;" horiz-adv-x="1439" 
d="M606 -31q-194 0 -330 99q-133 102 -133 305q0 163 87 273t200 181l-47 50q-117 123 -117 260t95 232t253 95t256 -79q100 -79 129 -220l-129 -35q-45 211 -252 211q-104 0 -163 -54q-59 -53 -59 -155t136 -221l441 -381h4v287h125v-391l276 -248l-82 -98l-221 192
q-33 -123 -155 -213q-120 -90 -314 -90zM276 376q0 -132 96 -205t240 -73q142 0 240 74t115 193l-445 378q-90 -47 -168 -141t-78 -226z" />
    <glyph glyph-name="quotesingle" unicode="'" horiz-adv-x="522" 
d="M317 991h-112v443h112v-443z" />
    <glyph glyph-name="parenleft" unicode="(" horiz-adv-x="796" 
d="M670 -338l-78 -65q-78 70 -223 319q-82 139 -133 321q-96 342 -15 695q41 164 87 265t116 208q66 94 96 128t72 77l82 -68q-164 -170 -265 -391t-102 -549q1 -500 363 -940z" />
    <glyph glyph-name="parenright" unicode=")" horiz-adv-x="796" 
d="M571 597q0 -177 -51 -359t-133 -322q-145 -249 -223 -319l-78 65q362 440 363 940q0 330 -101 545q-100 223 -266 395l82 68q42 -43 74 -79t97 -131t113 -202q48 -108 85 -266q38 -158 38 -335z" />
    <glyph glyph-name="asterisk" unicode="*" horiz-adv-x="1024" 
d="M455 1434h114v-308l252 146l60 -96l-256 -154l192 -234l-88 -79l-217 276l-217 -276l-88 79l192 234l-256 154l60 96l252 -146v308z" />
    <glyph glyph-name="plus" unicode="+" horiz-adv-x="1183" 
d="M653 266h-123v467h-407v113h407v414h123v-414h408v-113h-408v-467z" />
    <glyph glyph-name="comma" unicode="," horiz-adv-x="626" 
d="M301 0h-96v217h217v-186q0 -216 -217 -230v78q96 16 96 121z" />
    <glyph glyph-name="hyphen" unicode="-" horiz-adv-x="919" 
d="M797 641h-674v133h674v-133z" />
    <glyph glyph-name="period" unicode="." horiz-adv-x="626" 
d="M422 0h-217v217h217v-217z" />
    <glyph glyph-name="slash" unicode="/" horiz-adv-x="937" 
d="M150 -74l-99 41l737 1557l99 -45z" />
    <glyph glyph-name="zero" unicode="0" horiz-adv-x="1282" 
d="M252 732q0 -290 101 -465t287 -175t288 175t102 465t-102 450t-286 160t-288 -160q-102 -160 -102 -450zM113 729q0 355 144 545t384 190t384 -189t144 -545t-138 -559q-138 -202 -390 -202t-390 202t-138 558z" />
    <glyph glyph-name="one" unicode="1" horiz-adv-x="913" 
d="M586 0h-123v1276l-309 -195v148l329 205h103v-1434z" />
    <glyph glyph-name="two" unicode="2" horiz-adv-x="1183" 
d="M1051 0h-912v102q0 197 68 310q41 63 110 117q70 53 256 155q187 102 265 176t78 190t-80 203q-76 88 -230 88t-245 -93t-97 -257l-131 13q10 216 139 338t336 122t324 -120t117 -283q0 -88 -37 -182q-14 -39 -97 -127q-12 -12 -65 -52q-49 -33 -66 -41l-73 -43l-136 -73
q-27 -13 -60 -33t-60 -36q-84 -50 -132 -123t-49 -220h777v-131z" />
    <glyph glyph-name="three" unicode="3" horiz-adv-x="1198" 
d="M601 92q167 0 254 86t87 230t-97 226q-97 81 -265 81h-70v123h29q360 0 360 247q0 117 -80 187t-211 70t-208 -76t-93 -215l-131 22q20 179 136 285t298 106t302 -99t120 -280q0 -117 -68 -197t-167 -102v-4q127 -31 203 -132t75 -253q0 -186 -133 -307t-341 -121
t-339 125t-160 377l131 25q27 -212 114 -308t254 -96z" />
    <glyph glyph-name="four" unicode="4" horiz-adv-x="1138" 
d="M741 473v856h-4l-518 -856h522zM741 350h-659v121l586 963h206v-961h183v-123h-183v-350h-133v350z" />
    <glyph glyph-name="five" unicode="5" horiz-adv-x="1212" 
d="M977 474q0 173 -94 271t-252 99q-219 0 -332 -180l-129 51l129 719h692v-123h-590l-90 -496l2 -2q127 145 329 145t334 -131q134 -131 134 -356t-138 -363t-340 -138t-334 108q-132 109 -175 293l129 39q84 -317 369 -318q166 0 261 104t95 278z" />
    <glyph glyph-name="six" unicode="6" horiz-adv-x="1308" 
d="M678 1341q-162 0 -285 -163q-121 -164 -121 -484l4 -2q25 78 143 168t303 90q184 0 324 -133t140 -357t-137 -358q-139 -133 -355 -133t-381 158q-84 84 -132 230t-48 335q0 348 157 560t386 212q178 0 290 -100t144 -262l-123 -33q-70 272 -309 272zM700 92
q164 0 258 100t94 272q0 171 -98 269t-258 98t-267 -104t-107 -258t106 -266q108 -111 272 -111z" />
    <glyph glyph-name="seven" unicode="7" horiz-adv-x="1013" 
d="M786 1311h-735v123h881v-140l-686 -1294h-170l710 1307v4z" />
    <glyph glyph-name="eight" unicode="8" horiz-adv-x="1181" 
d="M590 709q-152 0 -253 -83q-101 -84 -101 -222t92 -222t263 -84t262 84t91 222t-101 222t-253 83zM94 403q0 139 83 241t196 132v4q-203 88 -203 320q0 147 114 256q114 108 306 108t305 -110q113 -106 113 -254q0 -236 -201 -320v-4q117 -35 199 -135t81 -238
q0 -205 -134 -319t-363 -115q-228 1 -362 115t-134 319zM590 1343q-137 1 -212 -71t-75 -186t80 -188t207 -73q127 0 206 74q78 73 78 187t-73 186q-74 71 -211 71z" />
    <glyph glyph-name="nine" unicode="9" horiz-adv-x="1255" 
d="M588 621q154 0 250 102t96 257t-101 258t-249 103t-242 -95q-96 -95 -96 -261t94 -265t248 -99zM614 92q358 0 369 643h-6q-16 -55 -107 -146t-291 -91t-333 135t-133 351t137 348t328 132q256 0 395 -189t139 -579t-151 -569q-139 -158 -347 -158q-166 1 -284 97
t-156 266l129 37q27 -125 107 -201t204 -76z" />
    <glyph glyph-name="colon" unicode=":" horiz-adv-x="626" 
d="M422 868h-217v217h217v-217zM422 0h-217v217h217v-217z" />
    <glyph glyph-name="semicolon" unicode=";" horiz-adv-x="626" 
d="M422 868h-217v217h217v-217zM301 0h-96v217h217v-186q0 -216 -217 -230v78q96 16 96 121z" />
    <glyph glyph-name="less" unicode="&#x3c;" horiz-adv-x="1110" 
d="M922 168l-799 481v144l801 477l63 -103l-749 -446l747 -453z" />
    <glyph glyph-name="equal" unicode="=" horiz-adv-x="1234" 
d="M1092 860h-949v123h949v-123zM1092 526h-949v123h949v-123z" />
    <glyph glyph-name="greater" unicode="&#x3e;" horiz-adv-x="1110" 
d="M145 1270l801 -477v-144l-799 -481l-63 100l747 453l-749 446z" />
    <glyph glyph-name="question" unicode="?" horiz-adv-x="1034" 
d="M551 0h-217v217h217v-217zM504 365h-133v129q1 63 31 113q30 51 121 119t120 93t72 70q82 83 82 191t-68 186t-211 77q-281 0 -303 -323l-133 14q10 194 123 312t305 118t307 -102t115 -266q0 -98 -32 -168t-71 -107t-124 -108l-58 -47q-19 -16 -33 -26t-27 -22t-24 -20
q-59 -53 -59 -121v-112z" />
    <glyph glyph-name="at" unicode="@" horiz-adv-x="1513" 
d="M928 565v207h-4q-16 -35 -101 -57l-129 -37q-133 -41 -133 -148q0 -76 48 -106q49 -30 133 -29q84 0 135 45t51 125zM758 -31q-311 0 -473 202t-162 535q0 334 174 546t471 212t460 -208t163 -527q0 -434 -277 -434q-125 0 -174 94h-4q-52 -92 -192 -94t-216 60
q-76 61 -76 163t52 158q51 56 162 90l112 33q82 25 114 49t32 74q0 48 -41 82t-115 32q-143 0 -180 -162l-99 25q17 104 91 169t190 65q116 1 188 -63q70 -64 70 -185v-406q0 -49 20 -69t68 -21q92 0 134 81t42 253q0 287 -132 468t-392 181t-403 -184t-143 -477t132 -473
q135 -176 404 -177q160 0 291 86l47 -84q-131 -94 -338 -94z" />
    <glyph glyph-name="A" unicode="A" horiz-adv-x="1269" 
d="M637 1272h-4l-301 -856h606zM1219 0h-134l-108 309h-684l-109 -309h-133l514 1434h140z" />
    <glyph glyph-name="B" unicode="B" horiz-adv-x="1329" 
d="M338 692v-569h356q379 0 379 293q0 141 -90 209t-283 67h-362zM338 1311v-492h369q313 0 313 248q0 117 -84 180t-234 64h-364zM711 0h-506v1434h530q195 0 307 -100t111 -267q0 -109 -53 -187t-142 -110v-6q109 -27 179 -120t69 -228q0 -204 -126 -310t-369 -106z" />
    <glyph glyph-name="C" unicode="C" horiz-adv-x="1382" 
d="M718 -31q-236 0 -409 172q-186 190 -186 588q0 348 175 542t427 193q217 0 363 -139t178 -354l-138 -27q-33 180 -134 286q-102 106 -284 105q-182 0 -315 -153q-129 -154 -129 -452t125 -463t334 -165q356 0 403 424l142 -20q-20 -250 -168 -394t-384 -143z" />
    <glyph glyph-name="D" unicode="D" horiz-adv-x="1376" 
d="M631 0h-426v1434h438q250 0 428 -170q88 -84 140 -224t53 -321q0 -395 -199 -567q-178 -152 -434 -152zM338 1311v-1188h272q510 0 510 596q0 281 -132 437t-365 155h-285z" />
    <glyph glyph-name="E" unicode="E" horiz-adv-x="1204" 
d="M1051 0h-846v1434h846v-123h-713v-512h655v-119h-655v-557h713v-123z" />
    <glyph glyph-name="F" unicode="F" horiz-adv-x="1165" 
d="M338 0h-133v1434h848v-123h-715v-563h657v-119h-657v-629z" />
    <glyph glyph-name="G" unicode="G" horiz-adv-x="1394" 
d="M725 -31q-244 0 -416 172q-186 190 -186 588q0 348 175 542t427 193q211 0 350 -129t180 -338l-141 -26q-80 365 -389 364q-197 0 -330 -153q-129 -154 -129 -456t126 -465t327 -163t311 123t105 336h-394v129h531v-121q0 -281 -152 -439t-395 -157z" />
    <glyph glyph-name="H" unicode="H" horiz-adv-x="1366" 
d="M338 0h-133v1434h133v-629h690v629h133v-1434h-133v682h-690v-682z" />
    <glyph glyph-name="I" unicode="I" horiz-adv-x="563" 
d="M348 0h-133v1434h133v-1434z" />
    <glyph glyph-name="J" unicode="J" horiz-adv-x="927" 
d="M408 98q106 0 149 60t43 215v1061h133v-1080q0 -201 -80 -293q-81 -92 -237 -92q-299 0 -355 350l136 35q20 -106 57 -172q48 -84 154 -84z" />
    <glyph glyph-name="K" unicode="K" horiz-adv-x="1189" 
d="M317 0h-133v1434h133v-729h5l612 729h172l-522 -619l585 -815h-161l-514 715h-5l-172 -203v-512z" />
    <glyph glyph-name="L" unicode="L" horiz-adv-x="1042" 
d="M971 0h-766v1434h133v-1311h633v-123z" />
    <glyph glyph-name="M" unicode="M" horiz-adv-x="1753" 
d="M338 0h-133v1434h207l462 -1151h5l464 1151h205v-1434h-133v1270h-4l-520 -1270h-29l-520 1270h-4v-1270z" />
    <glyph glyph-name="N" unicode="N" horiz-adv-x="1396" 
d="M338 0h-133v1434h182l668 -1244h4v1244h133v-1434h-176l-674 1243h-4v-1243z" />
    <glyph glyph-name="O" unicode="O" horiz-adv-x="1439" 
d="M123 729q0 348 175 542q175 193 422 193t422 -196t175 -572t-175 -552t-418 -175q-243 0 -415 172q-186 190 -186 588zM266 726q0 -302 126 -465t332 -163t328 162t122 461t-130 455q-128 160 -322 160t-327 -154q-129 -154 -129 -456z" />
    <glyph glyph-name="P" unicode="P" horiz-adv-x="1269" 
d="M338 1311v-625h399q156 0 252 80t96 232t-97 233q-97 80 -255 80h-395zM338 0h-133v1434h540q207 0 340 -115t133 -321t-126 -320q-127 -114 -342 -115h-412v-563z" />
    <glyph glyph-name="Q" unicode="Q" horiz-adv-x="1439" 
d="M266 726q0 -302 126 -465t333 -163q160 0 266 90l-377 377l84 80l371 -371q105 160 105 453t-130 449q-128 160 -322 160t-327 -154q-129 -154 -129 -456zM725 -31q-244 0 -416 172q-186 190 -186 588q0 348 175 542q175 193 422 193t422 -196t175 -542q0 -347 -154 -546
l135 -133l-84 -80l-131 129q-152 -127 -358 -127z" />
    <glyph glyph-name="R" unicode="R" horiz-adv-x="1320" 
d="M338 1311v-584h399q162 0 255 71t93 220q0 293 -352 293h-395zM338 0h-133v1434h540q229 0 351 -104t123 -296q-1 -190 -99 -294t-270 -130l324 -610h-154l-313 604h-369v-604z" />
    <glyph glyph-name="S" unicode="S" horiz-adv-x="1269" 
d="M1042 366q0 112 -77 179q-78 65 -325 145t-353 168q-105 88 -105 241t119 259t323 106t332 -102t154 -295l-139 -25q-25 146 -107 220t-232 74t-232 -68q-81 -68 -81 -164t66 -152q68 -55 329 -143t362 -178q102 -90 102 -258t-128 -286t-362 -118q-512 1 -575 531
l139 24q35 -227 128 -326t314 -100q168 0 258 78t90 190z" />
    <glyph glyph-name="T" unicode="T" horiz-adv-x="1157" 
d="M645 0h-133v1311h-451v123h1035v-123h-451v-1311z" />
    <glyph glyph-name="U" unicode="U" horiz-adv-x="1345" 
d="M174 467v967h133v-955q0 -381 365 -381q180 0 273 96t93 281v959h133v-967q0 -244 -129 -371q-128 -127 -370 -127t-370 127t-128 371z" />
    <glyph glyph-name="V" unicode="V" horiz-adv-x="1271" 
d="M731 0h-180l-500 1434h144l444 -1299h4l434 1299h144z" />
    <glyph glyph-name="W" unicode="W" horiz-adv-x="1859" 
d="M545 0h-187l-256 1434h138l229 -1270h4l363 1270h188l362 -1270h5l229 1270h137l-268 -1434h-174l-383 1290h-6z" />
    <glyph glyph-name="X" unicode="X" horiz-adv-x="1163" 
d="M209 0h-148l441 739l-412 695h148l340 -588h4l321 588h148l-392 -695l443 -739h-148l-370 633h-4z" />
    <glyph glyph-name="Y" unicode="Y" horiz-adv-x="1155" 
d="M641 0h-127v604l-473 830h149l385 -703h7l383 703h149l-473 -830v-604z" />
    <glyph glyph-name="Z" unicode="Z" horiz-adv-x="1263" 
d="M1120 0h-997v98l852 1217v4h-782v115h948v-99l-852 -1208v-4h831v-123z" />
    <glyph glyph-name="bracketleft" unicode="[" horiz-adv-x="772" 
d="M670 -373h-486v1868h486v-102h-373v-1663h373v-103z" />
    <glyph glyph-name="backslash" unicode="\" horiz-adv-x="937" 
d="M887 -33l-99 -41l-737 1553l99 45z" />
    <glyph glyph-name="bracketright" unicode="]" horiz-adv-x="772" 
d="M102 1495h486v-1868h-486v103h373v1663h-373v102z" />
    <glyph glyph-name="asciicircum" unicode="^" horiz-adv-x="1105" 
d="M299 666h-135l354 768h70l354 -768h-137l-252 577z" />
    <glyph glyph-name="underscore" unicode="_" horiz-adv-x="1314" 
d="M1171 -266h-1028v123h1028v-123z" />
    <glyph glyph-name="grave" unicode="`" horiz-adv-x="585" 
d="M463 1219h-121l-219 245h180z" />
    <glyph glyph-name="a" unicode="a" horiz-adv-x="1103" 
d="M246 283q0 -190 233 -191q152 0 240 72t88 180v299h-4q-27 -63 -293 -137q-152 -43 -208 -92t-56 -131zM940 0h-123v125h-4q-35 -66 -128 -111t-216 -45q-170 0 -263 84t-93 219t83 213t279 129l158 43q47 14 69 29q104 59 95 129q1 82 -61 130t-181 48q-231 0 -276 -229
l-127 29q20 147 126 235t271 88q391 0 391 -371v-745z" />
    <glyph glyph-name="b" unicode="b" horiz-adv-x="1216" 
d="M301 0h-117v1495h133v-514h5q112 135 314 135t335 -158t133 -416t-127 -416q-127 -157 -344 -157q-99 0 -187 38t-141 97h-4v-104zM317 715v-383q0 -96 86 -168t209 -72q174 0 267 118q92 118 92 332t-93 332t-266 119q-133 0 -214 -87t-81 -191z" />
    <glyph glyph-name="c" unicode="c" horiz-adv-x="1144" 
d="M600 -31q-219 0 -354 150q-133 152 -133 422t138 423t349 152q176 0 299 -112t141 -289l-131 -21q-20 133 -99 216t-208 83q-162 0 -259 -120q-97 -119 -97 -331t94 -331t246 -119t229 92q76 95 94 224l133 -25q-18 -174 -139 -294t-303 -120z" />
    <glyph glyph-name="d" unicode="d" horiz-adv-x="1216" 
d="M1032 0h-117v104h-4q-53 -59 -140 -97t-187 -38q-215 0 -344 156q-127 158 -127 418q0 261 132 417t335 156t315 -135h4v514h133v-1495zM899 332v383q0 106 -82 190q-80 88 -213 88q-172 0 -265 -119q-93 -118 -93 -332t92 -332t266 -118q125 0 210 72t85 168z" />
    <glyph glyph-name="e" unicode="e" horiz-adv-x="1204" 
d="M252 616h702q0 137 -72 249q-38 58 -110 93t-166 35t-167 -39q-121 -65 -169 -221q-18 -62 -18 -117zM614 -31q-219 0 -360 157t-141 417q0 261 138 417t356 156t351 -152t134 -421v-39h-844q0 -166 93 -289t277 -123t273 119q24 30 65 108l113 -61q-57 -129 -175 -209
t-280 -80z" />
    <glyph glyph-name="f" unicode="f" horiz-adv-x="663" 
d="M356 0h-133v963h-151v122h151v107q-1 131 55 186t166 56h162v-123h-139q-67 0 -89 -27t-22 -113v-86h267v-122h-267v-963z" />
    <glyph glyph-name="g" unicode="g" horiz-adv-x="1206" 
d="M899 332v383q0 106 -82 190q-80 88 -213 88q-172 0 -265 -119q-93 -118 -93 -332t92 -332t266 -118q125 0 210 72t85 168zM899 -57v147h-4q-117 -121 -321 -121t-334 156q-127 158 -127 418q0 261 132 417t335 156t315 -135h4v104h133v-1105q0 -231 -107 -352
q-108 -120 -311 -120q-160 0 -267 82t-152 222l122 49q70 -229 293 -230q137 0 213 83t76 229z" />
    <glyph glyph-name="h" unicode="h" horiz-adv-x="1204" 
d="M317 0h-133v1495h133v-526h5q51 67 140 107t187 40q177 0 279 -106t102 -305v-705h-133v664q0 330 -262 329q-143 0 -231 -83t-87 -228v-682z" />
    <glyph glyph-name="i" unicode="i" horiz-adv-x="534" 
d="M350 1264h-166v170h166v-170zM334 0h-133v1085h133v-1085z" />
    <glyph glyph-name="j" unicode="j" horiz-adv-x="518" 
d="M334 1264h-166v170h166v-170zM113 -399h-52v133h29q53 0 76 24t22 99v1228h134v-1220q0 -143 -52 -203t-157 -61z" />
    <glyph glyph-name="k" unicode="k" horiz-adv-x="1081" 
d="M317 0h-133v1495h133v-922h5l479 512h184l-397 -426l452 -659h-159l-392 567h-4l-168 -178v-389z" />
    <glyph glyph-name="l" unicode="l" horiz-adv-x="501" 
d="M317 0h-133v1495h133v-1495z" />
    <glyph glyph-name="m" unicode="m" horiz-adv-x="1728" 
d="M317 0h-133v1085h119v-104h4q41 59 119 97t164 38q197 0 287 -164h4q41 68 128 116t187 48q166 0 262 -101t96 -278v-737h-133v688q0 305 -233 305q-119 1 -187 -75t-67 -216v-702h-133v688q-1 158 -57 232t-178 74t-185 -80q-63 -79 -64 -212v-702z" />
    <glyph glyph-name="n" unicode="n" horiz-adv-x="1212" 
d="M317 0h-133v1085h133v-104h5q43 59 132 97t183 38q174 0 288 -107t113 -296v-713h-133v664q-1 162 -71 246t-207 83q-137 0 -223 -78t-87 -213v-702z" />
    <glyph glyph-name="o" unicode="o" horiz-adv-x="1189" 
d="M1077 539q0 -268 -134 -419t-344 -151t-349 152q-137 152 -137 420t141 422q141 153 343 153t341 -154t139 -423zM246 540q0 -212 100 -330t250 -118t250 119q98 121 98 331t-96 330t-251 121q-155 0 -253 -120q-98 -121 -98 -333z" />
    <glyph glyph-name="p" unicode="p" horiz-adv-x="1216" 
d="M317 -461h-133v1546h127v-104h4q49 61 135 98t183 37q205 0 338 -158t133 -416t-127 -416q-127 -157 -344 -157q-92 0 -181 39t-130 96h-5v-565zM317 715v-383q0 -96 86 -168t209 -72q174 0 267 118q92 118 92 332t-93 332t-266 119q-133 0 -214 -87t-81 -191z" />
    <glyph glyph-name="q" unicode="q" horiz-adv-x="1216" 
d="M1032 -461h-133v565h-4q-109 -135 -317 -135t-338 156q-127 158 -127 418q0 261 132 417t339 156q96 0 182 -37t135 -98h4v104h127v-1546zM899 332v383q0 106 -82 190q-80 88 -213 88q-172 0 -265 -119q-93 -118 -93 -332t92 -332t266 -118q125 0 210 72t85 168z" />
    <glyph glyph-name="r" unicode="r" horiz-adv-x="706" 
d="M317 0h-133v1085h129v-116h4q72 135 226 135q51 0 84 -14l8 -7l-27 -135q-24 16 -102 16t-133 -66q-55 -67 -56 -191v-707z" />
    <glyph glyph-name="s" unicode="s" horiz-adv-x="1056" 
d="M551 88q135 0 205 51t70 141t-64 136q-63 51 -263 104t-280 123q-80 69 -80 187t99 200q98 86 268 86t274 -83t135 -226l-122 -33q-61 225 -287 225q-113 0 -176 -49q-64 -49 -64 -122q0 -74 58 -110t260 -96q204 -60 287 -132t83 -209t-103 -225t-304 -87
q-201 0 -316 109t-129 295l134 20q33 -305 315 -305z" />
    <glyph glyph-name="t" unicode="t" horiz-adv-x="724" 
d="M223 293v670h-151v122h155v267h129v-267h267v-122h-267v-652q0 -100 28 -140t103 -40h78v-131h-82q-260 0 -260 293z" />
    <glyph glyph-name="u" unicode="u" horiz-adv-x="1177" 
d="M174 377v708h133v-684q0 -169 66 -239t207 -70t211 83t69 228v682h133v-1085h-133v104h-4q0 -8 -34 -38q-34 -28 -66 -48q-75 -46 -195 -49q-183 1 -285 103t-102 305z" />
    <glyph glyph-name="v" unicode="v" horiz-adv-x="1105" 
d="M606 0h-106l-439 1085h138l352 -895h4l352 895h137z" />
    <glyph glyph-name="w" unicode="w" horiz-adv-x="1599" 
d="M467 0h-125l-240 1085h134l184 -847h4l301 847h129l303 -847h4l203 847h133l-260 -1085h-121l-325 924h-5z" />
    <glyph glyph-name="x" unicode="x" horiz-adv-x="1019" 
d="M213 0h-152l363 557l-340 528h154l270 -436h4l270 436h152l-338 -528l362 -557h-153l-295 465h-4z" />
    <glyph glyph-name="y" unicode="y" horiz-adv-x="1019" 
d="M354 -461h-131l221 557l-393 989h142l315 -833h4l315 833h142z" />
    <glyph glyph-name="z" unicode="z" horiz-adv-x="1136" 
d="M1012 0h-889v100l715 858v5h-672v122h848v-96l-711 -862v-4h709v-123z" />
    <glyph glyph-name="braceleft" unicode="{" horiz-adv-x="792" 
d="M289 -100v473q0 67 -25 93t-84 26h-57v182h57q59 0 84 28t25 97v426q0 150 60 210t186 60h114v-102h-102q-80 0 -113 -39t-33 -137v-424q0 -55 -18 -99t-58 -75q-40 -30 -67 -35q24 -7 83 -51q60 -44 60 -154v-471q0 -98 33 -137t113 -39h102v-103h-114q-125 1 -185 61
t-61 210z" />
    <glyph glyph-name="bar" unicode="|" horiz-adv-x="563" 
d="M338 -614h-113v2201h113v-2201z" />
    <glyph glyph-name="braceright" unicode="}" horiz-adv-x="792" 
d="M401 373v-473q0 -150 -60 -210t-185 -61h-115v103h102q80 0 113 39t33 137v471q0 110 65 159q47 36 78 46q-29 5 -68 35q-75 59 -75 174v424q0 98 -33 137t-113 39h-102v102h115q125 0 185 -60t60 -210v-426q0 -68 25 -97t84 -28h57v-182h-57q-59 0 -84 -26t-25 -93z" />
    <glyph glyph-name="asciitilde" unicode="~" horiz-adv-x="1210" 
d="M393 819q-82 0 -123 -63q-27 -47 -51 -119l-96 37q61 272 268 272q74 2 157 -44q84 -46 154 -92t115 -42q84 0 121 63q23 35 30 53t23 66l96 -37q-61 -272 -268 -272q-73 -4 -157 42t-155 92t-114 44z" />
    <glyph glyph-name="nbspace" unicode="&#xa0;" horiz-adv-x="409" 
 />
    <glyph glyph-name="exclamdown" unicode="&#xa1;" horiz-adv-x="667" 
d="M184 1085h217v-217h-217v217zM225 674h133v-1022h-133v1022z" />
    <glyph glyph-name="cent" unicode="&#xa2;" horiz-adv-x="1175" 
d="M266 540q0 -196 81 -313t226 -133v895q-141 -17 -224 -135t-83 -314zM645 -225h-72v196q-203 16 -321 167t-119 403q0 251 125 403t315 170v178h72v-176q166 -8 282 -120t134 -281l-131 -21q-20 129 -93 210t-192 87v-899q121 10 193 98t92 218l133 -25
q-18 -170 -132 -288t-286 -126v-194z" />
    <glyph glyph-name="sterling" unicode="&#xa3;" horiz-adv-x="1366" 
d="M1202 0h-997v123h78q79 0 107 30t28 105v404h-213v112h213v266q0 201 102 313q102 111 274 111q339 -1 390 -383l-129 -26q-25 151 -84 219t-174 67q-246 0 -246 -323v-244h430v-112h-430v-539h651v-123z" />
    <glyph glyph-name="currency" unicode="&#xa4;" horiz-adv-x="1411" 
d="M707 301q133 0 229 91t96 282t-96 282q-94 94 -230 94t-232 -92q-96 -94 -97 -284q0 -190 96 -283q101 -90 234 -90zM221 671q0 171 96 308l-133 133l82 82l129 -131q137 117 315 117t308 -113l127 127l82 -82l-131 -131q94 -137 94 -310t-96 -306l133 -132l-82 -81
l-131 129q-133 -105 -312 -105t-305 107l-131 -131l-82 81l133 134q-96 133 -96 304z" />
    <glyph glyph-name="yen" unicode="&#xa5;" horiz-adv-x="1318" 
d="M596 299h-430v113h426v190h-426v113h366l-409 719h147l387 -693h5l387 693h147l-410 -719h369v-113h-426v-190h426v-113h-430v-299h-129v299z" />
    <glyph glyph-name="brokenbar" unicode="&#xa6;" horiz-adv-x="583" 
d="M358 -268h-133v669h133v-669zM358 657h-133v670h133v-670z" />
    <glyph glyph-name="section" unicode="&#xa7;" horiz-adv-x="1263" 
d="M985 477q0 125 -199 201l-303 119l-63 32q-141 -96 -141 -220t198 -199l303 -119l64 -33q141 94 141 219zM1032 -44q0 -142 -106 -238q-106 -95 -272 -95t-274 94t-132 267l125 28q51 -266 280 -266q117 0 182 66t65 150t-45 136q-44 51 -148 92l-277 109
q-152 59 -218 130t-67 171q-4 170 179 297q-92 93 -92 235t106 237t272 95t274 -94t132 -266l-125 -29q-51 266 -281 266q-114 -1 -180 -65t-66 -150t45 -137q44 -51 148 -92l277 -109q152 -59 217 -130t67 -171q4 -170 -178 -297q92 -92 92 -234z" />
    <glyph glyph-name="dieresis" unicode="&#xa8;" horiz-adv-x="841" 
d="M698 1264h-166v170h166v-170zM309 1264h-166v170h166v-170z" />
    <glyph glyph-name="copyright" unicode="&#xa9;" horiz-adv-x="1505" 
d="M746 330q-126 0 -212 103q-88 103 -88 283t88 289q88 107 213 107q127 0 199 -75t84 -193l-106 -21q-25 186 -166 187q-90 0 -144 -79t-55 -215q0 -136 54 -211t145 -75q150 0 170 199l106 -21q-16 -126 -89 -202t-199 -76zM751 193q225 -1 377 153t152 379t-152 377
t-378 152t-377 -152q-152 -152 -152 -377t152 -381q152 -151 378 -151zM121 723q0 268 181 449q182 182 448 182t448 -182t182 -448t-182 -448t-449 -182t-448 180q-180 181 -180 449z" />
    <glyph glyph-name="ordfeminine" unicode="&#xaa;" horiz-adv-x="755" 
d="M223 961q0 -92 121 -93q78 0 122 36t44 89v148h-2q-19 -33 -152 -69t-133 -111zM623 786h-101v68h-4q-12 -30 -63 -58t-140 -28t-146 51q-56 51 -56 133t49 126q48 44 160 72t147 47t35 58t-32 65t-93 26q-121 0 -152 -123l-98 32q18 85 83 137q66 52 172 52t172 -60
t67 -176v-422z" />
    <glyph glyph-name="guillemotleft" unicode="&#xab;" horiz-adv-x="1130" 
d="M944 205h-143l-219 370l221 381h143l-223 -381zM567 205h-143l-219 370l221 381h143l-223 -381z" />
    <glyph glyph-name="logicalnot" unicode="&#xac;" horiz-adv-x="1304" 
d="M987 801h-844v123h977v-488h-133v365z" />
    <glyph glyph-name="registered" unicode="&#xae;" horiz-adv-x="966" 
d="M401 1257v-159h91q102 0 102 80t-102 79h-91zM401 866h-45v437h131q156 0 156 -125q0 -104 -111 -127l97 -185h-56l-98 183h-74v-183zM482 725q-150 0 -257 102q-102 106 -102 259t102 256q102 104 256 104t258 -105q105 -100 105 -255t-105 -259q-107 -102 -257 -102z
M482 778q132 0 220 87t88 220t-88 221t-221 87q-133 0 -220 -87q-87 -88 -87 -220t86 -222q90 -86 222 -86z" />
    <glyph glyph-name="overscore" unicode="&#xaf;" horiz-adv-x="876" 
d="M733 1270h-590v112h590v-112z" />
    <glyph glyph-name="degree" unicode="&#xb0;" horiz-adv-x="808" 
d="M551 1286q1 176 -147 176t-148 -176q0 -88 40 -130t108 -42t107 42q40 42 40 130zM676 1286q0 -119 -78 -200q-78 -80 -195 -80t-193 80t-77 199q-1 118 77 202t195 84t194 -83t77 -202z" />
    <glyph glyph-name="plusminus" unicode="&#xb1;" horiz-adv-x="1224" 
d="M674 461h-123v395h-408v113h408v362h123v-362h407v-113h-407v-395zM1061 207h-897v123h897v-123z" />
    <glyph glyph-name="twosuperior" unicode="&#xb2;" horiz-adv-x="751" 
d="M670 969h-582v96q0 109 53 186q29 37 78 70l41 25l23 10q37 19 49 28q147 82 183 119t36 97t-46 104q-46 43 -124 43q-168 0 -182 -197l-117 15q8 135 88 212t211 77t208 -72t77 -182t-78 -183q-66 -57 -158 -102l-94 -51q-68 -37 -92 -73t-23 -97h449v-125z" />
    <glyph glyph-name="threesuperior" unicode="&#xb3;" horiz-adv-x="737" 
d="M368 1067q90 0 137 43q46 43 46 118q0 76 -49 116t-142 40h-51v99h35q61 -2 116 26q54 29 56 95t-39 104q-41 37 -112 37q-135 0 -158 -154l-111 21q8 110 83 176t190 66t189 -64q74 -63 75 -168q0 -68 -38 -114t-87 -62v-4q68 -18 113 -76t45 -160q0 -100 -81 -174
t-214 -74q-283 1 -320 302l119 24q12 -113 60 -165t138 -52z" />
    <glyph glyph-name="acute" unicode="&#xb4;" horiz-adv-x="583" 
d="M244 1219h-121l158 245h180z" />
    <glyph glyph-name="mu" unicode="&#xb5;" horiz-adv-x="1241" 
d="M326 -461h-131v1546h133v-663q0 -158 84 -244t222 -86t219 86t81 225v682h133v-1085h-133v104h-4q-12 -14 -34 -34t-100 -60q-79 -40 -165 -41q-205 0 -305 117v-547z" />
    <glyph glyph-name="paragraph" unicode="&#xb6;" horiz-adv-x="1132" 
d="M506 -279h-135v910q-141 4 -236 98q-94 94 -94 246t94 244t244 92h569v-1590h-125v1467h-317v-1467z" />
    <glyph glyph-name="middot" unicode="&#xb7;" horiz-adv-x="626" 
d="M422 680h-217v217h217v-217z" />
    <glyph glyph-name="cedilla" unicode="&#xb8;" horiz-adv-x="579" 
d="M397 -242q0 84 -98 84q-74 0 -119 -28l-18 -11l-60 33l97 164h88l-76 -119q45 29 120 29t125 -41t50 -120t-62 -130t-175 -51q-114 0 -208 76l60 82q78 -59 153 -60q123 0 123 92z" />
    <glyph glyph-name="onesuperior" unicode="&#xb9;" horiz-adv-x="550" 
d="M377 969h-117v733l-188 -117v133l200 125h105v-874z" />
    <glyph glyph-name="ordmasculine" unicode="&#xba;" horiz-adv-x="753" 
d="M378 768q-126 0 -206 91t-80 248t81 248t204 91t204 -92t81 -248t-79 -247t-205 -91zM205 1108q0 -112 47 -174t125 -62t124 64t46 172q0 109 -46 172t-124 63t-125 -62t-47 -173z" />
    <glyph glyph-name="guillemotright" unicode="&#xbb;" horiz-adv-x="1130" 
d="M287 956l221 -381l-219 -370h-144l222 370l-224 381h144zM664 956l221 -381l-219 -370h-144l221 370l-223 381h144z" />
    <glyph glyph-name="onequarter" unicode="&#xbc;" horiz-adv-x="1732" 
d="M1362 328v448h-4l-275 -448h279zM1362 217h-389v111l332 546h174v-546h110v-111h-110v-215h-117v215zM397 559h-116v733l-189 -116v133l201 125h104v-875zM371 -137l-92 55l1001 1669l90 -57z" />
    <glyph glyph-name="onehalf" unicode="&#xbd;" horiz-adv-x="1822" 
d="M1700 0h-582v96q0 109 53 187q29 37 78 69l41 25q4 2 9 4t9 4t6 4q3 2 97 54t127 83q43 46 43 106t-46 103t-124 43q-166 0 -182 -196l-117 14q8 135 88 212t211 77t208 -72t77 -182t-78 -182q-66 -57 -158 -103l-94 -51q-68 -37 -92 -73t-23 -97h449v-125zM397 557h-116
v733l-189 -116v133l201 125h104v-875zM371 -139l-92 55l1001 1669l90 -57z" />
    <glyph glyph-name="threequarters" unicode="&#xbe;" horiz-adv-x="1832" 
d="M1503 328v448h-4l-274 -448h278zM1503 217h-389v111l332 546h174v-546h111v-111h-111v-215h-117v215zM623 818q1 75 -49 116t-142 41h-51v98h35q61 -2 115 27t59 98q0 63 -41 100t-113 37q-137 0 -157 -153l-111 20q8 110 83 176t189 66t190 -64q75 -64 75 -168
q0 -68 -38 -114t-87 -62v-4q68 -18 112 -76t45 -160q0 -100 -81 -174t-214 -73q-282 0 -319 301l119 24q12 -112 60 -164t138 -52t137 42q46 43 46 118zM539 -137l-93 55l1002 1669l90 -57z" />
    <glyph glyph-name="questiondown" unicode="&#xbf;" horiz-adv-x="1034" 
d="M442 1085h217v-217h-217v217zM489 721h134v-129q0 -62 -31 -112t-129 -126l-109 -84q-41 -35 -75 -73q-82 -83 -82 -191q-1 -108 67 -186t211 -78q281 0 303 324l133 -15q-11 -193 -123 -311t-304 -119q-192 1 -308 103q-115 102 -115 266q0 96 34 169t68 105t126 109
l57 45q61 51 82 69q59 51 61 121v113z" />
    <glyph glyph-name="Agrave" unicode="&#xc0;" horiz-adv-x="1269" 
d="M694 1567h-121l-219 245h181zM637 1272h-4l-301 -856h606zM1219 0h-134l-108 309h-684l-109 -309h-133l514 1434h140z" />
    <glyph glyph-name="Aacute" unicode="&#xc1;" horiz-adv-x="1269" 
d="M709 1567h-121l160 245h180zM637 1272h-4l-301 -856h606zM1219 0h-134l-108 309h-684l-109 -309h-133l514 1434h140z" />
    <glyph glyph-name="Acircumflex" unicode="&#xc2;" horiz-adv-x="1269" 
d="M487 1530l-84 67l136 175h204l136 -175l-84 -67l-154 192zM637 1272h-4l-301 -856h606zM1219 0h-134l-108 309h-684l-109 -309h-133l514 1434h140z" />
    <glyph glyph-name="Atilde" unicode="&#xc3;" horiz-adv-x="1269" 
d="M541 1747q51 0 121 -38t106 -38q55 0 72 66h75q-20 -90 -58 -135q-37 -46 -101 -46t-134 38t-108 38q-56 1 -72 -65h-75q39 180 174 180zM637 1272h-4l-301 -856h606zM1219 0h-134l-108 309h-684l-109 -309h-133l514 1434h140z" />
    <glyph glyph-name="Adieresis" unicode="&#xc4;" horiz-adv-x="1269" 
d="M530 1567h-165v170h165v-170zM920 1567h-166v170h166v-170zM637 1272h-4l-301 -856h606zM1219 0h-134l-108 309h-684l-109 -309h-133l514 1434h140z" />
    <glyph glyph-name="Aring" unicode="&#xc5;" horiz-adv-x="1269" 
d="M642 1735q-44 0 -73 -32t-29 -89t30 -91q28 -34 71 -34t73 34t29 91q0 57 -28 89q-29 32 -73 32zM637 1272h-4l-301 -856h606zM444 1623q0 75 56 134t142 59q85 0 140 -58q56 -58 56 -137t-35 -131t-94 -73l510 -1417h-134l-108 309h-684l-109 -309h-133l510 1423
q-53 23 -85 74t-32 126z" />
    <glyph glyph-name="AE" unicode="&#xc6;" horiz-adv-x="1763" 
d="M825 438v873h-155l-324 -873h479zM1610 1434v-123h-652v-512h594v-119h-594v-557h652v-123h-785v324h-518l-119 -324h-137l539 1434h1020z" />
    <glyph glyph-name="Ccedilla" unicode="&#xc7;" horiz-adv-x="1382" 
d="M834 -158q-78 0 -138 -39l-59 33l78 133q-236 2 -410 176q-182 188 -182 584q0 348 175 542t427 193q217 0 363 -139t178 -354l-138 -27q-33 180 -134 286q-102 106 -284 105q-182 0 -315 -153q-129 -154 -129 -452t125 -463t334 -165q356 0 403 424l142 -20
q-20 -228 -144 -368t-321 -163l-60 -94q45 29 120 29t125 -41t50 -120t-61 -130t-175 -51t-208 76l59 82q78 -59 154 -60q123 0 123 92q0 84 -98 84z" />
    <glyph glyph-name="Egrave" unicode="&#xc8;" horiz-adv-x="1204" 
d="M733 1567h-121l-219 245h180zM1051 0h-846v1434h846v-123h-713v-512h655v-119h-655v-557h713v-123z" />
    <glyph glyph-name="Eacute" unicode="&#xc9;" horiz-adv-x="1204" 
d="M698 1567h-120l159 245h181zM1051 0h-846v1434h846v-123h-713v-512h655v-119h-655v-557h713v-123z" />
    <glyph glyph-name="Ecircumflex" unicode="&#xca;" horiz-adv-x="1204" 
d="M508 1530l-84 67l135 175h205l135 -175l-84 -67l-153 192zM1051 0h-846v1434h846v-123h-713v-512h655v-119h-655v-557h713v-123z" />
    <glyph glyph-name="Edieresis" unicode="&#xcb;" horiz-adv-x="1204" 
d="M520 1567h-166v170h166v-170zM909 1567h-166v170h166v-170zM1051 0h-846v1434h846v-123h-713v-512h655v-119h-655v-557h713v-123z" />
    <glyph glyph-name="Igrave" unicode="&#xcc;" horiz-adv-x="563" 
d="M307 1567h-121l-219 245h180zM348 0h-133v1434h133v-1434z" />
    <glyph glyph-name="Iacute" unicode="&#xcd;" horiz-adv-x="563" 
d="M322 1567h-121l159 245h181zM348 0h-133v1434h133v-1434z" />
    <glyph glyph-name="Icircumflex" unicode="&#xce;" horiz-adv-x="563" 
d="M123 1530l-84 67l135 175h205l135 -175l-84 -67l-154 192zM348 0h-133v1434h133v-1434z" />
    <glyph glyph-name="Idieresis" unicode="&#xcf;" horiz-adv-x="563" 
d="M160 1567h-166v170h166v-170zM549 1567h-166v170h166v-170zM348 0h-133v1434h133v-1434z" />
    <glyph glyph-name="Eth" unicode="&#xd0;" horiz-adv-x="1443" 
d="M365 692v-569h313q510 0 510 596q0 291 -129 441t-369 151h-325v-496h415v-123h-415zM698 0h-467v692h-139v123h139v619h480q264 0 442 -182t178 -533q0 -397 -196 -567q-179 -152 -437 -152z" />
    <glyph glyph-name="Ntilde" unicode="&#xd1;" horiz-adv-x="1396" 
d="M633 1747q51 0 121 -38t106 -38q55 0 72 66h76q-20 -90 -58 -135q-38 -46 -103 -46q-64 0 -134 38t-107 38q-55 1 -71 -65h-76q39 180 174 180zM338 0h-133v1434h182l668 -1244h4v1244h133v-1434h-176l-674 1243h-4v-1243z" />
    <glyph glyph-name="Ograve" unicode="&#xd2;" horiz-adv-x="1439" 
d="M797 1567h-121l-219 245h180zM123 729q0 348 175 542q175 193 422 193t422 -196t175 -572t-175 -552t-418 -175q-243 0 -415 172q-186 190 -186 588zM266 726q0 -302 126 -465t332 -163t328 162t122 461t-130 455q-128 160 -322 160t-327 -154q-129 -154 -129 -456z" />
    <glyph glyph-name="Oacute" unicode="&#xd3;" horiz-adv-x="1439" 
d="M786 1567h-120l159 245h181zM123 729q0 348 175 542q175 193 422 193t422 -196t175 -572t-175 -552t-418 -175q-243 0 -415 172q-186 190 -186 588zM266 726q0 -302 126 -465t332 -163t328 162t122 461t-130 455q-128 160 -322 160t-327 -154q-129 -154 -129 -456z" />
    <glyph glyph-name="Ocircumflex" unicode="&#xd4;" horiz-adv-x="1439" 
d="M592 1530l-84 67l135 175h205l135 -175l-84 -67l-154 192zM123 729q0 348 175 542q175 193 422 193t422 -196t175 -572t-175 -552t-418 -175q-243 0 -415 172q-186 190 -186 588zM266 726q0 -302 126 -465t332 -163t328 162t122 461t-130 455q-128 160 -322 160
t-327 -154q-129 -154 -129 -456z" />
    <glyph glyph-name="Otilde" unicode="&#xd5;" horiz-adv-x="1439" 
d="M639 1747q51 0 121 -38t106 -38q55 0 72 66h76q-40 -181 -160 -181q-63 0 -134 38t-108 38q-55 1 -71 -65h-76q39 180 174 180zM123 729q0 348 175 542q175 193 422 193t422 -196t175 -572t-175 -552t-418 -175q-243 0 -415 172q-186 190 -186 588zM266 726
q0 -302 126 -465t332 -163t328 162t122 461t-130 455q-128 160 -322 160t-327 -154q-129 -154 -129 -456z" />
    <glyph glyph-name="Odieresis" unicode="&#xd6;" horiz-adv-x="1439" 
d="M629 1567h-166v170h166v-170zM1018 1567h-166v170h166v-170zM123 729q0 348 175 542q175 193 422 193t422 -196t175 -572t-175 -552t-418 -175q-243 0 -415 172q-186 190 -186 588zM266 726q0 -302 126 -465t332 -163t328 162t122 461t-130 455q-128 160 -322 160
t-327 -154q-129 -154 -129 -456z" />
    <glyph glyph-name="multiply" unicode="&#xd7;" horiz-adv-x="1128" 
d="M211 248l-88 88l352 352l-332 332l88 88l332 -332l334 332l88 -88l-334 -332l355 -352l-88 -88l-355 352z" />
    <glyph glyph-name="Oslash" unicode="&#xd8;" horiz-adv-x="1439" 
d="M725 1335q-197 0 -330 -153q-129 -154 -129 -457t135 -475l574 999q-111 86 -250 86zM725 98q205 0 327 162t122 461t-138 467l-571 -1002q106 -88 260 -88zM123 729q0 348 175 542t427 193q168 0 313 -102l60 102l73 -43l-65 -114q211 -211 211 -599t-175 -564
t-417 -175q-184 0 -330 97l-55 -97l-76 41l64 113q-205 199 -205 606z" />
    <glyph glyph-name="Ugrave" unicode="&#xd9;" horiz-adv-x="1345" 
d="M778 1567h-121l-219 245h180zM174 467v967h133v-955q0 -381 365 -381q180 0 273 96t93 281v959h133v-967q0 -244 -129 -371q-128 -127 -370 -127t-370 127t-128 371z" />
    <glyph glyph-name="Uacute" unicode="&#xda;" horiz-adv-x="1345" 
d="M770 1567h-121l160 245h180zM174 467v967h133v-955q0 -381 365 -381q180 0 273 96t93 281v959h133v-967q0 -244 -129 -371q-128 -127 -370 -127t-370 127t-128 371z" />
    <glyph glyph-name="Ucircumflex" unicode="&#xdb;" horiz-adv-x="1345" 
d="M549 1530l-84 67l135 175h205l135 -175l-84 -67l-154 192zM174 467v967h133v-955q0 -381 365 -381q180 0 273 96t93 281v959h133v-967q0 -244 -129 -371q-128 -127 -370 -127t-370 127t-128 371z" />
    <glyph glyph-name="Udieresis" unicode="&#xdc;" horiz-adv-x="1345" 
d="M582 1567h-166v170h166v-170zM971 1567h-166v170h166v-170zM174 467v967h133v-955q0 -381 365 -381q180 0 273 96t93 281v959h133v-967q0 -244 -129 -371q-128 -127 -370 -127t-370 127t-128 371z" />
    <glyph glyph-name="Yacute" unicode="&#xdd;" horiz-adv-x="1155" 
d="M655 1567h-120l159 245h180zM641 0h-127v604l-473 830h149l385 -703h7l383 703h149l-473 -830v-604z" />
    <glyph glyph-name="Thorn" unicode="&#xde;" horiz-adv-x="1361" 
d="M338 1073v-665h428q381 0 381 332t-381 333h-428zM338 0h-133v1434h133v-238h448q230 0 362 -119t132 -340t-126 -337t-368 -115h-448v-285z" />
    <glyph glyph-name="germandbls" unicode="&#xdf;" horiz-adv-x="1191" 
d="M305 0h-141v1010q0 219 119 337q119 117 303 117t302 -104t118 -279q0 -160 -136 -252q-25 -16 -39 -20v-4q40 -7 86 -40q155 -113 153 -331q-1 -218 -118 -326t-360 -108h-66v123h56q182 0 268 77t86 238q0 293 -307 293h-103v121h64q133 0 208 57q74 57 74 176t-74 188
q-75 69 -208 68q-285 0 -285 -348v-993z" />
    <glyph glyph-name="agrave" unicode="&#xe0;" horiz-adv-x="1103" 
d="M655 1219h-120l-220 245h181zM246 283q0 -190 233 -191q152 0 240 72t88 180v299h-4q-27 -63 -293 -137q-152 -43 -208 -92t-56 -131zM940 0h-123v125h-4q-35 -66 -128 -111t-216 -45q-170 0 -263 84t-93 219t83 213t279 129l158 43q47 14 69 29q104 59 95 129
q1 82 -61 130t-181 48q-231 0 -276 -229l-127 29q20 147 126 235t271 88q391 0 391 -371v-745z" />
    <glyph glyph-name="aacute" unicode="&#xe1;" horiz-adv-x="1103" 
d="M602 1219h-121l158 245h180zM246 283q0 -190 233 -191q152 0 240 72t88 180v299h-4q-27 -63 -293 -137q-152 -43 -208 -92t-56 -131zM940 0h-123v125h-4q-35 -66 -128 -111t-216 -45q-170 0 -263 84t-93 219t83 213t279 129l158 43q47 14 69 29q104 59 95 129
q1 82 -61 130t-181 48q-231 0 -276 -229l-127 29q20 147 126 235t271 88q391 0 391 -371v-745z" />
    <glyph glyph-name="acircumflex" unicode="&#xe2;" horiz-adv-x="1103" 
d="M422 1192l-84 68l135 174h205l135 -174l-84 -68l-154 192zM246 283q0 -190 233 -191q152 0 240 72t88 180v299h-4q-27 -63 -293 -137q-152 -43 -208 -92t-56 -131zM940 0h-123v125h-4q-35 -66 -128 -111t-216 -45q-170 0 -263 84t-93 219t83 213t279 129l158 43
q47 14 69 29q104 59 95 129q1 82 -61 130t-181 48q-231 0 -276 -229l-127 29q20 147 126 235t271 88q391 0 391 -371v-745z" />
    <glyph glyph-name="atilde" unicode="&#xe3;" horiz-adv-x="1103" 
d="M846 1409q-40 -180 -160 -180q-63 0 -134 38t-108 38q-55 0 -71 -66h-76q39 180 174 180q51 0 121 -38t106 -38q55 0 72 66h76zM246 283q0 -190 233 -191q152 0 240 72t88 180v299h-4q-27 -63 -293 -137q-152 -43 -208 -92t-56 -131zM940 0h-123v125h-4
q-35 -66 -128 -111t-216 -45q-170 0 -263 84t-93 219t83 213t279 129l158 43q47 14 69 29q104 59 95 129q1 82 -61 130t-181 48q-231 0 -276 -229l-127 29q20 147 126 235t271 88q391 0 391 -371v-745z" />
    <glyph glyph-name="adieresis" unicode="&#xe4;" horiz-adv-x="1103" 
d="M850 1264h-166v170h166v-170zM461 1264h-166v170h166v-170zM246 283q0 -190 233 -191q152 0 240 72t88 180v299h-4q-27 -63 -293 -137q-152 -43 -208 -92t-56 -131zM940 0h-123v125h-4q-35 -66 -128 -111t-216 -45q-170 0 -263 84t-93 219t83 213t279 129l158 43
q47 14 69 29q104 59 95 129q1 82 -61 130t-181 48q-231 0 -276 -229l-127 29q20 147 126 235t271 88q391 0 391 -371v-745z" />
    <glyph glyph-name="aring" unicode="&#xe5;" horiz-adv-x="1103" 
d="M562 1399q-44 0 -73 -32t-29 -89t30 -91q28 -34 71 -34t73 34t30 91t-29 89t-73 32zM246 283q0 -190 233 -191q152 0 240 72t88 180v299h-4q-27 -63 -293 -137q-152 -43 -208 -92t-56 -131zM940 0h-123v125h-4q-35 -66 -128 -111t-216 -45q-170 0 -263 84t-93 219t83 213
t279 129l158 43q47 14 69 29q104 59 95 129q1 82 -61 130t-181 48q-231 0 -276 -229l-127 29q16 123 94 205t200 108q-82 56 -82 156t57 159q56 59 141 59t140 -58q56 -58 56 -158t-84 -160q266 -57 266 -359v-745z" />
    <glyph glyph-name="ae" unicode="&#xe6;" horiz-adv-x="1898" 
d="M244 283q0 -190 235 -191q152 0 240 72t88 180v299h-4q-27 -63 -293 -137q-152 -43 -209 -92t-57 -131zM946 616h703q0 136 -73 249q-38 58 -110 93t-166 35t-166 -39q-124 -67 -169 -221q-19 -62 -19 -117zM1316 -31q-167 0 -280 83t-149 161h-4q-84 -244 -414 -244
q-170 0 -263 84t-93 218t80 210q81 76 283 131q202 56 261 96t59 114t-60 123q-62 48 -181 48q-231 0 -276 -229l-127 29q20 147 126 235t271 88q279 0 362 -201q139 201 389 201q219 0 353 -151q133 -152 133 -422v-39h-844q0 -164 96 -288t272 -124t253 96q59 78 92 156
l117 -59q-45 -131 -167 -223t-289 -93z" />
    <glyph glyph-name="ccedilla" unicode="&#xe7;" horiz-adv-x="1144" 
d="M762 -242q0 84 -98 84q-74 0 -119 -28l-19 -11l-59 33l80 135q-199 18 -317 170t-118 411t139 412q138 153 349 152q176 0 299 -112t141 -289l-131 -21q-20 133 -99 216t-208 83q-162 0 -259 -120q-97 -119 -97 -331t94 -331t246 -119t229 92q76 94 94 224l133 -25
q-18 -172 -131 -288t-280 -124l-56 -90q45 29 120 29t125 -41t50 -120t-61 -130t-175 -51t-208 76l59 82q78 -59 154 -60q123 0 123 92z" />
    <glyph glyph-name="egrave" unicode="&#xe8;" horiz-adv-x="1204" 
d="M694 1219h-121l-219 245h181zM252 616h702q0 137 -72 249q-38 58 -110 93t-166 35t-167 -39q-121 -65 -169 -221q-18 -62 -18 -117zM614 -31q-219 0 -360 157t-141 417q0 261 138 417t356 156t351 -152t134 -421v-39h-844q0 -166 93 -289t277 -123t273 119q24 30 65 108
l113 -61q-57 -129 -175 -209t-280 -80z" />
    <glyph glyph-name="eacute" unicode="&#xe9;" horiz-adv-x="1204" 
d="M702 1219h-120l157 245h181zM252 616h702q0 137 -72 249q-38 58 -110 93t-166 35t-167 -39q-121 -65 -169 -221q-18 -62 -18 -117zM614 -31q-219 0 -360 157t-141 417q0 261 138 417t356 156t351 -152t134 -421v-39h-844q0 -166 93 -289t277 -123t273 119q24 30 65 108
l113 -61q-57 -129 -175 -209t-280 -80z" />
    <glyph glyph-name="ecircumflex" unicode="&#xea;" horiz-adv-x="1204" 
d="M489 1192l-83 68l135 174h204l136 -174l-84 -68l-154 192zM252 616h702q0 137 -72 249q-38 58 -110 93t-166 35t-167 -39q-121 -65 -169 -221q-18 -62 -18 -117zM614 -31q-219 0 -360 157t-141 417q0 261 138 417t356 156t351 -152t134 -421v-39h-844q0 -166 93 -289
t277 -123t273 119q24 30 65 108l113 -61q-57 -129 -175 -209t-280 -80z" />
    <glyph glyph-name="edieresis" unicode="&#xeb;" horiz-adv-x="1204" 
d="M922 1264h-166v170h166v-170zM532 1264h-165v170h165v-170zM252 616h702q0 137 -72 249q-38 58 -110 93t-166 35t-167 -39q-121 -65 -169 -221q-18 -62 -18 -117zM614 -31q-219 0 -360 157t-141 417q0 261 138 417t356 156t351 -152t134 -421v-39h-844q0 -166 93 -289
t277 -123t273 119q24 30 65 108l113 -61q-57 -129 -175 -209t-280 -80z" />
    <glyph glyph-name="igrave" unicode="&#xec;" horiz-adv-x="491" 
d="M311 1219h-121l-219 245h181zM307 0h-123v1085h123v-1085z" />
    <glyph glyph-name="iacute" unicode="&#xed;" horiz-adv-x="491" 
d="M319 1219h-120l157 245h181zM307 0h-123v1085h123v-1085z" />
    <glyph glyph-name="icircumflex" unicode="&#xee;" horiz-adv-x="491" 
d="M117 1192l-84 68l135 174h205l135 -174l-84 -68l-154 192zM307 0h-123v1085h123v-1085z" />
    <glyph glyph-name="idieresis" unicode="&#xef;" horiz-adv-x="491" 
d="M555 1264h-166v170h166v-170zM166 1264h-166v170h166v-170zM307 0h-123v1085h123v-1085z" />
    <glyph glyph-name="eth" unicode="&#xf0;" horiz-adv-x="1179" 
d="M592 86q168 0 258 116t90 337t-94 343t-262 122t-258 -118t-90 -343t94 -341t262 -116zM1067 543q0 -270 -127 -422t-348 -152t-350 151t-129 425t129 423q129 148 324 148t300 -117l4 2q-59 184 -190 359l-309 -88l-25 82l277 76q-74 90 -142 151v6h160q55 -59 104 -123
l273 76l24 -80l-245 -67q270 -393 270 -850z" />
    <glyph glyph-name="ntilde" unicode="&#xf1;" horiz-adv-x="1212" 
d="M520 1419q51 0 122 -38t106 -38q55 0 71 66h76q-20 -90 -58 -135q-37 -45 -101 -45t-135 38t-107 38q-56 0 -72 -66h-76q39 180 174 180zM317 0h-133v1085h133v-104h5q43 59 132 97t183 38q174 0 288 -107t113 -296v-713h-133v664q-1 162 -71 246t-207 83
q-137 0 -223 -78t-87 -213v-702z" />
    <glyph glyph-name="ograve" unicode="&#xf2;" horiz-adv-x="1189" 
d="M674 1219h-121l-219 245h180zM1077 539q0 -268 -134 -419t-344 -151t-349 152q-137 152 -137 420t141 422q141 153 343 153t341 -154t139 -423zM246 540q0 -212 100 -330t250 -118t250 119q98 121 98 331t-96 330t-251 121q-155 0 -253 -120q-98 -121 -98 -333z" />
    <glyph glyph-name="oacute" unicode="&#xf3;" horiz-adv-x="1189" 
d="M674 1219h-121l158 245h180zM1077 539q0 -268 -134 -419t-344 -151t-349 152q-137 152 -137 420t141 422q141 153 343 153t341 -154t139 -423zM246 540q0 -212 100 -330t250 -118t250 119q98 121 98 331t-96 330t-251 121q-155 0 -253 -120q-98 -121 -98 -333z" />
    <glyph glyph-name="ocircumflex" unicode="&#xf4;" horiz-adv-x="1189" 
d="M467 1192l-84 68l135 174h205l135 -174l-84 -68l-153 192zM1077 539q0 -268 -134 -419t-344 -151t-349 152q-137 152 -137 420t141 422q141 153 343 153t341 -154t139 -423zM246 540q0 -212 100 -330t250 -118t250 119q98 121 98 331t-96 330t-251 121q-155 0 -253 -120
q-98 -121 -98 -333z" />
    <glyph glyph-name="otilde" unicode="&#xf5;" horiz-adv-x="1189" 
d="M518 1419q51 0 121 -38t106 -38q55 0 72 66h76q-20 -90 -58 -135q-39 -45 -103 -45t-134 38t-106 38q-56 0 -72 -66h-76q39 180 174 180zM1077 539q0 -268 -134 -419t-344 -151t-349 152q-137 152 -137 420t141 422q141 153 343 153t341 -154t139 -423zM246 540
q0 -212 100 -330t250 -118t250 119q98 121 98 331t-96 330t-251 121q-155 0 -253 -120q-98 -121 -98 -333z" />
    <glyph glyph-name="odieresis" unicode="&#xf6;" horiz-adv-x="1189" 
d="M893 1264h-166v170h166v-170zM504 1264h-166v170h166v-170zM1077 539q0 -268 -134 -419t-344 -151t-349 152q-137 152 -137 420t141 422q141 153 343 153t341 -154t139 -423zM246 540q0 -212 100 -330t250 -118t250 119q98 121 98 331t-96 330t-251 121q-155 0 -253 -120
q-98 -121 -98 -333z" />
    <glyph glyph-name="divide" unicode="&#xf7;" horiz-adv-x="1032" 
d="M385 1160q0 54 38 92t92 38t92 -38t38 -92t-38 -92t-92 -38t-92 38t-38 92zM385 294q0 54 38 92t92 38t92 -38t38 -92t-38 -92t-92 -38t-92 38t-38 92zM909 664h-786v122h786v-122z" />
    <glyph glyph-name="oslash" unicode="&#xf8;" horiz-adv-x="1189" 
d="M586 993q-144 0 -242 -120t-98 -312t71 -311l506 651q-93 92 -237 92zM603 92q144 0 243 119q98 121 98 313t-72 312l-505 -648q92 -96 236 -96zM1077 528q0 -258 -134 -408q-133 -151 -331 -151t-325 115l-82 -104l-62 47l90 114q-121 156 -121 412t142 410
q141 154 346 153q174 0 301 -115l82 105l61 -49l-90 -115q123 -156 123 -414z" />
    <glyph glyph-name="ugrave" unicode="&#xf9;" horiz-adv-x="1146" 
d="M113 377v708h133v-684q0 -169 66 -239t206 -70q141 0 211 83t70 228v682h133v-1085h-133v104h-4q0 -7 -34 -37q-34 -29 -66 -49q-76 -46 -195 -49q-182 1 -284 103t-103 305zM618 1219h-120l-219 245h180z" />
    <glyph glyph-name="uacute" unicode="&#xfa;" horiz-adv-x="1146" 
d="M113 377v708h133v-684q0 -169 66 -239t206 -70q141 0 211 83t70 228v682h133v-1085h-133v104h-4q0 -7 -34 -37q-34 -29 -66 -49q-76 -46 -195 -49q-182 1 -284 103t-103 305zM592 1219h-121l158 245h180z" />
    <glyph glyph-name="ucircumflex" unicode="&#xfb;" horiz-adv-x="1146" 
d="M113 377v708h133v-684q0 -169 66 -239t206 -70q141 0 211 83t70 228v682h133v-1085h-133v104h-4q0 -7 -34 -37q-34 -29 -66 -49q-76 -46 -195 -49q-182 1 -284 103t-103 305zM393 1192l-84 68l135 174h205l135 -174l-84 -68l-153 192z" />
    <glyph glyph-name="udieresis" unicode="&#xfc;" horiz-adv-x="1146" 
d="M113 377v708h133v-684q0 -169 66 -239t206 -70q141 0 211 83t70 228v682h133v-1085h-133v104h-4q0 -7 -34 -37q-34 -29 -66 -49q-76 -46 -195 -49q-182 1 -284 103t-103 305zM813 1264h-166v170h166v-170zM424 1264h-166v170h166v-170z" />
    <glyph glyph-name="yacute" unicode="&#xfd;" horiz-adv-x="1019" 
d="M584 1219h-121l158 245h180zM354 -461h-131l221 557l-393 989h142l315 -833h4l315 833h142z" />
    <glyph glyph-name="thorn" unicode="&#xfe;" horiz-adv-x="1216" 
d="M317 715v-383q0 -96 86 -168t209 -72q174 0 267 118q92 118 92 332t-93 332t-266 119q-133 0 -214 -87t-81 -191zM317 -461h-133v1956h131v-522h4q113 143 316 143t336 -158t133 -416t-127 -416q-127 -157 -344 -157q-92 0 -181 39t-130 96h-5v-565z" />
    <glyph glyph-name="ydieresis" unicode="&#xff;" horiz-adv-x="1019" 
d="M797 1264h-166v170h166v-170zM408 1264h-166v170h166v-170zM354 -461h-131l221 557l-393 989h142l315 -833h4l315 833h142z" />
    <glyph glyph-name="Amacron" unicode="&#x100;" horiz-adv-x="1269" 
d="M936 1567h-590v112h590v-112zM637 1272h-4l-301 -856h606zM1219 0h-134l-108 309h-684l-109 -309h-133l514 1434h140z" />
    <glyph glyph-name="amacron" unicode="&#x101;" horiz-adv-x="1103" 
d="M866 1270h-590v112h590v-112zM246 283q0 -190 233 -191q152 0 240 72t88 180v299h-4q-27 -63 -293 -137q-152 -43 -208 -92t-56 -131zM940 0h-123v125h-4q-35 -66 -128 -111t-216 -45q-170 0 -263 84t-93 219t83 213t279 129l158 43q47 14 69 29q104 59 95 129
q1 82 -61 130t-181 48q-231 0 -276 -229l-127 29q20 147 126 235t271 88q391 0 391 -371v-745z" />
    <glyph glyph-name="Abreve" unicode="&#x102;" horiz-adv-x="1269" 
d="M393 1782h78q23 -121 173 -121t167 121h78q0 -111 -68 -173q-69 -63 -181 -63t-180 62t-67 174zM637 1272h-4l-301 -856h606zM1219 0h-134l-108 309h-684l-109 -309h-133l514 1434h140z" />
    <glyph glyph-name="abreve" unicode="&#x103;" horiz-adv-x="1103" 
d="M324 1434h77q23 -121 173 -121t167 121h78q1 -111 -67 -173q-68 -63 -181 -63t-180 62t-67 174zM246 283q0 -190 233 -191q152 0 240 72t88 180v299h-4q-27 -63 -293 -137q-152 -43 -208 -92t-56 -131zM940 0h-123v125h-4q-35 -66 -128 -111t-216 -45q-170 0 -263 84
t-93 219t83 213t279 129l158 43q47 14 69 29q104 59 95 129q1 82 -61 130t-181 48q-231 0 -276 -229l-127 29q20 147 126 235t271 88q391 0 391 -371v-745z" />
    <glyph glyph-name="Aogonek" unicode="&#x104;" horiz-adv-x="1269" 
d="M1104 -430q-84 0 -134 37t-50 106q0 129 194 287h-29l-108 309h-684l-109 -309h-133l514 1434h140l514 -1434q-156 -143 -156 -252q-1 -72 81 -72t154 78l58 -53q-100 -131 -252 -131zM637 1272h-4l-301 -856h606z" />
    <glyph glyph-name="aogonek" unicode="&#x105;" horiz-adv-x="1103" 
d="M246 283q0 -190 233 -191q152 0 240 72t88 180v299h-4q-27 -63 -293 -137q-152 -43 -208 -92t-56 -131zM817 0v125h-4q-35 -66 -128 -111t-216 -45q-170 0 -263 84t-93 219t83 213t279 129l158 43q47 14 69 29q104 59 95 129q1 82 -61 130t-181 48q-231 0 -276 -229
l-127 29q20 147 126 235t271 88q391 0 391 -371v-745q-156 -143 -156 -252q0 -72 82 -72t154 78l57 -53q-100 -131 -252 -131q-84 0 -134 37t-50 106q0 129 195 287h-19z" />
    <glyph glyph-name="Cacute" unicode="&#x106;" horiz-adv-x="1382" 
d="M795 1567h-121l160 245h180zM718 -31q-236 0 -409 172q-186 190 -186 588q0 348 175 542t427 193q217 0 363 -139t178 -354l-138 -27q-33 180 -134 286q-102 106 -284 105q-182 0 -315 -153q-129 -154 -129 -452t125 -463t334 -165q356 0 403 424l142 -20
q-20 -250 -168 -394t-384 -143z" />
    <glyph glyph-name="cacute" unicode="&#x107;" horiz-adv-x="1144" 
d="M678 1219h-121l158 245h180zM600 -31q-219 0 -354 150q-133 152 -133 422t138 423t349 152q176 0 299 -112t141 -289l-131 -21q-20 133 -99 216t-208 83q-162 0 -259 -120q-97 -119 -97 -331t94 -331t246 -119t229 92q76 95 94 224l133 -25q-18 -174 -139 -294t-303 -120
z" />
    <glyph glyph-name="Ccircumflex" unicode="&#x108;" horiz-adv-x="1382" 
d="M567 1540l-84 68l135 174h205l135 -174l-84 -68l-153 193zM718 -31q-236 0 -409 172q-186 190 -186 588q0 348 175 542t427 193q217 0 363 -139t178 -354l-138 -27q-33 180 -134 286q-102 106 -284 105q-182 0 -315 -153q-129 -154 -129 -452t125 -463t334 -165
q356 0 403 424l142 -20q-20 -250 -168 -394t-384 -143z" />
    <glyph glyph-name="ccircumflex" unicode="&#x109;" horiz-adv-x="1144" 
d="M453 1192l-84 68l135 174h205l135 -174l-84 -68l-154 192zM600 -31q-219 0 -354 150q-133 152 -133 422t138 423t349 152q176 0 299 -112t141 -289l-131 -21q-20 133 -99 216t-208 83q-162 0 -259 -120q-97 -119 -97 -331t94 -331t246 -119t229 92q76 95 94 224l133 -25
q-18 -174 -139 -294t-303 -120z" />
    <glyph glyph-name="Cdotaccent" unicode="&#x10a;" horiz-adv-x="1382" 
d="M817 1567h-176v180h176v-180zM718 -31q-236 0 -409 172q-186 190 -186 588q0 348 175 542t427 193q217 0 363 -139t178 -354l-138 -27q-33 180 -134 286q-102 106 -284 105q-182 0 -315 -153q-129 -154 -129 -452t125 -463t334 -165q356 0 403 424l142 -20
q-20 -250 -168 -394t-384 -143z" />
    <glyph glyph-name="cdotaccent" unicode="&#x10b;" horiz-adv-x="1144" 
d="M694 1253h-176v181h176v-181zM600 -31q-219 0 -354 150q-133 152 -133 422t138 423t349 152q176 0 299 -112t141 -289l-131 -21q-20 133 -99 216t-208 83q-162 0 -259 -120q-97 -119 -97 -331t94 -331t246 -119t229 92q76 95 94 224l133 -25q-18 -174 -139 -294
t-303 -120z" />
    <glyph glyph-name="Ccaron" unicode="&#x10c;" horiz-adv-x="1382" 
d="M838 1567h-205l-135 174l84 67l153 -192l154 192l84 -67zM718 -31q-236 0 -409 172q-186 190 -186 588q0 348 175 542t427 193q217 0 363 -139t178 -354l-138 -27q-33 180 -134 286q-102 106 -284 105q-182 0 -315 -153q-129 -154 -129 -452t125 -463t334 -165
q356 0 403 424l142 -20q-20 -250 -168 -394t-384 -143z" />
    <glyph glyph-name="ccaron" unicode="&#x10d;" horiz-adv-x="1144" 
d="M709 1217h-205l-135 174l84 67l153 -192l154 192l84 -67zM600 -31q-219 0 -354 150q-133 152 -133 422t138 423t349 152q176 0 299 -112t141 -289l-131 -21q-20 133 -99 216t-208 83q-162 0 -259 -120q-97 -119 -97 -331t94 -331t246 -119t229 92q76 95 94 224l133 -25
q-18 -174 -139 -294t-303 -120z" />
    <glyph glyph-name="Dcaron" unicode="&#x10e;" horiz-adv-x="1376" 
d="M715 1567h-205l-135 174l84 67l153 -192l154 192l84 -67zM631 0h-426v1434h438q250 0 428 -170q88 -84 140 -224t53 -321q0 -395 -199 -567q-178 -152 -434 -152zM338 1311v-1188h272q510 0 510 596q0 281 -132 437t-365 155h-285z" />
    <glyph glyph-name="dcaron" unicode="&#x10f;" horiz-adv-x="1234" 
d="M1235 1196h-100l57 299h145zM1032 0h-117v104h-4q-53 -59 -140 -97t-187 -38q-215 0 -344 156q-127 158 -127 418q0 261 132 417t335 156t315 -135h4v514h133v-1495zM899 332v383q0 106 -82 190q-80 88 -213 88q-172 0 -265 -119q-93 -118 -93 -332t92 -332t266 -118
q125 0 210 72t85 168z" />
    <glyph glyph-name="Dcroat" unicode="&#x110;" horiz-adv-x="1423" 
d="M354 692v-569h314q510 0 510 596q0 291 -129 441t-369 151h-326v-496h416v-123h-416zM688 0h-467v692h-139v123h139v619h479q264 0 442 -182t179 -533q0 -397 -197 -567q-178 -152 -436 -152z" />
    <glyph glyph-name="dslash" unicode="&#x111;" horiz-adv-x="1247" 
d="M899 332v383q0 106 -82 190q-80 88 -213 88q-172 0 -265 -119q-93 -118 -93 -332t92 -332t266 -118q125 0 210 72t85 168zM1032 0h-117v104h-4q-53 -59 -140 -97t-187 -38q-215 0 -344 156q-127 158 -127 418q0 261 132 417t335 156t315 -135h4v360h-307v93h307v61h133
v-61h144v-93h-144v-1341z" />
    <glyph glyph-name="Emacron" unicode="&#x112;" horiz-adv-x="1204" 
d="M938 1567h-590v112h590v-112zM1051 0h-846v1434h846v-123h-713v-512h655v-119h-655v-557h713v-123z" />
    <glyph glyph-name="emacron" unicode="&#x113;" horiz-adv-x="1204" 
d="M932 1270h-590v112h590v-112zM252 616h702q0 137 -72 249q-38 58 -110 93t-166 35t-167 -39q-121 -65 -169 -221q-18 -62 -18 -117zM614 -31q-219 0 -360 157t-141 417q0 261 138 417t356 156t351 -152t134 -421v-39h-844q0 -166 93 -289t277 -123t273 119q24 30 65 108
l113 -61q-57 -129 -175 -209t-280 -80z" />
    <glyph glyph-name="Ebreve" unicode="&#x114;" horiz-adv-x="1204" 
d="M420 1782h78q24 -121 174 -121t166 121h77q1 -111 -67 -173q-68 -63 -180 -63t-180 62t-68 174zM1051 0h-846v1434h846v-123h-713v-512h655v-119h-655v-557h713v-123z" />
    <glyph glyph-name="ebreve" unicode="&#x115;" horiz-adv-x="1204" 
d="M381 1434h78q23 -121 173 -121t167 121h78q0 -111 -68 -173q-69 -63 -181 -63t-180 62t-67 174zM252 616h702q0 137 -72 249q-38 58 -110 93t-166 35t-167 -39q-121 -65 -169 -221q-18 -62 -18 -117zM614 -31q-219 0 -360 157t-141 417q0 261 138 417t356 156t351 -152
t134 -421v-39h-844q0 -166 93 -289t277 -123t273 119q24 30 65 108l113 -61q-57 -129 -175 -209t-280 -80z" />
    <glyph glyph-name="Edotaccent" unicode="&#x116;" horiz-adv-x="1204" 
d="M741 1567h-176v180h176v-180zM1051 0h-846v1434h846v-123h-713v-512h655v-119h-655v-557h713v-123z" />
    <glyph glyph-name="edotaccent" unicode="&#x117;" horiz-adv-x="1204" 
d="M723 1253h-176v181h176v-181zM252 616h702q0 137 -72 249q-38 58 -110 93t-166 35t-167 -39q-121 -65 -169 -221q-18 -62 -18 -117zM614 -31q-219 0 -360 157t-141 417q0 261 138 417t356 156t351 -152t134 -421v-39h-844q0 -166 93 -289t277 -123t273 119q24 30 65 108
l113 -61q-57 -129 -175 -209t-280 -80z" />
    <glyph glyph-name="Eogonek" unicode="&#x118;" horiz-adv-x="1204" 
d="M205 0v1434h846v-123h-713v-512h655v-119h-655v-557h713v-123h-142q-156 -143 -155 -252q0 -72 82 -72t153 78l58 -53q-100 -131 -252 -131q-84 0 -135 37q-50 37 -50 106q0 129 195 287h-600z" />
    <glyph glyph-name="eogonek" unicode="&#x119;" horiz-adv-x="1204" 
d="M252 616h702q0 137 -72 249q-38 58 -110 93t-166 35t-167 -39q-121 -65 -169 -221q-18 -62 -18 -117zM651 -430q-84 0 -134 37t-50 106q0 121 156 256h-9q-219 0 -360 157t-141 417q0 261 138 417t356 156t351 -152t134 -421v-39h-844q0 -166 93 -289t277 -123t273 119
q25 31 65 108l113 -61q-43 -96 -126 -169t-191 -101q-141 -139 -142 -240q0 -72 82 -72t154 78l57 -53q-100 -131 -252 -131z" />
    <glyph glyph-name="Ecaron" unicode="&#x11a;" horiz-adv-x="1204" 
d="M756 1567h-205l-135 174l84 67l153 -192l154 192l84 -67zM1051 0h-846v1434h846v-123h-713v-512h655v-119h-655v-557h713v-123z" />
    <glyph glyph-name="ecaron" unicode="&#x11b;" horiz-adv-x="1204" 
d="M750 1217h-205l-135 174l84 67l153 -192l154 192l84 -67zM252 616h702q0 137 -72 249q-38 58 -110 93t-166 35t-167 -39q-121 -65 -169 -221q-18 -62 -18 -117zM614 -31q-219 0 -360 157t-141 417q0 261 138 417t356 156t351 -152t134 -421v-39h-844q0 -166 93 -289
t277 -123t273 119q24 30 65 108l113 -61q-57 -129 -175 -209t-280 -80z" />
    <glyph glyph-name="Gcircumflex" unicode="&#x11c;" horiz-adv-x="1394" 
d="M565 1530l-84 67l135 175h205l135 -175l-84 -67l-153 192zM725 -31q-244 0 -416 172q-186 190 -186 588q0 348 175 542t427 193q211 0 350 -129t180 -338l-141 -26q-80 365 -389 364q-197 0 -330 -153q-129 -154 -129 -456t126 -465t327 -163t311 123t105 336h-394v129
h531v-121q0 -281 -152 -439t-395 -157z" />
    <glyph glyph-name="gcircumflex" unicode="&#x11d;" horiz-adv-x="1206" 
d="M475 1192l-84 68l135 174h205l135 -174l-84 -68l-153 192zM899 332v383q0 106 -82 190q-80 88 -213 88q-172 0 -265 -119q-93 -118 -93 -332t92 -332t266 -118q125 0 210 72t85 168zM899 -57v147h-4q-117 -121 -321 -121t-334 156q-127 158 -127 418q0 261 132 417
t335 156t315 -135h4v104h133v-1105q0 -231 -107 -352q-108 -120 -311 -120q-160 0 -267 82t-152 222l122 49q70 -229 293 -230q137 0 213 83t76 229z" />
    <glyph glyph-name="Gbreve" unicode="&#x11e;" horiz-adv-x="1394" 
d="M465 1782h78q23 -121 173 -121t167 121h78q0 -111 -68 -173q-69 -63 -181 -63t-180 62t-67 174zM725 -31q-244 0 -416 172q-186 190 -186 588q0 348 175 542t427 193q211 0 350 -129t180 -338l-141 -26q-80 365 -389 364q-197 0 -330 -153q-129 -154 -129 -456t126 -465
t327 -163t311 123t105 336h-394v129h531v-121q0 -281 -152 -439t-395 -157z" />
    <glyph glyph-name="gbreve" unicode="&#x11f;" horiz-adv-x="1206" 
d="M375 1434h78q23 -121 173 -121t167 121h77q0 -111 -68 -173q-68 -63 -180 -63t-180 62t-67 174zM899 332v383q0 106 -82 190q-80 88 -213 88q-172 0 -265 -119q-93 -118 -93 -332t92 -332t266 -118q125 0 210 72t85 168zM899 -57v147h-4q-117 -121 -321 -121t-334 156
q-127 158 -127 418q0 261 132 417t335 156t315 -135h4v104h133v-1105q0 -231 -107 -352q-108 -120 -311 -120q-160 0 -267 82t-152 222l122 49q70 -229 293 -230q137 0 213 83t76 229z" />
    <glyph glyph-name="Gdotaccent" unicode="&#x120;" horiz-adv-x="1394" 
d="M801 1567h-176v180h176v-180zM725 -31q-244 0 -416 172q-186 190 -186 588q0 348 175 542t427 193q211 0 350 -129t180 -338l-141 -26q-80 365 -389 364q-197 0 -330 -153q-129 -154 -129 -456t126 -465t327 -163t311 123t105 336h-394v129h531v-121q0 -281 -152 -439
t-395 -157z" />
    <glyph glyph-name="gdotaccent" unicode="&#x121;" horiz-adv-x="1206" 
d="M711 1253h-176v181h176v-181zM899 332v383q0 106 -82 190q-80 88 -213 88q-172 0 -265 -119q-93 -118 -93 -332t92 -332t266 -118q125 0 210 72t85 168zM899 -57v147h-4q-117 -121 -321 -121t-334 156q-127 158 -127 418q0 261 132 417t335 156t315 -135h4v104h133v-1105
q0 -231 -107 -352q-108 -120 -311 -120q-160 0 -267 82t-152 222l122 49q70 -229 293 -230q137 0 213 83t76 229z" />
    <glyph glyph-name="Gcommaaccent" unicode="&#x122;" horiz-adv-x="1394" 
d="M637 -283v168h194v-137q0 -98 -45 -143t-149 -51v65q55 8 78 31t22 67h-100zM725 -31q-244 0 -416 172q-186 190 -186 588q0 348 175 542t427 193q211 0 350 -129t180 -338l-141 -26q-80 365 -389 364q-197 0 -330 -153q-129 -154 -129 -456t126 -465t327 -163t311 123
t105 336h-394v129h531v-121q0 -281 -152 -439t-395 -157z" />
    <glyph glyph-name="gcommaaccent" unicode="&#x123;" horiz-adv-x="1206" 
d="M643 1432h80v-177h-180v152q0 160 172 176v-63q-72 -10 -72 -88zM899 332v383q0 106 -82 190q-80 88 -213 88q-172 0 -265 -119q-93 -118 -93 -332t92 -332t266 -118q125 0 210 72t85 168zM899 -57v147h-4q-117 -121 -321 -121t-334 156q-127 158 -127 418q0 261 132 417
t335 156t315 -135h4v104h133v-1105q0 -231 -107 -352q-108 -120 -311 -120q-160 0 -267 82t-152 222l122 49q70 -229 293 -230q137 0 213 83t76 229z" />
    <glyph glyph-name="Hcircumflex" unicode="&#x124;" horiz-adv-x="1366" 
d="M535 1530l-84 67l135 175h205l135 -175l-84 -67l-154 192zM338 0h-133v1434h133v-629h690v629h133v-1434h-133v682h-690v-682z" />
    <glyph glyph-name="hcircumflex" unicode="&#x125;" horiz-adv-x="1204" 
d="M510 1192l-84 68l135 174h205l135 -174l-84 -68l-153 192zM317 0h-133v1495h133v-526h5q51 67 140 107t187 40q177 0 279 -106t102 -305v-705h-133v664q0 330 -262 329q-143 0 -231 -83t-87 -228v-682z" />
    <glyph glyph-name="Hbar" unicode="&#x126;" horiz-adv-x="1406" 
d="M358 1057v-252h691v252h-691zM358 0h-133v1057h-102v112h102v265h133v-265h691v265h133v-265h102v-112h-102v-1057h-133v682h-691v-682z" />
    <glyph glyph-name="hbar" unicode="&#x127;" horiz-adv-x="1189" 
d="M348 0h-133v1341h-143v93h143v61h133v-61h307v-93h-307v-360h4q106 135 286 135t290 -110q109 -110 108 -301v-705h-133v664q0 330 -270 329q-133 0 -209 -84t-76 -227v-682z" />
    <glyph glyph-name="Itilde" unicode="&#x128;" horiz-adv-x="563" 
d="M170 1747q51 0 121 -38t106 -38q55 0 72 66h76q-21 -90 -59 -135q-38 -46 -102 -46t-134 38t-107 38q-55 1 -71 -65h-76q39 180 174 180zM348 0h-133v1434h133v-1434z" />
    <glyph glyph-name="itilde" unicode="&#x129;" horiz-adv-x="491" 
d="M176 1419q51 0 122 -38t105 -38q55 0 72 66h76q-20 -90 -58 -135q-37 -45 -101 -45t-135 38t-107 38q-56 0 -72 -66h-76q39 180 174 180zM307 0h-123v1085h123v-1085z" />
    <glyph glyph-name="Imacron" unicode="&#x12a;" horiz-adv-x="563" 
d="M565 1567h-590v112h590v-112zM348 0h-133v1434h133v-1434z" />
    <glyph glyph-name="imacron" unicode="&#x12b;" horiz-adv-x="491" 
d="M571 1270h-589v112h589v-112zM307 0h-123v1085h123v-1085z" />
    <glyph glyph-name="Ibreve" unicode="&#x12c;" horiz-adv-x="563" 
d="M23 1782h77q24 -121 174 -121t166 121h78q0 -111 -68 -173q-68 -63 -180 -63q-113 0 -180 62t-67 174zM348 0h-133v1434h133v-1434z" />
    <glyph glyph-name="ibreve" unicode="&#x12d;" horiz-adv-x="491" 
d="M8 1434h78q24 -121 174 -121t166 121h78q0 -111 -68 -173q-68 -63 -180 -63t-180 62t-68 174zM307 0h-123v1085h123v-1085z" />
    <glyph glyph-name="Iogonek" unicode="&#x12e;" horiz-adv-x="563" 
d="M215 0v1434h133v-1434q-156 -143 -155 -252q0 -72 82 -72t153 78l57 -53q-100 -131 -252 -131q-84 0 -134 37t-50 106q0 129 195 287h-29z" />
    <glyph glyph-name="iogonek" unicode="&#x12f;" horiz-adv-x="534" 
d="M350 1264h-166v170h166v-170zM201 0v1085h133v-1085q-156 -143 -156 -252q0 -72 82 -72t154 78l57 -53q-100 -131 -252 -131q-84 0 -134 37t-50 106q-1 129 194 287h-28z" />
    <glyph glyph-name="Idot" unicode="&#x130;" horiz-adv-x="563" 
d="M365 1567h-177v180h177v-180zM348 0h-133v1434h133v-1434z" />
    <glyph glyph-name="dotlessi" unicode="&#x131;" horiz-adv-x="491" 
d="M307 0h-123v1085h123v-1085z" />
    <glyph glyph-name="IJ" unicode="&#x132;" horiz-adv-x="1349" 
d="M830 98q106 0 149 60t43 215v1061h133v-1080q0 -201 -80 -293q-81 -92 -237 -92q-299 0 -355 350l135 35q20 -109 58 -172q48 -84 154 -84zM348 0h-133v1434h133v-1434z" />
    <glyph glyph-name="ij" unicode="&#x133;" horiz-adv-x="1042" 
d="M868 1264h-166v170h166v-170zM647 -399h-51v133h29q53 0 75 24t23 99v1228h133v-1220q0 -143 -51 -204q-52 -60 -158 -60zM350 1264h-166v170h166v-170zM334 0h-133v1085h133v-1085z" />
    <glyph glyph-name="Jcircumflex" unicode="&#x134;" horiz-adv-x="927" 
d="M508 1530l-84 67l135 175h205l135 -175l-84 -67l-153 192zM408 98q106 0 149 60t43 215v1061h133v-1080q0 -201 -80 -293q-81 -92 -237 -92q-299 0 -355 350l136 35q20 -106 57 -172q48 -84 154 -84z" />
    <glyph glyph-name="jcircumflex" unicode="&#x135;" horiz-adv-x="550" 
d="M121 -399h-51v123h28q53 0 76 24t23 98v1239h133v-1220q0 -143 -51 -204q-52 -60 -158 -60zM115 1192l-84 68l135 174h205l135 -174l-84 -68l-154 192z" />
    <glyph glyph-name="Kcommaaccent" unicode="&#x136;" horiz-adv-x="1189" 
d="M621 -283h-101v168h195v-137q1 -98 -45 -143t-150 -51v65q55 8 78 31t23 67zM317 0h-133v1434h133v-729h5l612 729h172l-522 -619l585 -815h-161l-514 715h-5l-172 -203v-512z" />
    <glyph glyph-name="kcommaaccent" unicode="&#x137;" horiz-adv-x="1081" 
d="M473 -283v168h195v-137q0 -98 -46 -143t-149 -51v65q55 8 78 31t22 67h-100zM317 0h-133v1495h133v-922h5l479 512h184l-397 -426l452 -659h-159l-392 567h-4l-168 -178v-389z" />
    <glyph glyph-name="kgreenlandic" unicode="&#x138;" horiz-adv-x="1081" 
d="M317 0h-133v1085h133v-514l484 514h184l-397 -426l452 -659h-159l-394 569l-170 -180v-389z" />
    <glyph glyph-name="Lacute" unicode="&#x139;" horiz-adv-x="1042" 
d="M324 1567h-121l159 245h181zM971 0h-766v1434h133v-1311h633v-123z" />
    <glyph glyph-name="lacute" unicode="&#x13a;" horiz-adv-x="501" 
d="M303 1567h-121l160 245h180zM317 0h-133v1495h133v-1495z" />
    <glyph glyph-name="Lcommaaccent" unicode="&#x13b;" horiz-adv-x="1042" 
d="M504 -283v168h194v-137q0 -98 -45 -143t-149 -51v65q55 8 78 31t22 67h-100zM971 0h-766v1434h133v-1311h633v-123z" />
    <glyph glyph-name="lcommaaccent" unicode="&#x13c;" horiz-adv-x="501" 
d="M254 -283h-100v168h194v-137q0 -98 -45 -143t-149 -51v65q56 8 78 31t22 67zM317 0h-133v1495h133v-1495z" />
    <glyph glyph-name="Lcaron" unicode="&#x13d;" horiz-adv-x="1042" 
d="M756 1196h-101l58 299h145zM971 0h-766v1434h133v-1311h633v-123z" />
    <glyph glyph-name="lcaron" unicode="&#x13e;" horiz-adv-x="520" 
d="M520 1196h-100l57 299h146zM317 0h-133v1495h133v-1495z" />
    <glyph glyph-name="Ldot" unicode="&#x13f;" horiz-adv-x="1042" 
d="M799 680h-217v217h217v-217zM971 0h-766v1434h133v-1311h633v-123z" />
    <glyph glyph-name="ldot" unicode="&#x140;" horiz-adv-x="663" 
d="M664 680h-218v217h218v-217zM317 0h-133v1495h133v-1495z" />
    <glyph glyph-name="Lslash" unicode="&#x141;" horiz-adv-x="1189" 
d="M1118 0h-868v676l-154 -154l-65 68l219 219v625h133v-502l227 227l66 -67l-293 -293v-676h735v-123z" />
    <glyph glyph-name="lslash" unicode="&#x142;" horiz-adv-x="509" 
d="M322 0h-134v813l-153 -154l-66 68l219 219v549h134v-434l153 153l66 -67l-219 -219v-928z" />
    <glyph glyph-name="Nacute" unicode="&#x143;" horiz-adv-x="1396" 
d="M758 1567h-121l158 245h180zM338 0h-133v1434h182l668 -1244h4v1244h133v-1434h-176l-674 1243h-4v-1243z" />
    <glyph glyph-name="nacute" unicode="&#x144;" horiz-adv-x="1212" 
d="M664 1219h-121l157 245h181zM317 0h-133v1085h133v-104h5q43 59 132 97t183 38q174 0 288 -107t113 -296v-713h-133v664q-1 162 -71 246t-207 83q-137 0 -223 -78t-87 -213v-702z" />
    <glyph glyph-name="Ncommaaccent" unicode="&#x145;" horiz-adv-x="1396" 
d="M709 -283h-101v168h195v-137q1 -98 -45 -143t-150 -51v65q55 8 78 31t23 67zM338 0h-133v1434h182l668 -1244h4v1244h133v-1434h-176l-674 1243h-4v-1243z" />
    <glyph glyph-name="ncommaaccent" unicode="&#x146;" horiz-adv-x="1212" 
d="M514 -283v168h195v-137q1 -98 -45 -143t-150 -51v65q55 8 78 31t22 67h-100zM317 0h-133v1085h133v-104h5q43 59 132 97t183 38q174 0 288 -107t113 -296v-713h-133v664q-1 162 -71 246t-207 83q-137 0 -223 -78t-87 -213v-702z" />
    <glyph glyph-name="Ncaron" unicode="&#x147;" horiz-adv-x="1396" 
d="M809 1567h-205l-135 174l84 67l154 -192l153 192l84 -67zM338 0h-133v1434h182l668 -1244h4v1244h133v-1434h-176l-674 1243h-4v-1243z" />
    <glyph glyph-name="ncaron" unicode="&#x148;" horiz-adv-x="1212" 
d="M723 1217h-205l-135 174l84 67l154 -192l153 192l84 -67zM317 0h-133v1085h133v-104h5q43 59 132 97t183 38q174 0 288 -107t113 -296v-713h-133v664q-1 162 -71 246t-207 83q-137 0 -223 -78t-87 -213v-702z" />
    <glyph glyph-name="Eng" unicode="&#x14a;" horiz-adv-x="1402" 
d="M338 0h-133v1434h127l729 -1176h4v1176h133v-1573q0 -133 -57 -193t-183 -59h-61v131h66q63 0 87 29t23 110v135l-731 1162h-4v-1176z" />
    <glyph glyph-name="eng" unicode="&#x14b;" horiz-adv-x="1179" 
d="M317 0h-133v1085h133v-104h5q100 135 284 135t292 -114t108 -308v-829q0 -143 -52 -203t-157 -61h-52v123h29q53 0 76 24t22 98v818q0 156 -70 242t-202 87q-131 0 -207 -84t-76 -227v-682z" />
    <glyph glyph-name="Omacron" unicode="&#x14c;" horiz-adv-x="1439" 
d="M1034 1567h-590v112h590v-112zM123 729q0 348 175 542q175 193 422 193t422 -196t175 -572t-175 -552t-418 -175q-243 0 -415 172q-186 190 -186 588zM266 726q0 -302 126 -465t332 -163t328 162t122 461t-130 455q-128 160 -322 160t-327 -154q-129 -154 -129 -456z" />
    <glyph glyph-name="omacron" unicode="&#x14d;" horiz-adv-x="1189" 
d="M909 1270h-590v112h590v-112zM1077 539q0 -268 -134 -419t-344 -151t-349 152q-137 152 -137 420t141 422q141 153 343 153t341 -154t139 -423zM246 540q0 -212 100 -330t250 -118t250 119q98 121 98 331t-96 330t-251 121q-155 0 -253 -120q-98 -121 -98 -333z" />
    <glyph glyph-name="Obreve" unicode="&#x14e;" horiz-adv-x="1439" 
d="M492 1782h77q23 -121 173 -121t167 121h78q1 -111 -67 -173q-68 -63 -181 -63t-180 62t-67 174zM123 729q0 348 175 542q175 193 422 193t422 -196t175 -572t-175 -552t-418 -175q-243 0 -415 172q-186 190 -186 588zM266 726q0 -302 126 -465t332 -163t328 162t122 461
t-130 455q-128 160 -322 160t-327 -154q-129 -154 -129 -456z" />
    <glyph glyph-name="obreve" unicode="&#x14f;" horiz-adv-x="1189" 
d="M367 1434h77q24 -121 174 -121t166 121h78q0 -111 -68 -173q-68 -63 -180 -63q-113 0 -180 62t-67 174zM1077 539q0 -268 -134 -419t-344 -151t-349 152q-137 152 -137 420t141 422q141 153 343 153t341 -154t139 -423zM246 540q0 -212 100 -330t250 -118t250 119
q98 121 98 331t-96 330t-251 121q-155 0 -253 -120q-98 -121 -98 -333z" />
    <glyph glyph-name="Ohungarumlaut" unicode="&#x150;" horiz-adv-x="1439" 
d="M924 1567h-111l154 235h170zM659 1567h-110l153 235h170zM123 729q0 348 175 542q175 193 422 193t422 -196t175 -572t-175 -552t-418 -175q-243 0 -415 172q-186 190 -186 588zM266 726q0 -302 126 -465t332 -163t328 162t122 461t-130 455q-128 160 -322 160t-327 -154
q-129 -154 -129 -456z" />
    <glyph glyph-name="ohungarumlaut" unicode="&#x151;" horiz-adv-x="1189" 
d="M803 1219h-111l154 235h170zM539 1219h-111l154 235h170zM1077 539q0 -268 -134 -419t-344 -151t-349 152q-137 152 -137 420t141 422q141 153 343 153t341 -154t139 -423zM246 540q0 -212 100 -330t250 -118t250 119q98 121 98 331t-96 330t-251 121q-155 0 -253 -120
q-98 -121 -98 -333z" />
    <glyph glyph-name="OE" unicode="&#x152;" horiz-adv-x="2074" 
d="M735 1335q-201 0 -336 -155q-133 -156 -133 -456t132 -463t337 -163q236 1 361 191v858q-129 188 -361 188zM1921 0h-825v102q-145 -133 -373 -133t-410 172q-190 190 -190 588q0 175 51 319t139 234q176 182 422 182q211 0 361 -133v103h825v-123h-682v-496h625v-119
h-625v-573h682v-123z" />
    <glyph glyph-name="oe" unicode="&#x153;" horiz-adv-x="2035" 
d="M1083 616h703q0 136 -73 249q-37 58 -109 93t-166 35t-167 -39q-124 -66 -169 -221q-19 -62 -19 -117zM246 540q0 -212 100 -330t250 -118t250 119q98 121 98 331t-96 330t-251 121q-155 0 -253 -120q-98 -121 -98 -333zM1464 -31q-156 0 -271 69q-116 69 -179 193
q-61 -127 -169 -195t-245 -67q-211 0 -350 152q-137 152 -137 420t141 422t346 153q131 0 240 -70t170 -194q63 127 174 196t254 68q219 0 352 -152t133 -421v-39h-844q-1 -164 95 -288t275 -124t257 96q41 51 55 76q12 25 37 78l111 -57q-45 -131 -167 -223t-278 -93z" />
    <glyph glyph-name="Racute" unicode="&#x154;" horiz-adv-x="1320" 
d="M670 1567h-121l160 245h180zM338 1311v-584h399q162 0 255 71t93 220q0 293 -352 293h-395zM338 0h-133v1434h540q229 0 351 -104t123 -296q-1 -190 -99 -294t-270 -130l324 -610h-154l-313 604h-369v-604z" />
    <glyph glyph-name="racute" unicode="&#x155;" horiz-adv-x="706" 
d="M442 1219h-120l157 245h180zM317 0h-133v1085h129v-116h4q72 135 226 135q51 0 84 -14l8 -7l-27 -135q-24 16 -102 16t-133 -66q-55 -67 -56 -191v-707z" />
    <glyph glyph-name="Rcommaaccent" unicode="&#x156;" horiz-adv-x="1320" 
d="M662 -283h-101v168h195v-137q0 -98 -46 -143t-149 -51v65q55 8 78 31t23 67zM338 1311v-584h399q162 0 255 71t93 220q0 293 -352 293h-395zM338 0h-133v1434h540q229 0 351 -104t123 -296q-1 -190 -99 -294t-270 -130l324 -610h-154l-313 604h-369v-604z" />
    <glyph glyph-name="rcommaaccent" unicode="&#x157;" horiz-adv-x="706" 
d="M170 -283v168h195v-137q1 -98 -45 -143t-150 -51v65q55 8 78 31t22 67h-100zM317 0h-133v1085h129v-116h4q72 135 226 135q51 0 84 -14l8 -7l-27 -135q-24 16 -102 16t-133 -66q-55 -67 -56 -191v-707z" />
    <glyph glyph-name="Rcaron" unicode="&#x158;" horiz-adv-x="1320" 
d="M766 1567h-205l-135 174l84 67l154 -192l153 192l84 -67zM338 1311v-584h399q162 0 255 71t93 220q0 293 -352 293h-395zM338 0h-133v1434h540q229 0 351 -104t123 -296q-1 -190 -99 -294t-270 -130l324 -610h-154l-313 604h-369v-604z" />
    <glyph glyph-name="rcaron" unicode="&#x159;" horiz-adv-x="706" 
d="M496 1217h-205l-135 174l84 67l153 -192l154 192l84 -67zM317 0h-133v1085h129v-116h4q72 135 226 135q51 0 84 -14l8 -7l-27 -135q-24 16 -102 16t-133 -66q-55 -67 -56 -191v-707z" />
    <glyph glyph-name="Sacute" unicode="&#x15a;" horiz-adv-x="1269" 
d="M754 1567h-121l160 245h180zM1042 366q0 112 -77 179q-78 65 -325 145t-353 168q-105 88 -105 241t119 259t323 106t332 -102t154 -295l-139 -25q-25 146 -107 220t-232 74t-232 -68q-81 -68 -81 -164t66 -152q68 -55 329 -143t362 -178q102 -90 102 -258t-128 -286
t-362 -118q-512 1 -575 531l139 24q35 -227 128 -326t314 -100q168 0 258 78t90 190z" />
    <glyph glyph-name="sacute" unicode="&#x15b;" horiz-adv-x="1056" 
d="M594 1219h-121l158 245h180zM551 88q135 0 205 51t70 141t-64 136q-63 51 -263 104t-280 123q-80 69 -80 187t99 200q98 86 268 86t274 -83t135 -226l-122 -33q-61 225 -287 225q-113 0 -176 -49q-64 -49 -64 -122q0 -74 58 -110t260 -96q204 -60 287 -132t83 -209
t-103 -225t-304 -87q-201 0 -316 109t-129 295l134 20q33 -305 315 -305z" />
    <glyph glyph-name="Scircumflex" unicode="&#x15c;" horiz-adv-x="1269" 
d="M535 1530l-84 67l135 175h205l135 -175l-84 -67l-154 192zM1042 366q0 112 -77 179q-78 65 -325 145t-353 168q-105 88 -105 241t119 259t323 106t332 -102t154 -295l-139 -25q-25 146 -107 220t-232 74t-232 -68q-81 -68 -81 -164t66 -152q68 -55 329 -143t362 -178
q102 -90 102 -258t-128 -286t-362 -118q-512 1 -575 531l139 24q35 -227 128 -326t314 -100q168 0 258 78t90 190z" />
    <glyph glyph-name="scircumflex" unicode="&#x15d;" horiz-adv-x="1056" 
d="M393 1192l-84 68l135 174h205l135 -174l-84 -68l-153 192zM551 88q135 0 205 51t70 141t-64 136q-63 51 -263 104t-280 123q-80 69 -80 187t99 200q98 86 268 86t274 -83t135 -226l-122 -33q-61 225 -287 225q-113 0 -176 -49q-64 -49 -64 -122q0 -74 58 -110t260 -96
q204 -60 287 -132t83 -209t-103 -225t-304 -87q-201 0 -316 109t-129 295l134 20q33 -305 315 -305z" />
    <glyph glyph-name="Scedilla" unicode="&#x15e;" horiz-adv-x="1269" 
d="M840 -242q0 84 -99 84q-74 0 -118 -28l-19 -11l-59 33l80 135q-451 33 -512 529l139 24q35 -227 128 -326t314 -100q168 0 258 78t90 190t-77 179q-78 65 -325 145t-353 168q-105 88 -105 241t119 259t323 106t332 -102t154 -295l-139 -25q-25 146 -107 220t-232 74
t-232 -68q-81 -68 -81 -164t66 -152q68 -55 329 -143t362 -178q102 -90 102 -256t-123 -283t-346 -123l-56 -88q45 29 120 29t125 -41t50 -120t-61 -130t-175 -51t-208 76l59 82q78 -59 154 -60q123 0 123 92z" />
    <glyph glyph-name="scedilla" unicode="&#x15f;" horiz-adv-x="1056" 
d="M698 -242q0 84 -89 84t-146 -39l-60 33l80 137q-174 19 -271 125t-110 275l134 20q33 -305 315 -305q135 0 205 51t70 141t-64 136q-63 51 -263 104t-280 123q-80 69 -80 187t99 200q98 86 268 86t274 -83t135 -226l-122 -33q-61 225 -287 225q-113 0 -176 -49
q-64 -49 -64 -122q0 -74 58 -110t260 -96q204 -60 287 -132t83 -207t-99 -223t-288 -91l-55 -88q45 29 120 29t125 -41t50 -120q1 -79 -61 -130t-176 -51t-208 76l60 82q78 -59 153 -60q123 0 123 92z" />
    <glyph glyph-name="Scaron" unicode="&#x160;" horiz-adv-x="1269" 
d="M786 1567h-204l-136 174l84 67l154 -192l154 192l84 -67zM1042 366q0 112 -77 179q-78 65 -325 145t-353 168q-105 88 -105 241t119 259t323 106t332 -102t154 -295l-139 -25q-25 146 -107 220t-232 74t-232 -68q-81 -68 -81 -164t66 -152q68 -55 329 -143t362 -178
q102 -90 102 -258t-128 -286t-362 -118q-512 1 -575 531l139 24q35 -227 128 -326t314 -100q168 0 258 78t90 190z" />
    <glyph glyph-name="scaron" unicode="&#x161;" horiz-adv-x="1056" 
d="M647 1217h-205l-135 174l84 67l154 -192l153 192l84 -67zM551 88q135 0 205 51t70 141t-64 136q-63 51 -263 104t-280 123q-80 69 -80 187t99 200q98 86 268 86t274 -83t135 -226l-122 -33q-61 225 -287 225q-113 0 -176 -49q-64 -49 -64 -122q0 -74 58 -110t260 -96
q204 -60 287 -132t83 -209t-103 -225t-304 -87q-201 0 -316 109t-129 295l134 20q33 -305 315 -305z" />
    <glyph glyph-name="Tcommaaccent" unicode="&#x162;" horiz-adv-x="1157" 
d="M502 -283v168h194v-137q0 -98 -45 -143t-149 -51v65q55 8 78 31t22 67h-100zM645 0h-133v1311h-451v123h1035v-123h-451v-1311z" />
    <glyph glyph-name="tcommaaccent" unicode="&#x163;" horiz-adv-x="724" 
d="M379 -283h-100v168h194v-137q0 -98 -45 -143t-149 -51v65q55 8 77 31t23 67zM223 293v670h-151v122h155v267h129v-267h267v-122h-267v-652q0 -100 28 -140t103 -40h78v-131h-82q-260 0 -260 293z" />
    <glyph glyph-name="Tcaron" unicode="&#x164;" horiz-adv-x="1157" 
d="M707 1567h-205l-135 174l84 67l153 -192l154 192l84 -67zM645 0h-133v1311h-451v123h1035v-123h-451v-1311z" />
    <glyph glyph-name="tcaron" unicode="&#x165;" horiz-adv-x="724" 
d="M610 1196h-100l57 299h146zM223 293v670h-151v122h155v267h129v-267h267v-122h-267v-652q0 -100 28 -140t103 -40h78v-131h-82q-260 0 -260 293z" />
    <glyph glyph-name="Tbar" unicode="&#x166;" horiz-adv-x="1157" 
d="M645 0h-133v692h-266v113h266v506h-451v123h1035v-123h-451v-506h266v-113h-266v-692z" />
    <glyph glyph-name="tbar" unicode="&#x167;" horiz-adv-x="724" 
d="M223 293v225h-151v113h151v332h-151v122h155v267h129v-267h267v-122h-267v-332h267v-113h-267v-207q0 -100 28 -140t103 -40h78v-131h-82q-260 0 -260 293z" />
    <glyph glyph-name="Utilde" unicode="&#x168;" horiz-adv-x="1345" 
d="M592 1747q51 0 122 -38t105 -38q55 0 72 66h76q-21 -90 -59 -135q-38 -46 -102 -46t-134 38t-107 38q-55 1 -71 -65h-76q39 180 174 180zM174 467v967h133v-955q0 -381 365 -381q180 0 273 96t93 281v959h133v-967q0 -244 -129 -371q-128 -127 -370 -127t-370 127
t-128 371z" />
    <glyph glyph-name="utilde" unicode="&#x169;" horiz-adv-x="1177" 
d="M496 1419q50 0 120 -38t107 -38q55 0 72 66h75q-20 -90 -58 -135t-102 -45t-134 38q-71 38 -107 38q-56 0 -72 -66h-75q39 180 174 180zM174 377v708h133v-684q0 -169 66 -239t207 -70t211 83t69 228v682h133v-1085h-133v104h-4q0 -8 -34 -38q-34 -28 -66 -48
q-75 -46 -195 -49q-183 1 -285 103t-102 305z" />
    <glyph glyph-name="Umacron" unicode="&#x16a;" horiz-adv-x="1345" 
d="M987 1567h-590v112h590v-112zM174 467v967h133v-955q0 -381 365 -381q180 0 273 96t93 281v959h133v-967q0 -244 -129 -371q-128 -127 -370 -127t-370 127t-128 371z" />
    <glyph glyph-name="umacron" unicode="&#x16b;" horiz-adv-x="1177" 
d="M895 1270h-590v112h590v-112zM174 377v708h133v-684q0 -169 66 -239t207 -70t211 83t69 228v682h133v-1085h-133v104h-4q0 -8 -34 -38q-34 -28 -66 -48q-75 -46 -195 -49q-183 1 -285 103t-102 305z" />
    <glyph glyph-name="Ubreve" unicode="&#x16c;" horiz-adv-x="1345" 
d="M444 1782h78q24 -121 174 -121t166 121h78q0 -111 -68 -173q-68 -63 -180 -63t-180 62t-68 174zM174 467v967h133v-955q0 -381 365 -381q180 0 273 96t93 281v959h133v-967q0 -244 -129 -371q-128 -127 -370 -127t-370 127t-128 371z" />
    <glyph glyph-name="ubreve" unicode="&#x16d;" horiz-adv-x="1177" 
d="M352 1434h78q24 -121 174 -121t166 121h78q0 -111 -68 -173q-68 -63 -180 -63t-180 62t-68 174zM174 377v708h133v-684q0 -169 66 -239t207 -70t211 83t69 228v682h133v-1085h-133v104h-4q0 -8 -34 -38q-34 -28 -66 -48q-75 -46 -195 -49q-183 1 -285 103t-102 305z" />
    <glyph glyph-name="Uring" unicode="&#x16e;" horiz-adv-x="1345" 
d="M809 1614q-1 57 -29 89t-72 32t-73 -32t-29 -89t29 -91t72 -34t73 34t29 91zM903 1611q0 -89 -54 -147t-141 -57q-87 0 -143 58q-55 57 -55 145t56 147t142 59t140 -58q55 -58 55 -147zM174 467v967h133v-955q0 -381 365 -381q180 0 273 96t93 281v959h133v-967
q0 -244 -129 -371q-128 -127 -370 -127t-370 127t-128 371z" />
    <glyph glyph-name="uring" unicode="&#x16f;" horiz-adv-x="1177" 
d="M597 1399q-44 0 -73 -32q-28 -32 -28 -89t28 -91t72 -34q43 0 73 34t29 91q0 57 -28 89q-29 32 -73 32zM597 1071q-87 0 -142 58q-55 57 -55 145t56 147t141 59t140 -58t55 -147t-54 -147t-141 -57zM174 377v708h133v-684q0 -169 66 -239t207 -70t211 83t69 228v682h133
v-1085h-133v104h-4q0 -8 -34 -38q-34 -28 -66 -48q-75 -46 -195 -49q-183 1 -285 103t-102 305z" />
    <glyph glyph-name="Uhungarumlaut" unicode="&#x170;" horiz-adv-x="1345" 
d="M881 1567h-111l154 235h170zM616 1567h-110l153 235h170zM174 467v967h133v-955q0 -381 365 -381q180 0 273 96t93 281v959h133v-967q0 -244 -129 -371q-128 -127 -370 -127t-370 127t-128 371z" />
    <glyph glyph-name="uhungarumlaut" unicode="&#x171;" horiz-adv-x="1122" 
d="M113 377v708h133v-684q0 -169 66 -239t206 -70q141 0 211 83t70 228v682h133v-1085h-133v104h-4q0 -7 -34 -37q-34 -29 -66 -49q-76 -46 -195 -49q-182 1 -284 103t-103 305zM715 1251h-111l154 236h170zM451 1251h-111l154 236h170z" />
    <glyph glyph-name="Uogonek" unicode="&#x172;" horiz-adv-x="1345" 
d="M692 -430q-84 0 -134 37t-50 106q0 121 156 256q-240 2 -365 128t-125 370v967h133v-955q0 -381 365 -381q180 0 273 96t93 281v959h133v-967q0 -215 -99 -339t-290 -151q-131 -131 -131 -229q0 -72 82 -72t154 78l57 -53q-100 -131 -252 -131z" />
    <glyph glyph-name="uogonek" unicode="&#x173;" horiz-adv-x="1177" 
d="M879 -430q-84 0 -135 37q-50 37 -50 106q0 129 195 287h-29v104h-4q0 -8 -34 -38q-34 -28 -66 -48q-75 -46 -195 -49q-183 1 -285 103t-102 305v708h133v-684q0 -169 66 -239t207 -70t211 83t69 228v682h133v-1085q-156 -143 -155 -252q0 -72 82 -72t153 78l57 -53
q-100 -131 -251 -131z" />
    <glyph glyph-name="Wcircumflex" unicode="&#x174;" horiz-adv-x="1859" 
d="M793 1530l-84 67l135 175h205l135 -175l-84 -67l-154 192zM545 0h-187l-256 1434h138l229 -1270h4l363 1270h188l362 -1270h5l229 1270h137l-268 -1434h-174l-383 1290h-6z" />
    <glyph glyph-name="wcircumflex" unicode="&#x175;" horiz-adv-x="1599" 
d="M641 1192l-84 68l135 174h205l135 -174l-84 -68l-153 192zM467 0h-125l-240 1085h134l184 -847h4l301 847h129l303 -847h4l203 847h133l-260 -1085h-121l-325 924h-5z" />
    <glyph glyph-name="Ycircumflex" unicode="&#x176;" horiz-adv-x="1155" 
d="M451 1530l-84 67l135 175h205l135 -175l-84 -67l-154 192zM641 0h-127v604l-473 830h149l385 -703h7l383 703h149l-473 -830v-604z" />
    <glyph glyph-name="ycircumflex" unicode="&#x177;" horiz-adv-x="1019" 
d="M377 1192l-84 68l135 174h205l135 -174l-84 -68l-154 192zM354 -461h-131l221 557l-393 989h142l315 -833h4l315 833h142z" />
    <glyph glyph-name="Ydieresis" unicode="&#x178;" horiz-adv-x="1155" 
d="M487 1567h-165v170h165v-170zM877 1567h-166v170h166v-170zM641 0h-127v604l-473 830h149l385 -703h7l383 703h149l-473 -830v-604z" />
    <glyph glyph-name="Zacute" unicode="&#x179;" horiz-adv-x="1263" 
d="M692 1567h-121l160 245h180zM1120 0h-997v98l852 1217v4h-782v115h948v-99l-852 -1208v-4h831v-123z" />
    <glyph glyph-name="zacute" unicode="&#x17a;" horiz-adv-x="1136" 
d="M610 1219h-121l158 245h180zM1012 0h-889v100l715 858v5h-672v122h848v-96l-711 -862v-4h709v-123z" />
    <glyph glyph-name="Zdotaccent" unicode="&#x17b;" horiz-adv-x="1263" 
d="M674 1567h-176v180h176v-180zM1120 0h-997v98l852 1217v4h-782v115h948v-99l-852 -1208v-4h831v-123z" />
    <glyph glyph-name="zdotaccent" unicode="&#x17c;" horiz-adv-x="1136" 
d="M651 1253h-176v181h176v-181zM1012 0h-889v100l715 858v5h-672v122h848v-96l-711 -862v-4h709v-123z" />
    <glyph glyph-name="Zcaron" unicode="&#x17d;" horiz-adv-x="1263" 
d="M760 1567h-205l-135 174l84 67l153 -192l154 192l84 -67zM1120 0h-997v98l852 1217v4h-782v115h948v-99l-852 -1208v-4h831v-123z" />
    <glyph glyph-name="zcaron" unicode="&#x17e;" horiz-adv-x="1136" 
d="M692 1217h-205l-135 174l84 67l154 -192l153 192l84 -67zM1012 0h-889v100l715 858v5h-672v122h848v-96l-711 -862v-4h709v-123z" />
    <glyph glyph-name="longs" unicode="&#x17f;" horiz-adv-x="593" 
d="M324 0h-134v963h-118v122h118v107q0 131 56 186t166 56h141v-123h-119q-68 0 -90 -27t-20 -113v-1171z" />
    <glyph glyph-name="florin" unicode="&#x192;" horiz-adv-x="1007" 
d="M721 1526q135 0 225 -117l-92 -88q-63 82 -128 82q-64 0 -100 -43t-59 -158l-45 -250h297l-18 -108h-297l-209 -1198h-131l209 1198h-201l18 108h201l53 279q59 295 277 295z" />
    <glyph glyph-name="Aringacute" unicode="&#x1fa;" horiz-adv-x="1269" 
d="M642 1747q-44 0 -73 -32t-29 -89t30 -91q28 -34 71 -34t73 34t29 91q0 57 -28 89q-29 32 -73 32zM637 1272h-4l-301 -856h606zM444 1624q0 78 50 136t124 67l107 166h180l-168 -189q100 -57 101 -180q0 -72 -36 -124t-95 -70l512 -1430h-134l-108 309h-684l-109 -309
h-133l514 1434q-121 51 -121 190z" />
    <glyph glyph-name="aringacute" unicode="&#x1fb;" horiz-adv-x="1103" 
d="M562 1399q-44 0 -73 -32t-29 -89t30 -91q28 -34 71 -34t73 34t30 91t-29 89t-73 32zM246 283q0 -190 233 -191q152 0 240 72t88 180v299h-4q-27 -63 -293 -137q-152 -43 -208 -92t-56 -131zM940 0h-123v125h-4q-35 -66 -128 -111t-216 -45q-170 0 -263 84t-93 219t83 213
t279 129l158 43q47 14 69 29q104 59 95 129q1 82 -61 130t-181 48q-231 0 -276 -229l-127 29q16 123 94 205t200 108q-82 57 -81 170q0 82 52 140t130 65l115 176h180l-180 -203q96 -59 96 -175t-84 -175q266 -57 266 -359v-745z" />
    <glyph glyph-name="AEacute" unicode="&#x1fc;" horiz-adv-x="1763" 
d="M836 1567h-121l159 245h181zM784 438v873h-155l-324 -873h479zM1569 1434v-123h-651v-512h593v-119h-593v-557h651v-123h-785v324h-518l-119 -324h-137l539 1434h1020z" />
    <glyph glyph-name="aeacute" unicode="&#x1fd;" horiz-adv-x="1898" 
d="M244 283q0 -190 235 -191q152 0 240 72t88 180v299h-4q-27 -63 -293 -137q-152 -43 -209 -92t-57 -131zM946 616h703q0 136 -73 249q-38 58 -110 93t-166 35t-166 -39q-124 -67 -169 -221q-19 -62 -19 -117zM1316 -31q-167 0 -280 83t-149 161h-4q-84 -244 -414 -244
q-170 0 -263 84t-93 218t80 210q81 76 283 131q202 56 261 96t59 114t-60 123q-62 48 -181 48q-231 0 -276 -229l-127 29q20 147 126 235t271 88q279 0 362 -201q139 201 389 201q219 0 353 -151q133 -152 133 -422v-39h-844q0 -164 96 -288t272 -124t253 96q59 78 92 156
l117 -59q-45 -131 -167 -223t-289 -93zM645 1219h-121l158 245h180z" />
    <glyph glyph-name="Oslashacute" unicode="&#x1fe;" horiz-adv-x="1439" 
d="M684 1335q-197 0 -330 -153q-129 -154 -129 -457t135 -475l574 999q-111 86 -250 86zM684 98q205 0 327 162q121 162 121 461t-137 467l-571 -1002q106 -88 260 -88zM82 729q0 348 175 542t427 193q168 0 313 -102l60 102l73 -43l-65 -114q211 -211 211 -599t-175 -564
t-417 -175q-184 0 -330 97l-55 -97l-76 41l64 113q-205 199 -205 606zM758 1567h-121l158 245h180z" />
    <glyph glyph-name="oslashacute" unicode="&#x1ff;" horiz-adv-x="1189" 
d="M546 993q-144 0 -243 -120t-99 -312t72 -311l506 651q-92 92 -236 92zM562 92q144 0 243 119q98 121 98 313t-72 312l-505 -648q92 -96 236 -96zM72 553q0 256 141 410t346 153q174 0 301 -115l82 105l62 -49l-91 -115q123 -156 123 -414t-134 -408q-134 -151 -332 -151
t-324 115l-82 -104l-62 47l91 114q-121 156 -121 412zM655 1219h-120l157 245h180z" />
    <glyph glyph-name="Scommaaccent" unicode="&#x218;" horiz-adv-x="1269" 
d="M705 -283h-101v168h195v-137q1 -98 -45 -143t-150 -51v65q55 8 78 31t23 67zM1042 366q0 112 -77 179q-78 65 -325 145t-353 168q-105 88 -105 241t119 259t323 106t332 -102t154 -295l-139 -25q-25 146 -107 220t-232 74t-232 -68q-81 -68 -81 -164t66 -152
q68 -55 329 -143t362 -178q102 -90 102 -258t-128 -286t-362 -118q-512 1 -575 531l139 24q35 -227 128 -326t314 -100q168 0 258 78t90 190z" />
    <glyph glyph-name="scommaaccent" unicode="&#x219;" horiz-adv-x="1056" 
d="M469 -283v168h195v-137q0 -98 -46 -143t-149 -51v65q55 8 78 31t22 67h-100zM551 88q135 0 205 51t70 141t-64 136q-63 51 -263 104t-280 123q-80 69 -80 187t99 200q98 86 268 86t274 -83t135 -226l-122 -33q-61 225 -287 225q-113 0 -176 -49q-64 -49 -64 -122
q0 -74 58 -110t260 -96q204 -60 287 -132t83 -209t-103 -225t-304 -87q-201 0 -316 109t-129 295l134 20q33 -305 315 -305z" />
    <glyph glyph-name="dotlessj" unicode="&#x237;" horiz-adv-x="495" 
d="M113 -399h-52v123h29q53 0 76 24t22 98v1239h134v-1220q0 -143 -52 -203t-157 -61z" />
    <glyph glyph-name="circumflex" unicode="&#x2c6;" horiz-adv-x="638" 
d="M166 1192l-84 68l135 174h205l135 -174l-84 -68l-154 192z" />
    <glyph glyph-name="caron" unicode="&#x2c7;" horiz-adv-x="638" 
d="M422 1217h-205l-135 174l84 67l153 -192l154 192l84 -67z" />
    <glyph glyph-name="breve" unicode="&#x2d8;" horiz-adv-x="700" 
d="M102 1434h78q24 -121 174 -121t166 121h78q0 -111 -68 -173q-68 -63 -180 -63t-180 62t-68 174z" />
    <glyph glyph-name="dotaccent" unicode="&#x2d9;" horiz-adv-x="544" 
d="M360 1253h-176v181h176v-181z" />
    <glyph glyph-name="ring" unicode="&#x2da;" horiz-adv-x="638" 
d="M320 1399q-44 0 -72 -32t-29 -89q0 -57 29 -91q30 -34 72 -34t72 34t30 91t-29 89t-73 32zM320 1071q-87 0 -142 58q-55 57 -55 145t56 147t141 59q84 0 140 -58t56 -147t-54 -147q-55 -57 -142 -57z" />
    <glyph glyph-name="ogonek" unicode="&#x2db;" horiz-adv-x="600" 
d="M266 -430q-84 0 -134 37t-50 106q0 129 194 287h105q-156 -143 -156 -252q0 -72 82 -72t154 78l57 -53q-100 -131 -252 -131z" />
    <glyph glyph-name="tilde" unicode="&#x2dc;" horiz-adv-x="794" 
d="M297 1419q51 0 121 -38t106 -38q55 0 72 66h76q-20 -90 -58 -135t-103 -45q-64 0 -134 38t-107 38q-55 0 -71 -66h-76q39 180 174 180z" />
    <glyph glyph-name="hungarumlaut" unicode="&#x2dd;" horiz-adv-x="956" 
d="M559 1219h-110l153 235h170zM295 1219h-111l154 235h170z" />
    <glyph glyph-name="uni0312" unicode="&#x312;" horiz-adv-x="589" 
d="M305 1432h80v-177h-180v152q0 160 172 176v-63q-72 -10 -72 -88z" />
    <glyph glyph-name="pi" unicode="&#x3c0;" horiz-adv-x="1523" 
d="M406 1294h-222v140h1176v-140h-164v-989q0 -190 27 -305h-140q-35 63 -34 293v1001h-498q1 -294 -49 -618t-99 -500l-49 -176h-145l20 72q6 20 45 184t62 292q22 128 46 350t24 396z" />
    <glyph glyph-name="Wgrave" unicode="&#x1e80;" horiz-adv-x="1859" 
d="M1006 1567h-121l-219 245h180zM545 0h-187l-256 1434h138l229 -1270h4l363 1270h188l362 -1270h5l229 1270h137l-268 -1434h-174l-383 1290h-6z" />
    <glyph glyph-name="wgrave" unicode="&#x1e81;" horiz-adv-x="1599" 
d="M838 1219h-121l-219 245h180zM467 0h-125l-240 1085h134l184 -847h4l301 847h129l303 -847h4l203 847h133l-260 -1085h-121l-325 924h-5z" />
    <glyph glyph-name="Wacute" unicode="&#x1e82;" horiz-adv-x="1859" 
d="M991 1567h-121l160 245h180zM545 0h-187l-256 1434h138l229 -1270h4l363 1270h188l362 -1270h5l229 1270h137l-268 -1434h-174l-383 1290h-6z" />
    <glyph glyph-name="wacute" unicode="&#x1e83;" horiz-adv-x="1599" 
d="M864 1219h-121l158 245h180zM467 0h-125l-240 1085h134l184 -847h4l301 847h129l303 -847h4l203 847h133l-260 -1085h-121l-325 924h-5z" />
    <glyph glyph-name="Wdieresis" unicode="&#x1e84;" horiz-adv-x="1859" 
d="M829 1567h-165v170h165v-170zM1219 1567h-166v170h166v-170zM545 0h-187l-256 1434h138l229 -1270h4l363 1270h188l362 -1270h5l229 1270h137l-268 -1434h-174l-383 1290h-6z" />
    <glyph glyph-name="wdieresis" unicode="&#x1e85;" horiz-adv-x="1599" 
d="M1065 1264h-166v170h166v-170zM676 1264h-166v170h166v-170zM467 0h-125l-240 1085h134l184 -847h4l301 847h129l303 -847h4l203 847h133l-260 -1085h-121l-325 924h-5z" />
    <glyph glyph-name="Ygrave" unicode="&#x1ef2;" horiz-adv-x="1155" 
d="M678 1567h-121l-219 245h180zM641 0h-127v604l-473 830h149l385 -703h7l383 703h149l-473 -830v-604z" />
    <glyph glyph-name="ygrave" unicode="&#x1ef3;" horiz-adv-x="1019" 
d="M582 1219h-121l-219 245h180zM354 -461h-131l221 557l-393 989h142l315 -833h4l315 833h142z" />
    <glyph glyph-name="endash" unicode="&#x2013;" horiz-adv-x="1267" 
d="M1145 651h-1022v123h1022v-123z" />
    <glyph glyph-name="emdash" unicode="&#x2014;" horiz-adv-x="2066" 
d="M1841 651h-1616v123h1616v-123z" />
    <glyph glyph-name="quoteleft" unicode="&#x2018;" horiz-adv-x="626" 
d="M123 1247v187h217v-217h-96q0 -105 96 -121v-78q-217 14 -217 229z" />
    <glyph glyph-name="quoteright" unicode="&#x2019;" horiz-adv-x="626" 
d="M301 1217h-96v217h217v-187q0 -215 -217 -229v78q96 16 96 121z" />
    <glyph glyph-name="quotesinglbase" unicode="&#x201a;" horiz-adv-x="626" 
d="M260 0h-96v217h217v-186q0 -216 -217 -230v78q96 16 96 121z" />
    <glyph glyph-name="quotedblleft" unicode="&#x201c;" horiz-adv-x="974" 
d="M471 1253v187h217v-217h-96q0 -105 96 -121v-78q-217 14 -217 229zM123 1253v187h217v-217h-96q0 -105 96 -121v-78q-217 14 -217 229z" />
    <glyph glyph-name="quotedblright" unicode="&#x201d;" horiz-adv-x="974" 
d="M608 1223h-96v217h217v-187q0 -215 -217 -229v78q96 16 96 121zM260 1223h-96v217h217v-187q0 -215 -217 -229v78q96 16 96 121z" />
    <glyph glyph-name="quotedblbase" unicode="&#x201e;" horiz-adv-x="974" 
d="M649 0h-96v217h217v-186q0 -216 -217 -230v78q96 16 96 121zM301 0h-96v217h217v-186q0 -216 -217 -230v78q96 16 96 121z" />
    <glyph glyph-name="dagger" unicode="&#x2020;" horiz-adv-x="1275" 
d="M705 -461h-134v1364h-448v123h448v469h134v-469h448v-123h-448v-1364z" />
    <glyph glyph-name="daggerdbl" unicode="&#x2021;" horiz-adv-x="1275" 
d="M705 -461h-134v461h-448v113h448v800h-448v113h448v469h134v-469h448v-113h-448v-800h448v-113h-448v-461z" />
    <glyph glyph-name="bullet" unicode="&#x2022;" horiz-adv-x="595" 
d="M297 588q-74 0 -119 47t-45 121t45 121t119 47t120 -47t46 -121t-46 -121t-120 -47z" />
    <glyph glyph-name="ellipsis" unicode="&#x2026;" horiz-adv-x="1583" 
d="M1378 0h-217v217h217v-217zM907 0h-217v217h217v-217zM422 0h-217v217h217v-217z" />
    <glyph glyph-name="perthousand" unicode="&#x2030;" horiz-adv-x="2807" 
d="M467 -137l-92 55l1001 1669l90 -57zM1436 -25q-160 1 -249 115t-89 310t100 300t238 104t238 -106q102 -106 102 -299t-90 -309t-250 -115zM1221 398q0 -146 56 -228q57 -84 159 -84t159 85t57 230t-56 219q-58 74 -159 74t-159 -74q-57 -76 -57 -222zM123 1054
q0 196 100 300q99 104 237 104t239 -106t101 -299t-89 -309q-90 -116 -250 -116t-249 116q-89 114 -89 310zM462 1348q-102 0 -158 -75q-58 -75 -58 -221t56 -229q56 -84 158 -84t161 85q57 84 57 230t-57 220t-159 74zM2304 -25q-160 1 -249 115t-89 310t100 300t238 104
t238 -106q102 -106 102 -299t-90 -309t-250 -115zM2089 398q0 -146 56 -228q57 -84 159 -84t160 85q57 85 57 230t-57 219q-56 74 -158 74t-160 -74q-57 -76 -57 -222z" />
    <glyph glyph-name="guilsinglleft" unicode="&#x2039;" horiz-adv-x="755" 
d="M569 205h-145l-219 370l221 381h145l-223 -381z" />
    <glyph glyph-name="guilsinglright" unicode="&#x203a;" horiz-adv-x="755" 
d="M289 956l221 -381l-219 -370h-146l222 370l-224 381h146z" />
    <glyph glyph-name="fraction" unicode="&#x2044;" horiz-adv-x="681" 
d="M-113 -137l-92 55l1002 1669l90 -57z" />
    <glyph glyph-name="zerosuperior" unicode="&#x2070;" horiz-adv-x="831" 
d="M417 1069q197 0 197 338t-198 338t-197 -338q0 -338 198 -338zM92 1410q0 216 87 330t237 114t236 -114t87 -330q0 -216 -86 -334q-85 -118 -237 -118t-238 118t-86 334z" />
    <glyph glyph-name="foursuperior" unicode="&#x2074;" horiz-adv-x="790" 
d="M461 1296v449h-4l-275 -449h279zM461 1186h-389v110l331 547h175v-547h110v-110h-110v-215h-117v215z" />
    <glyph glyph-name="fivesuperior" unicode="&#x2075;" horiz-adv-x="813" 
d="M416 1069q84 0 136 53q52 52 52 144t-52 144t-136 52q-121 0 -193 -102l-100 45l78 438h430v-110h-338l-47 -256h4q66 79 188 79t202 -80q81 -80 81 -215t-87 -219t-216 -84t-211 64t-115 174l113 47q19 -82 73 -128t138 -46z" />
    <glyph glyph-name="sixsuperior" unicode="&#x2076;" horiz-adv-x="831" 
d="M213 1417h4q18 49 85 89q66 40 168 40t186 -78t83 -212q0 -134 -84 -216q-83 -82 -227 -82t-240 113t-96 319t94 334t248 129q110 0 180 -60t88 -159l-108 -30q-39 143 -166 143q-94 0 -154 -89t-61 -241zM623 1260q-1 86 -51 137t-134 51t-138 -52t-54 -134t54 -136
t140 -55t134 51t49 138z" />
    <glyph glyph-name="sevensuperior" unicode="&#x2077;" horiz-adv-x="659" 
d="M479 1733h-448v110h567v-133l-389 -741h-139l409 762v2z" />
    <glyph glyph-name="eightsuperior" unicode="&#x2078;" horiz-adv-x="743" 
d="M373 1395q-85 0 -135 -46t-50 -118t50 -116t134 -44q85 0 134 44t49 116t-49 118t-133 46zM635 1628q0 -127 -115 -180v-4q70 -25 111 -85t41 -138q0 -121 -82 -192t-217 -71t-218 71t-83 192q0 80 42 140t113 83v4q-115 47 -114 180q0 94 72 160q73 66 187 66t188 -66
t75 -160zM227 1617q0 -56 40 -94q39 -38 103 -38t105 39t41 94t-39 94t-105 39t-105 -39q-40 -39 -40 -95z" />
    <glyph glyph-name="ninesuperior" unicode="&#x2079;" horiz-adv-x="806" 
d="M197 1559q0 -87 49 -137t134 -50t134 48t49 132t-52 138t-134 55q-82 0 -131 -50t-49 -136zM399 1067q193 0 193 326h-4q-8 -45 -70 -85t-164 -40q-104 0 -188 80t-84 212t83 213t223 81t228 -116t88 -337t-80 -332q-81 -111 -229 -111q-113 0 -183 59t-97 157l108 36
q33 -143 176 -143z" />
    <glyph glyph-name="plussuperior" unicode="&#x207a;" horiz-adv-x="927" 
d="M516 1055h-104v331h-289v97h289v293h104v-293h289v-97h-289v-331z" />
    <glyph glyph-name="minussuperior" unicode="&#x207b;" horiz-adv-x="866" 
d="M743 1483v-97h-620v97h620z" />
    <glyph glyph-name="zeroinferior" unicode="&#x2080;" horiz-adv-x="831" 
d="M417 -309q197 0 197 338t-198 338t-197 -338q0 -338 198 -338zM92 32q0 216 87 330t237 113q150 0 236 -114q86 -113 87 -329q0 -216 -86 -334q-85 -118 -237 -118t-238 118t-86 334z" />
    <glyph glyph-name="oneinferior" unicode="&#x2081;" horiz-adv-x="550" 
d="M377 -410h-117v734l-188 -117v133l200 125h105v-875z" />
    <glyph glyph-name="twoinferior" unicode="&#x2082;" horiz-adv-x="751" 
d="M670 -410h-582v97q0 109 53 186q29 37 78 70l64 37q20 6 49 26q147 82 183 119t36 97t-46 104t-124 43q-168 0 -182 -197l-117 14q8 135 88 212t211 77t208 -72t77 -182t-78 -182q-66 -57 -158 -102l-94 -52q-68 -37 -92 -73t-23 -97h449v-125z" />
    <glyph glyph-name="threeinferior" unicode="&#x2083;" horiz-adv-x="737" 
d="M368 -311q90 0 137 43q46 44 46 118t-49 115t-142 41h-51v98h35q61 -2 116 27q54 29 56 95t-39 104t-112 37q-135 0 -158 -154l-111 20q8 111 83 177t190 66t189 -64q74 -63 75 -168q0 -68 -38 -114t-87 -62v-5q68 -18 113 -76t45 -159q0 -100 -81 -174t-214 -74
q-283 0 -320 301l119 25q12 -113 60 -165t138 -52z" />
    <glyph glyph-name="fourinferior" unicode="&#x2084;" horiz-adv-x="790" 
d="M461 -82v449h-4l-275 -449h279zM461 -193h-389v111l331 547h175v-547h110v-111h-110v-215h-117v215z" />
    <glyph glyph-name="fiveinferior" unicode="&#x2085;" horiz-adv-x="813" 
d="M416 -309q84 0 136 53t52 144q0 92 -52 144t-136 52q-121 0 -193 -102l-100 45l78 438h430v-111h-338l-47 -256h4q66 80 188 80t202 -81q81 -81 81 -215t-87 -218t-216 -84t-211 64t-115 174l113 47q19 -82 73 -128t138 -46z" />
    <glyph glyph-name="sixinferior" unicode="&#x2086;" horiz-adv-x="831" 
d="M213 37h4q18 49 85 89q66 40 168 40t186 -78t83 -212q0 -134 -84 -216q-83 -82 -227 -82t-240 113t-96 319t94 334q94 129 248 129q110 0 180 -60t88 -159l-108 -31q-39 143 -166 144q-94 0 -154 -89t-61 -241zM623 -121q-1 86 -51 137q-50 52 -134 52t-138 -52t-54 -135
q0 -82 54 -136t140 -54t134 51t49 137z" />
    <glyph glyph-name="seveninferior" unicode="&#x2087;" horiz-adv-x="659" 
d="M479 354h-448v111h567v-133l-389 -742h-139l409 762v2z" />
    <glyph glyph-name="eightinferior" unicode="&#x2088;" horiz-adv-x="743" 
d="M373 16q-85 0 -135 -46t-50 -118t50 -116t134 -43q85 0 134 44q49 43 49 115t-49 118t-133 46zM635 250q0 -127 -115 -180v-4q70 -25 111 -85t41 -139q0 -122 -82 -192t-217 -70t-218 71t-83 191q0 80 42 140t113 84v4q-115 47 -114 180q0 94 72 160q73 66 187 66
t188 -66t75 -160zM227 239q0 -57 40 -95q39 -38 103 -38t105 39t41 95t-39 94q-39 39 -105 39t-105 -39q-40 -39 -40 -95z" />
    <glyph glyph-name="nineinferior" unicode="&#x2089;" horiz-adv-x="806" 
d="M380 -6q85 0 134 48t49 132t-52 138t-134 54t-131 -50t-49 -136t49 -136t134 -50zM399 -311q193 0 193 325h-4q-8 -45 -70 -85t-164 -40q-104 0 -188 80t-84 212t83 213t223 81t228 -116q88 -117 88 -337t-80 -331q-81 -111 -229 -111q-113 0 -183 58t-97 157l108 37
q33 -143 176 -143z" />
    <glyph glyph-name="Euro" unicode="&#x20ac;" horiz-adv-x="1656" 
d="M164 489v123h207q-4 98 -4 136t2 55h-205v123h219q49 262 212 400t377 138t360 -139t177 -354l-133 -27q-27 180 -132 289t-274 109t-291 -110q-122 -108 -159 -306h432v-123h-446q-2 -15 -2 -75t6 -116h442v-123h-424q41 -188 159 -292q118 -105 292 -105t276 116
t121 318l137 -20q-21 -250 -167 -393t-365 -143t-381 126q-158 129 -211 393h-225z" />
    <glyph glyph-name="trademark" unicode="&#x2122;" horiz-adv-x="1576" 
d="M444 739h-100v602h-221v93h528v-93h-207v-602zM852 739h-102v695h157l205 -543h4l211 543h158v-695h-103v592h-4l-225 -592h-76l-221 592h-4v-592z" />
    <glyph glyph-name="Omega" unicode="&#x2126;" horiz-adv-x="1470" 
d="M664 0h-514v123h280q-123 70 -207 244q-80 174 -80 372q0 353 168 539t423 186t424 -187t169 -538q0 -203 -83 -375t-206 -241h283v-123h-514v123q158 29 264 186q111 160 111 402q0 311 -126 470t-321 159t-321 -162t-125 -467q0 -240 107 -402t268 -186v-123z" />
    <glyph glyph-name="onethird" unicode="&#x2153;" horiz-adv-x="1777" 
d="M1370 416h-51v98h35q61 -2 115 27t59 98q0 63 -41 100t-113 37q-137 0 -157 -153l-111 20q8 111 83 177t189 65q114 1 190 -63q75 -64 74 -169q0 -67 -38 -113t-86 -63v-4q68 -19 112 -77t45 -158q0 -100 -81 -175q-81 -74 -214 -73q-282 0 -319 301l119 24
q12 -113 60 -165t138 -52t136 43t46 118t-48 116q-50 41 -142 41zM397 559h-116v733l-189 -116v133l201 125h104v-875zM371 -137l-92 55l1001 1669l90 -57z" />
    <glyph glyph-name="twothirds" unicode="&#x2154;" horiz-adv-x="2043" 
d="M1786 263q0 75 -49 116t-142 41h-51v98h35q61 -2 116 27q54 29 56 95t-39 103t-113 37q-137 0 -157 -153l-111 20q8 111 83 177t190 65q116 1 190 -63t74 -169q0 -67 -38 -113t-87 -63v-4q69 -19 113 -77t44 -158t-80 -174q-81 -74 -214 -74q-283 0 -320 301l119 24
q12 -113 60 -165q49 -52 139 -52t136 43t46 118zM711 559h-582v96q0 109 53 187q29 37 78 69l41 25l23 10q16 16 49 29q147 82 176 110q43 47 43 107t-46 102q-46 43 -124 43q-168 0 -182 -196l-117 14q8 135 88 212t211 77t208 -72t77 -182t-78 -182q-66 -57 -158 -103
l-94 -51q-67 -37 -91 -73t-24 -97h449v-125zM610 -137l-92 55l1002 1669l90 -57z" />
    <glyph glyph-name="onefifth" unicode="&#x2155;" horiz-adv-x="1783" 
d="M1386 100q84 0 136 54t53 144q0 91 -52 143t-137 53q-121 0 -192 -103l-100 45l77 438h431v-110h-338l-47 -256h4q65 80 187 80t203 -81t81 -215t-87 -218t-217 -84t-210 63q-82 63 -115 174l113 47q18 -82 72 -128t138 -46zM397 559h-116v733l-189 -116v133l201 125h104
v-875zM371 -137l-92 55l1001 1669l90 -57z" />
    <glyph glyph-name="twofifths" unicode="&#x2156;" horiz-adv-x="2066" 
d="M1628 100q84 0 136 54t52 144q0 91 -52 143t-136 53q-121 0 -192 -103l-101 45l78 438h430v-110h-338l-47 -256h4q66 80 188 80t201 -82q82 -80 82 -214t-87 -218t-216 -84t-211 63q-81 63 -114 174l112 47q19 -82 73 -128t138 -46zM711 559h-582v96q0 109 53 187
q29 37 78 69l41 25l23 10q16 16 49 29q147 82 176 110q43 47 43 107t-46 102q-46 43 -124 43q-168 0 -182 -196l-117 14q8 135 88 212t211 77t208 -72t77 -182t-78 -182q-66 -57 -158 -103l-94 -51q-67 -37 -91 -73t-24 -97h449v-125zM610 -137l-92 55l1002 1669l90 -57z
" />
    <glyph glyph-name="threefifths" unicode="&#x2157;" horiz-adv-x="2019" 
d="M1581 100q84 0 136 54t52 144q0 91 -52 143t-136 53q-121 0 -192 -103l-101 45l78 438h430v-110h-338l-47 -256h4q63 80 187 80t202 -82q82 -80 82 -214t-87 -218t-216 -84t-211 63t-115 174l113 47q18 -82 72 -128t139 -46zM623 818q1 75 -49 116t-142 41h-51v98h35
q61 -2 115 27t59 98q0 63 -41 100t-113 37q-137 0 -157 -153l-111 20q8 110 83 176t189 66t190 -64q75 -64 75 -168q0 -68 -38 -114t-87 -62v-4q68 -18 112 -76t45 -160q0 -100 -81 -174t-214 -73q-282 0 -319 301l119 24q12 -112 60 -164t138 -52t137 42q46 43 46 118z
M539 -137l-93 55l1002 1669l90 -57z" />
    <glyph glyph-name="fourfifths" unicode="&#x2158;" horiz-adv-x="1988" 
d="M1591 100q84 0 136 54q53 54 53 144q0 91 -52 143t-137 53q-121 0 -192 -103l-101 45l78 438h430v-110h-338l-47 -256h4q66 80 188 80t203 -81q80 -81 80 -215t-87 -218t-216 -84t-211 63q-81 63 -114 174l112 47q18 -82 72 -128t139 -46zM461 887v448h-4l-275 -448h279z
M461 776h-389v111l331 547h175v-547h110v-111h-110v-215h-117v215zM553 -137l-92 55l1001 1669l90 -57z" />
    <glyph glyph-name="onesixth" unicode="&#x2159;" horiz-adv-x="1824" 
d="M1165 449h4q18 49 85 89q66 40 168 40t186 -78t84 -212t-84 -216t-228 -82t-239 112q-97 112 -97 319q0 206 94 335t248 129q111 -1 181 -61t88 -158l-109 -31q-39 143 -166 143q-94 0 -154 -88t-61 -241zM1575 291q0 86 -50 137t-134 51q-85 0 -139 -52t-54 -134
t54 -136q54 -55 140 -55t135 52q48 52 48 137zM397 559h-116v733l-189 -116v133l201 125h104v-875zM371 -137l-92 55l1001 1669l90 -57z" />
    <glyph glyph-name="fivesixths" unicode="&#x215a;" horiz-adv-x="1953" 
d="M1325 449h4q18 49 85 89q66 40 168 40t186 -78t83 -212q0 -134 -84 -216q-83 -82 -227 -82t-240 112t-96 319q0 206 94 335t248 129q110 -1 180 -61t89 -158l-109 -31q-39 143 -166 143q-94 0 -154 -88t-61 -241zM1735 291q-1 86 -51 137t-134 51t-138 -52t-54 -134
t54 -136q54 -55 140 -55t134 52t49 137zM604 857q0 91 -52 143t-136 53q-121 0 -193 -103l-100 45l78 439h430v-111h-338l-47 -256h4q66 80 188 80t202 -81q81 -81 81 -215t-87 -218t-216 -84t-211 63t-115 174l113 48q19 -82 73 -128t138 -46t136 52q52 54 52 145z
M522 -137l-92 55l1002 1669l90 -57z" />
    <glyph glyph-name="oneeighth" unicode="&#x215b;" horiz-adv-x="1787" 
d="M1346 426q-84 0 -134 -46t-51 -118q0 -72 49 -116q48 -44 134 -44t135 44t49 116t-49 118t-133 46zM1085 659q0 94 73 160t187 66q115 0 189 -66t74 -160q0 -127 -115 -180v-4q70 -25 111 -85t41 -138q0 -121 -82 -192q-82 -70 -217 -70t-219 70q-83 71 -83 192
q0 80 43 140t113 83v4q-115 47 -115 180zM1200 648q0 -56 40 -94t104 -38t104 39q41 39 41 94t-39 94q-38 39 -104 39t-106 -39t-40 -95zM397 559h-116v733l-189 -116v133l201 125h104v-875zM371 -137l-92 55l1001 1669l90 -57z" />
    <glyph glyph-name="threeeighths" unicode="&#x215c;" horiz-adv-x="2007" 
d="M1565 426q-85 0 -135 -46t-50 -118t50 -116t134 -44q85 0 134 44t49 116t-49 118t-133 46zM1564 885q114 0 188 -66t75 -160q0 -127 -115 -180v-4q70 -25 111 -85t41 -138q0 -121 -82 -192q-82 -70 -217 -70t-218 70t-83 192q0 80 42 140t113 83v4q-115 47 -114 180
q0 94 72 160q73 66 187 66zM1419 648q0 -56 40 -94q39 -38 103 -38t105 39t41 94t-39 94t-105 39t-105 -39q-40 -39 -40 -95zM623 818q1 75 -49 116t-142 41h-51v98h35q61 -2 115 27t59 98q0 63 -41 100t-113 37q-137 0 -157 -153l-111 20q8 110 83 176t189 66t190 -64
q75 -64 75 -168q0 -68 -38 -114t-87 -62v-4q68 -18 112 -76t45 -160q0 -100 -81 -174t-214 -73q-282 0 -319 301l119 24q12 -112 60 -164t138 -52t137 42q46 43 46 118zM539 -137l-93 55l1002 1669l90 -57z" />
    <glyph glyph-name="fiveeighths" unicode="&#x215d;" horiz-adv-x="1937" 
d="M1311 262q0 -72 49 -116t134 -44t134 44t49 116t-49 118t-133 46t-134 -46t-50 -118zM1235 659q0 94 73 160q72 66 186 66t188 -66t75 -160q0 -127 -115 -180v-4q70 -25 111 -85t41 -138q0 -121 -82 -192q-82 -70 -217 -70t-218 70t-83 192q0 80 43 140t113 83v4
q-115 47 -115 180zM1494 782q-66 0 -104 -39q-40 -39 -40 -95t40 -94t103 -38t104 39t41 94t-39 94t-105 39zM563 857q0 91 -52 143t-136 53q-121 0 -193 -103l-100 45l78 439h430v-111h-338l-47 -256h4q65 80 187 80t203 -81t81 -215t-87 -218t-216 -84t-211 63t-115 174
l113 48q18 -82 72 -128t139 -46q84 0 136 52q52 54 52 145zM481 -137l-92 55l1002 1669l90 -57z" />
    <glyph glyph-name="seveneighths" unicode="&#x215e;" horiz-adv-x="1855" 
d="M1229 262q0 -72 49 -116t134 -44t134 44t49 116t-49 118t-133 46t-134 -46t-50 -118zM1153 659q0 94 73 160q72 66 186 66t189 -66t74 -160q0 -127 -114 -180v-4q71 -25 111 -85t40 -138q0 -121 -82 -192q-82 -70 -217 -70t-218 70t-83 192q0 80 43 140t113 83v4
q-115 47 -115 180zM1413 782q-65 0 -105 -39t-40 -95t40 -94t103 -38t105 39q41 39 40 94q0 55 -38 94q-39 39 -105 39zM541 1323h-449v111h567v-134l-389 -741h-139l410 762v2zM393 -137l-92 55l1002 1669l90 -57z" />
    <glyph glyph-name="leftwardsarrow" unicode="&#x2190;" horiz-adv-x="1456" 
d="M1231 776v-133h-1004l262 -428l-131 -80l-348 574l344 567l131 -78l-258 -422h1004z" />
    <glyph glyph-name="upwardsarrow" unicode="&#x2191;" horiz-adv-x="1310" 
d="M721 1110l2 -1020h-135l2 1020l-422 -266l-76 123l563 340l564 -340l-76 -123z" />
    <glyph glyph-name="rightwordsarrow" unicode="&#x2192;" horiz-adv-x="1456" 
d="M143 643v133h1004l-258 422l131 78l344 -567l-348 -574l-131 80l262 428h-1004z" />
    <glyph glyph-name="downwardsarrow" unicode="&#x2193;" horiz-adv-x="1310" 
d="M549 291l-2 1020h135l-2 -1020l422 266l76 -123l-564 -340l-563 340l76 123z" />
    <glyph glyph-name="leftrightarrow" unicode="&#x2194;" horiz-adv-x="1765" 
d="M1210 225l265 418h-1184l264 -418l-123 -78l-340 562l334 551l125 -78l-258 -410h1180l-259 410l125 78l334 -551l-340 -562z" />
    <glyph glyph-name="updownarrow" unicode="&#x2195;" horiz-adv-x="1318" 
d="M659 -88l-567 340l76 123l420 -266v1185l-420 -264l-76 123l567 340l568 -340l-76 -123l-420 264v-1185l420 266l76 -123z" />
    <glyph glyph-name="northwestarrow" unicode="&#x2196;" horiz-adv-x="1263" 
d="M434 991l727 -727l-88 -88l-727 727l-115 -491l-129 28l158 639l629 154l29 -129z" />
    <glyph glyph-name="northeastarrow" unicode="&#x2197;" horiz-adv-x="1263" 
d="M877 903l-727 -727l-89 88l727 727l-483 113l29 129l629 -154l157 -639l-129 -28z" />
    <glyph glyph-name="southeastarrow" unicode="&#x2198;" horiz-adv-x="1263" 
d="M788 418l-727 727l89 88l727 -727l114 491l129 -28l-157 -639l-629 -154l-29 129z" />
    <glyph glyph-name="southwestarrow" unicode="&#x2199;" horiz-adv-x="1263" 
d="M346 506l727 727l88 -88l-727 -727l484 -113l-29 -129l-629 154l-158 639l129 28z" />
    <glyph glyph-name="downwardsarrowwithtiprightwards" unicode="&#x21b3;" horiz-adv-x="1460" 
d="M143 641v793h144v-656h864l-256 418l129 80l344 -567l-352 -574l-129 78l260 428h-1004z" />
    <glyph glyph-name="downwardsarrowwithtipleftwards" unicode="&#x21b5;" horiz-adv-x="1460" 
d="M1143 1434h143v-793h-1003l260 -428l-129 -78l-353 574l345 567l129 -80l-256 -418h864v656z" />
    <glyph glyph-name="partialdiff" unicode="&#x2202;" horiz-adv-x="1243" 
d="M570 86q156 0 257 115q100 115 134 315q16 104 22 275q-229 119 -405 119t-259 -117t-83 -318q4 -165 91 -277t243 -112zM657 1614q225 0 339 -209t114 -596q0 -252 -50 -437t-172 -294t-302 -109q-221 0 -346 132t-126 358t99 387q51 82 143 130t194 48t195 -23
q27 -4 79 -21t65 -26l61 -24l41 -19q-4 268 -91 429t-243 161q-53 -1 -115 -25t-98 -53l-32 -26l-68 86q50 50 144 90q94 41 169 41z" />
    <glyph glyph-name="increment" unicode="&#x2206;" horiz-adv-x="1339" 
d="M670 1292l-412 -1169h823zM1268 0h-1196l518 1434h160z" />
    <glyph glyph-name="product" unicode="&#x220f;" horiz-adv-x="1431" 
d="M500 -289h-133v1497h-265v123h1227v-123h-258v-1497h-133v1497h-438v-1497z" />
    <glyph glyph-name="summation" unicode="&#x2211;" horiz-adv-x="1257" 
d="M1135 -205h-992v189l492 651l-471 610v189h971v-123h-848l518 -674l-553 -719h883v-123z" />
    <glyph glyph-name="minus" unicode="&#x2212;" horiz-adv-x="1298" 
d="M1176 725h-1053v123h1053v-123z" />
    <glyph glyph-name="radical" unicode="&#x221a;" horiz-adv-x="1320" 
d="M41 723v123h375l235 -684l441 1272h137l-496 -1434h-164l-250 723h-278z" />
    <glyph glyph-name="infinity" unicode="&#x221e;" horiz-adv-x="1519" 
d="M475 883q-63 0 -108 -28q-66 -41 -93 -157q-8 -39 -8 -100t28 -121q54 -115 185 -115q37 0 71 14t80 80q46 65 81 165q-92 262 -236 262zM475 1010q188 0 285 -197q96 197 284 197q144 0 238 -110t94 -280t-91 -277q-91 -108 -236 -107q-189 -1 -285 196
q-96 -197 -285 -196q-145 0 -240 107t-95 277t94 280t237 110zM1253 642q0 62 -34 140q-45 100 -179 100t-231 -261q88 -258 240 -259q204 0 204 280z" />
    <glyph glyph-name="integral" unicode="&#x222b;" horiz-adv-x="903" 
d="M102 -492v130q162 0 222 59q59 59 59 227v1172q0 236 96 331q94 98 322 99v-129q-177 0 -231 -66t-54 -258v-1134q0 -233 -96 -332t-318 -99z" />
    <glyph glyph-name="approxequal" unicode="&#x2248;" horiz-adv-x="1210" 
d="M393 584q-82 0 -116 -56t-58 -127l-96 37q61 272 268 273q131 0 238 -90q113 -89 193 -89t116 64q23 35 30 52t23 67l96 -37q-61 -272 -268 -272q-73 -2 -157 44t-155 92t-114 42zM393 1032q-82 0 -123 -63q-27 -47 -51 -119l-96 37q61 272 268 272q74 2 157 -44
q84 -46 154 -92t115 -42q84 0 121 63q23 34 30 52t23 67l96 -37q-61 -272 -268 -272q-73 -4 -157 42t-155 92t-114 44z" />
    <glyph glyph-name="notequal" unicode="&#x2260;" horiz-adv-x="1234" 
d="M143 860v123h541l139 252l92 -53l-112 -199h289v-123h-357l-119 -211h476v-123h-543l-141 -252l-91 52l111 200h-285v123h355l116 211h-471z" />
    <glyph glyph-name="lessequal" unicode="&#x2264;" horiz-adv-x="1132" 
d="M1010 0h-887v123h887v-123zM922 291l-799 481v143l801 478l67 -111l-733 -438l731 -443z" />
    <glyph glyph-name="greaterequal" unicode="&#x2265;" horiz-adv-x="1132" 
d="M41 123h887v-123h-887v123zM127 1393l801 -478v-143l-799 -481l-68 110l732 443l-734 438z" />
    <glyph glyph-name="lozenge" unicode="&#x25ca;" horiz-adv-x="1222" 
d="M217 729l393 -676l396 676l-396 647zM717 0h-215l-420 729l426 705h203l430 -705z" />
    <glyph glyph-name="commaaccent" unicode="&#xf6c3;" horiz-adv-x="604" 
d="M205 -283v168h194v-137q0 -98 -45 -143t-149 -51v65q55 8 78 31t22 67h-100z" />
    <glyph glyph-name="apple" unicode="&#xf8ff;" horiz-adv-x="1609" 
d="M399 773q0 -60 43 -102q44 -42 104 -42t102 42t42 102q0 59 -42 103t-102 44t-104 -43q-43 -44 -43 -104zM1065 920q-59 0 -101 -44t-42 -103q0 -60 42 -102t101 -42t103 43t44 102q0 58 -44 102t-103 44zM205 0v866q0 238 175 418t424 180t423 -180q178 -178 178 -418
v-866h-57l-134 133l-139 -133l-129 133l-145 -133l-142 133l-129 -133l-137 133l-135 -133h-53z" />
    <glyph glyph-name="CR.001" horiz-adv-x="681" 
 />
    <glyph glyph-name="dieresis.cap" horiz-adv-x="841" 
d="M309 1567h-166v170h166v-170zM698 1567h-166v170h166v-170z" />
    <glyph glyph-name="tilde.cap" horiz-adv-x="794" 
d="M297 1747q51 0 121 -38t106 -38q55 0 72 66h76q-20 -90 -58 -135q-38 -46 -103 -46q-64 0 -134 38t-107 38q-55 1 -71 -65h-76q39 180 174 180z" />
    <glyph glyph-name="macron.cap" horiz-adv-x="876" 
d="M733 1567h-590v112h590v-112z" />
    <glyph glyph-name="acute.cap" horiz-adv-x="585" 
d="M244 1567h-121l160 245h180z" />
    <glyph glyph-name="circumflex.cap" horiz-adv-x="638" 
d="M166 1530l-84 67l135 175h205l135 -175l-84 -67l-154 192z" />
    <glyph glyph-name="caron.cap" horiz-adv-x="638" 
d="M422 1567h-205l-135 174l84 67l153 -192l154 192l84 -67z" />
    <glyph glyph-name="ring.cap" horiz-adv-x="638" 
d="M320 1735q-44 0 -72 -32t-29 -89q0 -57 29 -91q30 -34 72 -34t72 34t30 91t-29 89t-73 32zM320 1407q-87 0 -142 58q-55 57 -55 145t56 147t141 59q84 0 140 -58t56 -147t-54 -147q-55 -57 -142 -57z" />
    <glyph glyph-name="breve.cap" horiz-adv-x="700" 
d="M102 1782h78q24 -121 174 -121t166 121h78q0 -111 -68 -173q-68 -63 -180 -63t-180 62t-68 174z" />
    <glyph glyph-name="hungarumlaut.cap" horiz-adv-x="925" 
d="M569 1567h-110l153 235h170zM305 1567h-110l153 235h170z" />
    <glyph glyph-name="dotaccent.cap" horiz-adv-x="544" 
d="M360 1567h-176v180h176v-180z" />
    <glyph glyph-name="grave.cap" horiz-adv-x="585" 
d="M463 1567h-121l-219 245h180z" />
    <glyph glyph-name="a.ss01" horiz-adv-x="1216" 
d="M899 332v383q0 106 -82 190q-80 88 -213 88q-172 0 -265 -119q-93 -118 -93 -332t92 -332t266 -118q125 0 210 72t85 168zM1032 0h-133v111h-4q-98 -141 -312 -141t-343 155q-127 158 -127 418q0 261 132 417t335 156t315 -135h4v104h133v-1085z" />
    <glyph glyph-name="agrave.ss01" horiz-adv-x="1216" 
d="M653 1219h-121l-219 245h181zM899 332v383q0 106 -82 190q-80 88 -213 88q-172 0 -265 -119q-93 -118 -93 -332t92 -332t266 -118q125 0 210 72t85 168zM1032 0h-133v111h-4q-98 -141 -312 -141t-343 155q-127 158 -127 418q0 261 132 417t335 156t315 -135h4v104h133
v-1085z" />
    <glyph glyph-name="aacute.ss01" horiz-adv-x="1216" 
d="M668 1219h-121l158 245h180zM899 332v383q0 106 -82 190q-80 88 -213 88q-172 0 -265 -119q-93 -118 -93 -332t92 -332t266 -118q125 0 210 72t85 168zM1032 0h-133v111h-4q-98 -141 -312 -141t-343 155q-127 158 -127 418q0 261 132 417t335 156t315 -135h4v104h133
v-1085z" />
    <glyph glyph-name="acircumflex.ss01" horiz-adv-x="1216" 
d="M424 1192l-84 68l135 174h205l135 -174l-84 -68l-153 192zM858 332v383q0 106 -82 190q-80 88 -213 88q-172 0 -265 -119q-93 -118 -93 -332t92 -332t266 -118q125 0 210 72t85 168zM991 0h-133v111h-4q-98 -141 -312 -141t-343 155q-127 158 -127 418q0 261 132 417
t335 156t315 -135h4v104h133v-1085z" />
    <glyph glyph-name="atilde.ss01" horiz-adv-x="1216" 
d="M887 1409q-40 -180 -160 -180q-63 0 -134 38t-108 38q-55 0 -71 -66h-76q39 180 174 180q51 0 121 -38t106 -38q55 0 72 66h76zM899 332v383q0 106 -82 190q-80 88 -213 88q-172 0 -265 -119q-93 -118 -93 -332t92 -332t266 -118q125 0 210 72t85 168zM1032 0h-133v111
h-4q-98 -141 -312 -141t-343 155q-127 158 -127 418q0 261 132 417t335 156t315 -135h4v104h133v-1085z" />
    <glyph glyph-name="adieresis.ss01" horiz-adv-x="1216" 
d="M891 1264h-166v170h166v-170zM502 1264h-166v170h166v-170zM899 332v383q0 106 -82 190q-80 88 -213 88q-172 0 -265 -119q-93 -118 -93 -332t92 -332t266 -118q125 0 210 72t85 168zM1032 0h-133v111h-4q-98 -141 -312 -141t-343 155q-127 158 -127 418q0 261 132 417
t335 156t315 -135h4v104h133v-1085z" />
    <glyph glyph-name="amacron.ss01" horiz-adv-x="1216" 
d="M866 1270h-590v112h590v-112zM858 332v383q0 106 -82 190q-80 88 -213 88q-172 0 -265 -119q-93 -118 -93 -332t92 -332t266 -118q125 0 210 72t85 168zM991 0h-133v111h-4q-98 -141 -312 -141t-343 155q-127 158 -127 418q0 261 132 417t335 156t315 -135h4v104h133
v-1085z" />
    <glyph glyph-name="abreve.ss01" horiz-adv-x="1216" 
d="M365 1434h77q24 -121 174 -121t166 121h78q0 -111 -68 -173q-68 -63 -180 -63q-113 0 -180 62t-67 174zM899 332v383q0 106 -82 190q-80 88 -213 88q-172 0 -265 -119q-93 -118 -93 -332t92 -332t266 -118q125 0 210 72t85 168zM1032 0h-133v111h-4q-98 -141 -312 -141
t-343 155q-127 158 -127 418q0 261 132 417t335 156t315 -135h4v104h133v-1085z" />
    <glyph glyph-name="aring.ss01" horiz-adv-x="1216" 
d="M572 1399q-44 0 -72 -32t-29 -89q0 -57 29 -91q30 -34 72 -34t72 34t30 91t-29 89t-73 32zM858 332v383q0 106 -82 190q-80 88 -213 88q-172 0 -265 -119q-93 -118 -93 -332t92 -332t266 -118q125 0 210 72t85 168zM991 0h-133v111h-4q-98 -141 -312 -141t-343 155
q-127 157 -127 401t104 397t279 185q-80 58 -80 156t56 157t141 59q84 0 140 -58t56 -146q0 -127 -94 -178q109 -33 180 -117h4v104h133v-1085z" />
    <glyph glyph-name="aringacute.ss01" horiz-adv-x="1216" 
d="M613 1399q-45 0 -73 -32t-28 -89t29 -91t71 -34t73 34q30 34 30 91t-29 89t-73 32zM899 332v383q0 106 -82 190q-80 88 -213 88q-172 0 -265 -119q-93 -118 -93 -332t92 -332t266 -118q125 0 210 72t85 168zM1032 0h-133v111h-4q-98 -141 -312 -141t-343 155
q-127 157 -127 401t104 397t279 185q-80 58 -80 154t54 156t134 63l113 176h180l-182 -205q94 -55 94 -179t-94 -175q109 -33 180 -117h4v104h133v-1085z" />
    <glyph glyph-name="aogonek.ss01" horiz-adv-x="1220" 
d="M899 332v383q0 106 -82 190q-80 88 -213 88q-172 0 -265 -119q-93 -118 -93 -332t92 -332t266 -118q125 0 210 72t85 168zM899 0v111h-4q-98 -141 -312 -141t-343 155q-127 158 -127 418q0 261 132 417t335 156t315 -135h4v104h133v-1085q-156 -143 -155 -252
q0 -72 82 -72t153 78l57 -53q-100 -131 -251 -131q-84 0 -135 37q-50 37 -50 106q0 129 195 287h-29z" />
    <glyph glyph-name="caron.alt" horiz-adv-x="612" 
d="M305 1196h-100l57 299h146z" />
    <glyph glyph-name="parenleft.cap" horiz-adv-x="796" 
d="M670 -236l-78 -65q-72 66 -223 317q-80 138 -132 322q-97 343 -16 696q41 164 87 266t116 207q66 94 96 128t72 77l82 -67q-164 -169 -265 -391t-102 -549q1 -501 363 -941z" />
    <glyph glyph-name="parenright.cap" horiz-adv-x="796" 
d="M571 699q0 -177 -52 -361t-132 -322q-151 -251 -223 -317l-78 65q362 440 363 941q0 330 -101 544q-100 223 -266 396l82 67q42 -43 74 -79t97 -131q65 -96 113 -202t85 -265q38 -159 38 -336z" />
    <glyph glyph-name="bracketleft.cap" horiz-adv-x="772" 
d="M670 -250h-486v1950h486v-103h-373v-1744h373v-103z" />
    <glyph glyph-name="bracketright.cap" horiz-adv-x="772" 
d="M61 1700h486v-1950h-486v103h373v1744h-373v103z" />
    <glyph glyph-name="braceleft.cap" horiz-adv-x="792" 
d="M289 -14v557q0 67 -25 93t-84 26h-57v182h57q59 0 84 28t25 97v461q0 150 60 210t186 60h114v-103h-102q-80 -1 -113 -39t-33 -137v-458q0 -55 -18 -99t-58 -75q-40 -30 -67 -35q24 -7 83 -51q60 -44 60 -154v-555q0 -98 33 -137t113 -39h102v-103h-114q-125 1 -185 61
t-61 210z" />
    <glyph glyph-name="braceright.cap" horiz-adv-x="792" 
d="M401 543v-557q0 -150 -60 -210t-185 -61h-115v103h102q80 0 113 39t33 137v555q0 110 65 159q47 36 78 46q-29 5 -68 35q-75 59 -75 174v458q0 97 -33 137t-113 39h-102v103h115q125 0 185 -60t60 -210v-461q0 -68 25 -97t84 -28h57v-182h-57q-59 0 -84 -26t-25 -93z" />
    <glyph glyph-name="published" horiz-adv-x="1505" 
d="M805 651h-135v-311h-101v762h236q268 0 268 -226t-268 -225zM670 1010v-262h135q168 0 168 131t-168 131h-135zM123 722q0 268 181 450q182 182 448 182t448 -182t182 -448t-182 -448t-449 -182t-448 180q-180 180 -180 448zM753 193q225 -1 377 153t152 379t-152 377
t-378 152t-377 -152q-152 -152 -152 -377t152 -381q152 -151 378 -151z" />
    <glyph glyph-name="zero.numr" horiz-adv-x="831" 
d="M219 997q0 -338 198 -338q197 1 197 339t-198 337q-197 0 -197 -338zM92 1001q0 215 87 329t237 114t236 -114t87 -330q0 -216 -86 -333q-85 -118 -237 -118t-238 118t-86 334z" />
    <glyph glyph-name="one.numr" horiz-adv-x="550" 
d="M377 559h-117v733l-188 -116v133l200 125h105v-875z" />
    <glyph glyph-name="two.numr" horiz-adv-x="751" 
d="M670 559h-582v96q0 109 53 187q29 37 78 69l41 25l23 10q16 16 49 29q147 82 176 110q43 47 43 107t-46 102q-46 43 -124 43q-168 0 -182 -196l-117 14q8 135 88 212t211 77t208 -72t77 -182t-78 -182q-66 -57 -158 -103l-94 -51q-68 -37 -92 -73t-23 -97h449v-125z" />
    <glyph glyph-name="three.numr" horiz-adv-x="737" 
d="M551 818q0 75 -49 116t-142 41h-51v98h35q61 -2 116 27q54 29 56 95t-39 103t-112 37q-135 0 -158 -153l-111 20q8 110 83 176t190 66t189 -64t75 -168q0 -68 -38 -114t-87 -62v-4q68 -18 113 -76t45 -160q0 -100 -81 -174t-214 -73q-283 0 -320 301l119 24
q12 -112 60 -164t138 -52t137 42q46 43 46 118z" />
    <glyph glyph-name="four.numr" horiz-adv-x="790" 
d="M461 887v448h-4l-275 -448h279zM461 776h-389v111l331 547h175v-547h110v-111h-110v-215h-117v215z" />
    <glyph glyph-name="five.numr" horiz-adv-x="813" 
d="M604 857q0 91 -52 143t-136 53q-121 0 -193 -103l-100 45l78 439h430v-111h-338l-47 -256h4q66 80 188 80t202 -81q81 -81 81 -215t-87 -218t-216 -84t-211 63t-115 174l113 48q19 -82 73 -128t138 -46t136 52q52 54 52 145z" />
    <glyph glyph-name="six.numr" horiz-adv-x="831" 
d="M213 1008h4q18 49 85 89q66 40 168 40t186 -78t83 -212q0 -134 -84 -216q-83 -82 -227 -82t-240 113q-96 112 -96 318t94 335t248 129q110 0 180 -60t88 -159l-108 -31q-39 143 -166 143q-94 -1 -154 -89t-61 -240zM623 850q-1 86 -51 137t-134 51t-138 -52t-54 -134
t54 -136t140 -54t134 51t49 137z" />
    <glyph glyph-name="seven.numr" horiz-adv-x="659" 
d="M479 1323h-448v111h567v-134l-389 -741h-139l409 762v2z" />
    <glyph glyph-name="eight.numr" horiz-adv-x="743" 
d="M373 985q-85 0 -135 -46t-50 -118q0 -71 50 -115t134 -44q85 0 134 44t49 116t-49 117q-49 46 -133 46zM372 1444q114 0 188 -66t75 -159q0 -127 -115 -181v-4q70 -25 111 -85t41 -138q0 -121 -82 -191t-217 -71q-135 0 -218 71t-83 191q0 80 42 140t113 83v4
q-115 47 -114 181q1 93 73 159t186 66zM516 1208q0 54 -39 94t-105 40t-105 -40q-40 -39 -40 -95t40 -94q39 -38 103 -38t105 39t41 94z" />
    <glyph glyph-name="nine.numr" horiz-adv-x="806" 
d="M380 963q85 0 134 48t49 132t-52 138t-134 54t-131 -50t-49 -136t49 -136t134 -50zM592 983h-4q-8 -45 -70 -85t-164 -40q-104 0 -188 80t-84 212t83 213t223 81t228 -116t88 -337t-80 -332q-81 -111 -229 -110q-113 1 -183 59t-97 156l108 37q33 -143 176 -144
q193 0 193 326z" />
    <glyph glyph-name="zero.dnom" horiz-adv-x="831" 
d="M219 438q0 -338 198 -338q197 0 197 338t-198 338q-197 0 -197 -338zM92 442q0 216 87 330t237 113q150 0 236 -114q86 -113 87 -329q0 -216 -86 -334q-85 -118 -237 -118t-238 118t-86 334z" />
    <glyph glyph-name="one.dnom" horiz-adv-x="550" 
d="M377 0h-117v733l-188 -117v134l200 124h105v-874z" />
    <glyph glyph-name="two.dnom" horiz-adv-x="751" 
d="M670 0h-582v96q0 109 53 187q29 37 78 69l41 25q11 7 23 10q4 4 98 56t127 83q43 46 43 106t-46 103t-124 43q-168 0 -182 -196l-117 14q8 135 88 212t211 77t208 -72t77 -182t-78 -182q-66 -57 -158 -103l-94 -51q-68 -37 -92 -73t-23 -97h449v-125z" />
    <glyph glyph-name="three.dnom" horiz-adv-x="737" 
d="M551 259q0 75 -49 116t-142 41h-51v98h35q61 -2 116 27q54 29 56 95t-39 103t-112 37q-135 0 -158 -153l-111 20q8 111 83 177t190 65q115 1 189 -63t75 -169q0 -67 -38 -113t-87 -63v-4q68 -19 113 -77t45 -158t-81 -175q-81 -74 -214 -73q-283 0 -320 301l119 24
q12 -113 60 -165t138 -52t137 43q46 43 46 118z" />
    <glyph glyph-name="four.dnom" horiz-adv-x="790" 
d="M461 328v448h-4l-275 -448h279zM461 217h-389v111l331 546h175v-546h110v-111h-110v-215h-117v215z" />
    <glyph glyph-name="five.dnom" horiz-adv-x="813" 
d="M416 100q84 0 136 54t52 144q0 91 -52 143t-136 53q-121 0 -193 -103l-100 45l78 438h430v-110h-338l-47 -256h4q66 80 188 80t202 -81q81 -81 81 -215t-87 -218t-216 -84t-211 63t-115 174l113 47q19 -82 73 -128t138 -46z" />
    <glyph glyph-name="six.dnom" horiz-adv-x="831" 
d="M213 449h4q18 49 85 89q66 40 168 40t186 -78t83 -212q0 -134 -84 -216q-83 -82 -227 -82t-240 112t-96 319q0 206 94 335t248 129q110 -1 180 -61t88 -158l-108 -31q-39 143 -166 143q-94 0 -154 -88t-61 -241zM623 291q-1 86 -51 137t-134 51t-138 -52t-54 -134
t54 -136q54 -55 140 -55t134 52t49 137z" />
    <glyph glyph-name="seven.dnom" horiz-adv-x="659" 
d="M479 764h-448v110h567v-133l-389 -741h-139l409 762v2z" />
    <glyph glyph-name="eight.dnom" horiz-adv-x="743" 
d="M373 426q-85 0 -135 -46t-50 -118t50 -116t134 -44q85 0 134 44t49 116t-49 118t-133 46zM372 885q114 0 188 -66t75 -160q0 -127 -115 -180v-4q70 -25 111 -85t41 -138q0 -121 -82 -192q-82 -70 -217 -70t-218 70t-83 192q0 80 42 140t113 83v4q-115 47 -114 180
q0 94 72 160q73 66 187 66zM227 648q0 -56 40 -94q39 -38 103 -38t105 39t41 94t-39 94t-105 39t-105 -39q-40 -39 -40 -95z" />
    <glyph glyph-name="nine.dnom" horiz-adv-x="806" 
d="M197 590q0 -86 49 -136t134 -51q85 1 134 49t49 132t-52 138t-134 54t-131 -50t-49 -136zM592 424h-4q-8 -45 -70 -85t-164 -40q-104 0 -188 80t-84 212t83 213t223 81t228 -116t88 -337t-80 -332q-81 -111 -229 -110q-113 0 -183 58t-97 157l108 37q33 -143 176 -144
q193 0 193 326z" />
    <glyph glyph-name="plusinferior" horiz-adv-x="927" 
d="M516 -322h-104v332h-289v96h289v293h104v-293h289v-96h-289v-332z" />
    <glyph glyph-name="minusinferior" horiz-adv-x="866" 
d="M743 106v-96h-620v96h620z" />
    <glyph glyph-name="zero.tnum" 
d="M666 92q186 0 288 175t101 465t-103 450t-286 160t-287 -160t-103 -450t102 -465t288 -175zM137 729q1 355 145 545t384 190t384 -189t144 -545t-138 -559q-138 -202 -390 -202t-391 202q-138 202 -138 558z" />
    <glyph glyph-name="one.tnum" 
d="M1167 0h-921v131h399v1145l-309 -195v148l330 205h102v-1303h399v-131z" />
    <glyph glyph-name="two.tnum" 
d="M1124 0h-911v102q0 197 68 310q41 63 110 117q70 53 256 155t264 176t78 190t-80 203q-75 88 -229 88t-245 -93t-97 -257l-131 13q10 216 139 338t336 122t324 -120t116 -283q0 -88 -37 -182q-14 -39 -96 -127q-12 -12 -65 -52q-49 -33 -66 -41l-209 -116
q-182 -88 -252 -189q-49 -76 -49 -223h776v-131z" />
    <glyph glyph-name="three.tnum" 
d="M677 92q167 0 254 86t87 230t-97 226q-97 81 -266 81h-69v123h28q360 0 361 247q0 117 -80 187t-211 70t-208 -76t-93 -215l-131 22q20 179 136 285t298 106t302 -99t120 -280q0 -117 -69 -197t-167 -102v-4q127 -31 203 -132t76 -253q0 -186 -133 -307t-341 -121
t-339 125t-160 377l131 25q27 -212 114 -308t254 -96z" />
    <glyph glyph-name="four.tnum" 
d="M838 473v856h-4l-519 -856h523zM838 350h-660v121l586 963h207v-961h182v-123h-182v-350h-133v350z" />
    <glyph glyph-name="five.tnum" 
d="M1026 474q0 173 -94 271t-252 99q-219 0 -332 -180l-129 51l129 719h692v-123h-589l-91 -496l2 -2q126 145 328 145t336 -131t133 -356q0 -225 -138 -363q-137 -138 -339 -138t-335 108q-132 109 -175 293l129 39q84 -317 369 -318q166 0 261 104t95 278z" />
    <glyph glyph-name="six.tnum" 
d="M684 1341q-162 0 -285 -163q-121 -164 -120 -484l4 -2q25 78 143 168t303 90q183 0 323 -133t140 -357t-137 -358q-139 -133 -355 -133t-381 158q-84 84 -132 230t-48 335q0 348 157 560t386 212q178 0 290 -100t144 -262l-123 -33q-70 272 -309 272zM702 831
q-160 0 -267 -104t-107 -258q0 -153 106 -265t271 -112t259 100t95 272q0 171 -98 269q-99 98 -259 98z" />
    <glyph glyph-name="seven.tnum" 
d="M1022 1311h-737v123h880v-140l-686 -1294h-170l713 1307v4z" />
    <glyph glyph-name="eight.tnum" 
d="M664 709q-152 0 -253 -83q-101 -84 -101 -222t91 -222t263 -84t263 84t91 222t-101 222t-253 83zM168 403q0 139 83 241t195 132v4q-203 88 -202 320q0 147 114 256q114 108 306 108q193 0 305 -110q113 -106 112 -254q0 -236 -200 -320v-4q117 -35 199 -135t81 -238
q0 -205 -134 -319t-363 -115q-228 1 -362 115t-134 319zM664 1343q-137 1 -212 -71t-75 -186t80 -188t207 -73q128 0 206 74q78 73 78 187t-74 186t-210 71z" />
    <glyph glyph-name="nine.tnum" 
d="M641 621q154 0 250 102t96 257t-101 258q-100 103 -248 103t-244 -95t-95 -261q0 -166 94 -265t248 -99zM668 92q358 0 368 643h-6q-16 -55 -107 -146t-291 -91t-333 135t-133 351t137 348t328 132q256 0 395 -189t139 -579t-151 -569q-139 -158 -346 -158
q-166 1 -284 97t-157 266l129 37q27 -125 107 -201t205 -76z" />
    <glyph glyph-name="Euro.tnum" 
d="M745 926v-123h-356q-2 -16 -2 -54t4 -137h354v-123h-333q37 -193 136 -289t249 -98q303 0 352 424l139 -18q-20 -250 -153 -394t-337 -144t-345 131q-141 132 -189 388h-223v123h209q-4 50 -4 112t2 79h-207v123h221q43 262 193 400q151 138 343 138t324 -139
q137 -139 164 -354l-137 -27q-27 178 -118 284t-239 107q-148 0 -251 -102q-102 -102 -138 -307h342z" />
    <glyph glyph-name="dollar.tnum" 
d="M319 1100q0 -98 71 -158t239 -104v497q-147 -4 -229 -70q-81 -67 -81 -165zM719 98q178 0 270 79t92 195q-1 116 -73 178t-297 128l-2 -580h10zM182 1095q0 149 120 256t329 113v123h82v-127q184 -16 298 -116t138 -277l-139 -25q-27 135 -95 205t-204 84v-516
q289 -80 397 -176t109 -270t-133 -287t-371 -113h-4v-170h-82v174q-453 42 -514 527l139 24q35 -201 115 -301t260 -121l2 598q-227 58 -337 152t-110 243z" />
    <glyph glyph-name="sterling.tnum" 
d="M1163 0h-997v123h78q78 0 106 30t29 105v404h-213v112h213v266q0 201 102 313q101 111 273 111q339 -1 391 -383l-129 -26q-25 151 -84 219t-174 67q-246 0 -246 -323v-244h430v-112h-430v-539h651v-123z" />
    <glyph glyph-name="yen.tnum" 
d="M602 299h-430v113h426v190h-426v113h367l-410 719h147l388 -693h4l387 693h147l-409 -719h368v-113h-426v-190h426v-113h-430v-299h-129v299z" />
    <glyph glyph-name="cent.tnum" 
d="M334 540q0 -196 81 -313t226 -133v895q-141 -17 -224 -135t-83 -314zM713 -225h-72v196q-203 16 -322 167t-119 403q0 251 126 403q125 152 315 170v178h72v-176q166 -8 280 -121q117 -111 135 -280l-131 -21q-20 129 -93 210t-191 87v-899q121 10 193 98t91 218l133 -25
q-18 -170 -132 -288t-285 -126v-194z" />
    <glyph glyph-name="florin.tnum" 
d="M831 1526q137 0 226 -117l-92 -88q-63 82 -128 82t-101 -43t-58 -158l-45 -250h297l-19 -108h-297l-208 -1198h-132l209 1198h-200l18 108h201l53 279q59 295 276 295z" />
    <glyph glyph-name="percent.tnum" 
d="M115 295l-62 90l1157 780l58 -90zM936 -209q-160 1 -249 115t-89 310t100 300t238 104t238 -106q102 -106 102 -299t-90 -309t-250 -115zM938 510q-102 0 -160 -75t-57 -221q0 -146 56 -228q57 -84 159 -84t160 85q57 85 57 230t-57 219q-56 74 -158 74zM66 1259
q0 196 100 297q100 106 237 106t239 -106t101 -298q0 -192 -90 -309q-90 -115 -250 -115q-161 0 -249 114t-88 311zM188 1258q0 -146 56 -230t159 -84q102 0 160 85q57 85 57 231t-56 219q-58 73 -160 73t-158 -74q-58 -74 -58 -220z" />
    <glyph glyph-name="perthousand.tnum" horiz-adv-x="2662" 
d="M2046 -209q-160 1 -249 115t-89 310t100 300t238 104t238 -106q102 -106 102 -299t-90 -309t-250 -115zM2048 510q-102 0 -160 -75t-57 -221q0 -146 56 -228q57 -84 159 -84t160 85q57 85 57 230t-57 219q-56 74 -158 74zM352 295l-61 90l1157 780l57 -90zM1227 -209
q-160 1 -249 115t-89 310t100 300q99 104 237 104t239 -106t101 -299t-89 -309q-90 -116 -250 -115zM1228 510q-100 0 -158 -75t-58 -221t56 -228q56 -84 158 -84t160 85t58 230t-58 219t-158 74zM274 1259q0 196 101 297q100 106 237 106q136 0 238 -106t102 -298t-90 -309
q-90 -115 -250 -115t-249 114t-89 311zM397 1258q1 -146 57 -230t158 -84t160 85q57 85 57 231t-57 219q-56 73 -158 73t-160 -74t-57 -220z" />
    <glyph glyph-name="plus.tnum" 
d="M727 266h-123v467h-407v113h407v414h123v-414h408v-113h-408v-467z" />
    <glyph glyph-name="minus.tnum" 
d="M1192 725h-1053v123h1053v-123z" />
    <glyph glyph-name="plusminus.tnum" 
d="M727 461h-123v395h-407v113h407v362h123v-362h408v-113h-408v-395zM1114 207h-897v123h897v-123z" />
    <glyph glyph-name="multiply.tnum" 
d="M311 248l-88 88l352 352l-331 332l88 88l332 -332l333 332l88 -88l-333 -332l354 -352l-88 -88l-354 352z" />
    <glyph glyph-name="divide.tnum" 
d="M535 1160q0 54 37 92q38 38 92 38t93 -38q38 -38 38 -92t-38 -92t-92 -38t-93 38q-37 38 -37 92zM535 294q0 54 37 92q38 38 92 38t93 -38q38 -38 38 -92t-38 -92t-92 -38t-93 38q-37 38 -37 92zM1059 664h-787v122h787v-122z" />
    <glyph glyph-name="equal.tnum" 
d="M1139 860h-949v123h949v-123zM1139 526h-949v123h949v-123z" />
    <glyph glyph-name="notequal.tnum" 
d="M190 860v123h541l139 252l93 -53l-113 -199h289v-123h-357l-118 -211h475v-123h-543l-141 -252l-90 52l110 200h-285v123h355l117 211h-472z" />
    <glyph glyph-name="approxequal.tnum" 
d="M272 389l-106 55q29 109 100 191q76 82 189 82q73 2 159 -44t160 -92t117 -42q82 0 117 65q27 45 28 51l23 66l106 -57q-31 -121 -101 -196t-168 -77t-246 91t-195 89q-124 0 -183 -182zM272 836l-106 57q28 111 102 191t187 79q73 2 159 -44t160 -92t117 -42
q82 0 117 66q27 45 28 51l23 65l106 -55q-70 -272 -274 -272q-93 -4 -241 89t-195 89q-124 0 -183 -182z" />
    <glyph glyph-name="less.tnum" 
d="M1032 168l-799 481v144l801 477l64 -103l-750 -446l748 -453z" />
    <glyph glyph-name="greater.tnum" 
d="M297 1270l801 -477v-144l-799 -481l-63 100l747 453l-750 446z" />
    <glyph glyph-name="lessequal.tnum" 
d="M1108 0h-887v123h887v-123zM1020 291l-799 481v143l801 478l68 -111l-734 -438l731 -443z" />
    <glyph glyph-name="greaterequal.tnum" 
d="M221 123h887v-123h-887v123zM307 1393l801 -478v-143l-799 -481l-67 110l731 443l-733 438z" />
    </font>
</defs>
</svg>
