<?xml version="1.0" standalone="no"?>
<!DOCTYPE svg PUBLIC "-//W3C//DTD SVG 1.1//EN" "http://www.w3.org/Graphics/SVG/1.1/DTD/svg11.dtd" >
<svg xmlns="http://www.w3.org/2000/svg">
<metadata>
Created by FontPrep 20130207 at Sat Jun 24 19:41:58 2017
 By Baptiste Briel
Copyright (c) 2011 by Timo Gaessner, 123buero for Milieu Grotesque. All rights reserved.
</metadata>
<defs>
<font id="83e42244382055676967b9123edd6fa4" horiz-adv-x='1024' >
  <font-face 
    font-family="MaisonNeue-Demi"
    font-weight="600"
    font-stretch="normal"
    units-per-em="2048"
    panose-1="2 0 0 0 0 0 0 0 0 0"
    ascent="1587"
    descent="-461"
    x-height="1085"
    cap-height="1434"
    bbox="-236 -614 2607.01 2007"
    underline-thickness="102"
    underline-position="-102"
    unicode-range="U+000D-FB02"
  />
<missing-glyph horiz-adv-x="1425" 
d="M289 653l28 -28l129 129l132 -129l28 28l-131 129l131 131l-28 29l-132 -131l-129 131l-28 -29l129 -131zM821 653l29 -28l129 129l131 -129l29 28l-131 129l131 131l-29 29l-131 -131l-129 131l-29 -29l129 -131zM113 0v866q0 238 175 418t424 180t423 -180
q178 -178 178 -418v-866h-58l-133 133l-139 -133l-129 133l-145 -133l-142 133l-129 -133l-137 133l-135 -133h-53z" />
    <glyph glyph-name="fi" unicode="fi" horiz-adv-x="1226" 
d="M1073 1264h-242v231h242v-231zM438 0h-233v885h-164v200h170v158q0 135 67 193t201 59h164v-207h-117q-53 0 -73 -20t-21 -78v-105h637v-1085h-233v885h-398v-885z" />
    <glyph glyph-name="fl" unicode="fl" horiz-adv-x="1226" 
d="M438 0h-233v885h-164v200h170v158q0 135 67 193t201 59h164v-207h-117q-53 0 -73 -20t-21 -78v-105h399v410h242v-1495h-242v885h-393v-885z" />
    <glyph glyph-name=".notdef" horiz-adv-x="1425" 
d="M289 653l28 -28l129 129l132 -129l28 28l-131 129l131 131l-28 29l-132 -131l-129 131l-28 -29l129 -131zM821 653l29 -28l129 129l131 -129l29 28l-131 129l131 131l-29 29l-131 -131l-129 131l-29 -29l129 -131zM113 0v866q0 238 175 418t424 180t423 -180
q178 -178 178 -418v-866h-58l-133 133l-139 -133l-129 133l-145 -133l-142 133l-129 -133l-137 133l-135 -133h-53z" />
    <glyph glyph-name=".null" horiz-adv-x="0" 
 />
    <glyph glyph-name="nonmarkingreturn" horiz-adv-x="681" 
 />
    <glyph glyph-name="NULL" horiz-adv-x="0" 
 />
    <glyph glyph-name="NULL" horiz-adv-x="0" 
 />
    <glyph glyph-name="CR.001" unicode="&#xd;" horiz-adv-x="512" 
 />
    <glyph glyph-name="space" unicode=" " horiz-adv-x="512" 
 />
    <glyph glyph-name="exclam" unicode="!" horiz-adv-x="673" 
d="M479 0h-284v272h284v-272zM457 457h-242v977h242v-977z" />
    <glyph glyph-name="quotedbl" unicode="&#x22;" horiz-adv-x="790" 
d="M324 944h-160v490h160v-490zM606 944h-160v490h160v-490z" />
    <glyph glyph-name="numbersign" unicode="#" horiz-adv-x="1394" 
d="M594 997l-19 -282h222l16 282h-219zM133 553v162h273l16 282h-219v160h229l19 277h172l-19 -277h221l17 277h174l-19 -277h265v-160h-275l-18 -282h221v-162h-232l-16 -274h-172l16 274h-221l-16 -274h-172l16 274h-260z" />
    <glyph glyph-name="dollar" unicode="$" horiz-adv-x="1351" 
d="M403 1072q-1 -70 49 -110t177 -79v356q-111 -4 -169 -51t-57 -116zM733 193q135 0 208 53t73 142q0 88 -60 136t-221 97v-428zM629 1587h104v-127q186 -14 310 -112t161 -273l-227 -61q-66 201 -244 221v-385q299 -90 408 -190t108 -259q0 -193 -138 -309t-378 -123v-170
h-106v174q-223 19 -359 149t-166 361l254 56q27 -160 88 -240t183 -98v225q2 100 2 225q-246 68 -356 168q-109 100 -109 253q0 154 127 268t338 122v125z" />
    <glyph glyph-name="percent" unicode="%" horiz-adv-x="1918" 
d="M528 -154l-135 80l1002 1669l133 -82zM1108 398q0 200 101 303t237 103t238 -106t102 -298t-96 -308t-248 -117q-150 0 -242 112q-92 111 -92 311zM1610 399q0 236 -163 236t-163 -236q0 -121 42 -189t120 -69q78 1 121 69t43 189zM468 629q-150 -1 -243 111
q-92 112 -92 312t101 303q102 103 238 103t238 -106t101 -298t-97 -308t-246 -117zM635 1053q0 236 -164 235q-162 0 -162 -235q0 -121 42 -190t120 -69t121 70q43 68 43 189z" />
    <glyph glyph-name="ampersand" unicode="&#x26;" horiz-adv-x="1447" 
d="M338 412q0 -104 75 -164t201 -60t206 56q82 56 100 145l-371 318q-87 -33 -149 -112t-62 -183zM590 -31q-213 0 -345 114t-132 292t86 287q90 109 198 165q-143 131 -143 289t108 254q109 94 278 94t283 -89t142 -259l-223 -53q-25 102 -70 147t-125 45q-80 1 -122 -37
t-42 -92t23 -89q23 -34 82 -85l352 -301h4v195h205v-377l268 -231l-143 -170l-193 165q-49 -100 -163 -184q-115 -80 -328 -80z" />
    <glyph glyph-name="quotesingle" unicode="'" horiz-adv-x="507" 
d="M334 944h-160v490h160v-490z" />
    <glyph glyph-name="parenleft" unicode="(" horiz-adv-x="774" 
d="M154 616q0 174 38 334t88 259q48 99 112 195t96 129q32 34 73 77l121 -101q-166 -195 -251 -391t-85 -479q0 -282 93 -519t243 -425l-121 -98q-76 70 -223 323q-80 137 -132 329t-52 367z" />
    <glyph glyph-name="parenright" unicode=")" horiz-adv-x="774" 
d="M600 617q0 -177 -52 -368t-132 -329q-147 -253 -223 -323l-121 98q145 182 240 425q96 242 96 524t-86 474q-82 193 -250 391l121 101q43 -43 75 -79t92 -126q60 -91 112 -195t90 -260t38 -333z" />
    <glyph glyph-name="asterisk" unicode="*" horiz-adv-x="1024" 
d="M422 1434h178v-271l221 129l90 -157l-239 -138l184 -217l-135 -114l-211 247l-205 -249l-135 116l180 219l-237 138l92 155l217 -127v269z" />
    <glyph glyph-name="plus" unicode="+" horiz-adv-x="1191" 
d="M692 205h-192v459h-408v182h408v414h192v-414h408v-182h-408v-459z" />
    <glyph glyph-name="comma" unicode="," horiz-adv-x="632" 
d="M274 0h-100v272h285v-239q0 -269 -285 -289v125q61 10 81 38q19 28 19 93z" />
    <glyph glyph-name="hyphen" unicode="-" horiz-adv-x="858" 
d="M766 588h-674v186h674v-186z" />
    <glyph glyph-name="period" unicode="." horiz-adv-x="632" 
d="M459 0h-285v272h285v-272z" />
    <glyph glyph-name="slash" unicode="/" horiz-adv-x="927" 
d="M170 -90l-150 63l738 1557l149 -68z" />
    <glyph glyph-name="zero" unicode="0" horiz-adv-x="1253" 
d="M930 739q0 502 -303 502t-303 -502q0 -285 74 -415t229 -131q155 1 229 131t74 415zM627 -31q-257 1 -401 195t-144 558t146 554q146 188 398 188t399 -188q146 -188 146 -553t-143 -559t-401 -195z" />
    <glyph glyph-name="one" unicode="1" horiz-adv-x="958" 
d="M662 0h-230v1163l-309 -194v260l330 205h209v-1434z" />
    <glyph glyph-name="two" unicode="2" horiz-adv-x="1198" 
d="M1096 0h-983v180q0 195 87 304t322 227q201 106 246 143q90 74 90 175t-70 161t-184 59q-248 0 -272 -297l-230 29q14 231 150 357t353 126q218 0 350 -120t132 -311t-124 -304q-93 -85 -283 -183t-222 -124t-48 -51q-35 -53 -35 -140h721v-231z" />
    <glyph glyph-name="three" unicode="3" horiz-adv-x="1216" 
d="M614 184q131 0 204 62t73 172q0 238 -291 237h-88v195h70q110 0 180 48t70 144t-61 152q-60 56 -167 55q-203 0 -239 -235l-222 41q17 188 145 299q128 110 324 110t320 -106q125 -106 125 -297q1 -104 -55 -177t-134 -102v-6q98 -27 178 -124t78 -246q0 -199 -135 -318
t-369 -119t-377 127q-142 127 -171 373l233 49q45 -334 309 -334z" />
    <glyph glyph-name="four" unicode="4" horiz-adv-x="1187" 
d="M737 516v739h-4l-446 -739h450zM737 293h-686v223l555 918h361v-918h170v-223h-170v-293h-230v293z" />
    <glyph glyph-name="five" unicode="5" horiz-adv-x="1224" 
d="M637 188q123 0 204 78t81 216t-79 214t-206 76q-193 0 -299 -160l-193 95l125 727h750v-224h-567l-64 -366l2 -2q102 116 300 116t330 -136t132 -358t-149 -360q-152 -135 -365 -135q-213 1 -351 105t-196 286l227 93q37 -125 116 -195t202 -70z" />
    <glyph glyph-name="six" unicode="6" horiz-adv-x="1286" 
d="M672 1249q-140 0 -230 -131t-94 -354l2 -2q133 188 385 188q183 0 321 -129t138 -355t-143 -362q-145 -135 -359 -135q-254 1 -422 185t-168 529t160 563t422 218q196 0 308 -105t147 -263l-219 -58q-57 211 -248 211zM690 188q131 0 205 79t74 209t-76 207t-207 77
t-211 -83t-80 -205t82 -203t213 -81z" />
    <glyph glyph-name="seven" unicode="7" horiz-adv-x="1021" 
d="M729 1212h-709v222h951v-250l-643 -1184h-273l674 1208v4z" />
    <glyph glyph-name="eight" unicode="8" horiz-adv-x="1181" 
d="M879 430q0 108 -80 176t-210 68t-209 -68t-79 -176t75 -174t214 -66t214 66t75 174zM63 410q0 131 76 236t187 138v4q-188 84 -189 297q0 158 125 269q125 110 329 110t331 -110t127 -269q0 -213 -191 -297v-4q112 -37 186 -141t74 -233q0 -207 -145 -324t-383 -117
t-382 117t-145 324zM362 1067q0 -86 64 -141q64 -56 164 -56t165 56t65 142q0 85 -61 139q-60 55 -169 55q-108 0 -168 -54t-60 -141z" />
    <glyph glyph-name="nine" unicode="9" horiz-adv-x="1253" 
d="M590 690q127 0 204 72q76 72 76 198t-79 207q-80 82 -203 82t-200 -79q-77 -78 -77 -202t76 -201t203 -77zM625 184q143 0 218 119t70 356h-4q-16 -53 -104 -115t-261 -62t-319 132q-143 134 -143 356t144 358t356 136q244 0 402 -187t157 -561q0 -374 -136 -560
t-387 -187q-206 -1 -324 101t-159 256l215 75q57 -217 275 -217z" />
    <glyph glyph-name="colon" unicode=":" horiz-adv-x="632" 
d="M459 805h-285v280h285v-280zM459 0h-285v272h285v-272z" />
    <glyph glyph-name="semicolon" unicode=";" horiz-adv-x="632" 
d="M274 0h-100v272h285v-239q0 -269 -285 -289v125q61 10 81 38q19 28 19 93z" />
    <glyph glyph-name="less" unicode="&#x3c;" horiz-adv-x="1085" 
d="M891 168l-799 481l2 144l799 477l100 -162l-647 -387l647 -389z" />
    <glyph glyph-name="equal" unicode="=" horiz-adv-x="1173" 
d="M1061 844h-948v184h948v-184zM1061 479h-948v185h948v-185z" />
    <glyph glyph-name="greater" unicode="&#x3e;" horiz-adv-x="1085" 
d="M182 1270l799 -477l2 -144l-799 -481l-102 164l647 389l-647 387z" />
    <glyph glyph-name="question" unicode="?" horiz-adv-x="1083" 
d="M653 0h-282v272h282v-272zM610 440h-219v80q0 94 45 154t150 129l76 51q25 20 53 49q63 61 63 147t-57 139q-57 52 -170 52q-256 0 -270 -285l-230 23q4 223 135 354t371 131q197 0 326 -112t129 -283q0 -133 -52 -206t-159 -146l-45 -31q-43 -27 -76 -51
q-70 -57 -70 -131v-64z" />
    <glyph glyph-name="at" unicode="@" horiz-adv-x="1501" 
d="M92 709q0 331 180 541t488 210t479 -204q170 -204 170 -525q0 -233 -72 -335t-214 -101q-142 0 -191 94h-4q-76 -94 -202 -94q-126 -1 -204 67t-78 173q0 182 218 239l104 29q70 17 92 35t23 55q0 96 -121 96t-148 -125l-145 37q16 111 95 171t201 60t198 -68
q76 -69 75 -200v-352q0 -82 80 -82q154 0 154 297q0 260 -128 430t-379 170t-390 -173t-139 -444q0 -272 128 -438q129 -166 383 -166q150 1 279 87l72 -119q-150 -104 -351 -105q-317 0 -485 205t-168 535zM885 553v176h-4q-8 -27 -76 -43l-96 -27q-109 -27 -109 -114
q0 -104 143 -105q53 0 98 31q44 31 44 82z" />
    <glyph glyph-name="A" unicode="A" horiz-adv-x="1269" 
d="M637 1083h-4l-217 -630h436zM1249 0h-239l-86 246h-580l-84 -246h-240l517 1434h196z" />
    <glyph glyph-name="B" unicode="B" horiz-adv-x="1329" 
d="M416 645v-422h256q126 1 192 17t98 62t34 150t-73 149q-75 44 -249 44h-258zM416 1210v-364h315q102 0 158 46q55 46 55 135t-55 136t-160 47h-313zM711 0h-537v1434h590q190 0 305 -110t115 -280t-166 -268v-4q219 -100 219 -334q0 -438 -526 -438z" />
    <glyph glyph-name="C" unicode="C" horiz-adv-x="1359" 
d="M696 -31q-256 1 -430 191t-174 556t180 558q180 191 437 190q223 0 375 -139t182 -371l-250 -39q-53 326 -305 326q-156 0 -265 -127q-104 -127 -104 -388t100 -397t269 -136q268 -1 313 368l254 -51q-26 -240 -176 -390t-406 -151z" />
    <glyph glyph-name="D" unicode="D" horiz-adv-x="1345" 
d="M631 0h-457v1434h469q250 0 428 -170q88 -84 140 -224t53 -321q0 -395 -199 -567q-178 -152 -434 -152zM416 1210v-987h211q180 0 278 109q101 106 101 368t-98 386t-269 124h-223z" />
    <glyph glyph-name="E" unicode="E" horiz-adv-x="1189" 
d="M1067 0h-893v1434h893v-224h-651v-368h594v-215h-594v-404h651v-223z" />
    <glyph glyph-name="F" unicode="F" horiz-adv-x="1150" 
d="M416 0h-242v1434h895v-224h-653v-424h594v-213h-594v-573z" />
    <glyph glyph-name="G" unicode="G" horiz-adv-x="1351" 
d="M697 -31q-257 1 -431 191t-174 554t180 558q180 193 437 192q215 0 363 -131t183 -352l-243 -39q-57 297 -303 297q-155 0 -261 -130t-106 -383t100 -393t258 -140t244 87q84 87 82 244h-297v209h531v-172q0 -279 -154 -434q-151 -158 -409 -158z" />
    <glyph glyph-name="H" unicode="H" horiz-adv-x="1372" 
d="M416 0h-242v1434h242v-590h540v590h242v-1434h-242v635h-540v-635z" />
    <glyph glyph-name="I" unicode="I" horiz-adv-x="610" 
d="M426 0h-242v1434h242v-1434z" />
    <glyph glyph-name="J" unicode="J" horiz-adv-x="962" 
d="M412 193q80 1 114 39t33 128v1074h240v-1053q1 -209 -101 -310t-270 -101t-270 92t-127 237l223 74q33 -180 158 -180z" />
    <glyph glyph-name="K" unicode="K" horiz-adv-x="1273" 
d="M395 0h-241v1434h241v-639h4l535 639h293l-531 -631l588 -803h-291l-465 629h-4l-129 -164v-465z" />
    <glyph glyph-name="L" unicode="L" horiz-adv-x="1058" 
d="M1018 0h-844v1434h242v-1211h602v-223z" />
    <glyph glyph-name="M" unicode="M" horiz-adv-x="1767" 
d="M416 0h-242v1434h281l430 -1000h4l426 1000h278v-1434h-241v985h-4l-433 -985h-61l-432 985h-6v-985z" />
    <glyph glyph-name="N" unicode="N" horiz-adv-x="1415" 
d="M416 0h-242v1434h252l569 -1014h4v1014h242v-1434h-246l-575 1014h-4v-1014z" />
    <glyph glyph-name="O" unicode="O" horiz-adv-x="1417" 
d="M92 729q0 348 181 542q181 193 435 193t435 -194q182 -194 182 -543q0 -397 -190 -588q-172 -170 -422 -170t-430 172q-191 191 -191 588zM1075 718q0 257 -104 389t-261 132t-261 -130q-105 -130 -105 -388t99 -393t267 -135t267 134q98 134 98 391z" />
    <glyph glyph-name="P" unicode="P" horiz-adv-x="1255" 
d="M416 1210v-454h325q109 0 178 61t69 169t-69 166t-180 58h-323zM416 0h-242v1434h571q217 0 353 -121t137 -331q0 -210 -131 -330t-356 -120h-332v-532z" />
    <glyph glyph-name="Q" unicode="Q" horiz-adv-x="1417" 
d="M1075 748q0 228 -104 359q-104 132 -261 132t-261 -130q-105 -130 -105 -388t99 -393t268 -135q126 0 204 57l-315 315l125 125l295 -295q55 125 55 353zM711 -31q-248 0 -428 172q-190 190 -191 588q0 348 181 542q181 193 435 193t435 -194q182 -194 182 -524
q0 -328 -135 -521l135 -133l-125 -125l-129 127q-156 -125 -360 -125z" />
    <glyph glyph-name="R" unicode="R" horiz-adv-x="1306" 
d="M416 1214v-454h311q264 0 264 227t-264 227h-311zM416 0h-242v1434h571q223 0 357 -119t133 -328q0 -161 -85 -269t-235 -147l310 -571h-269l-290 551h-250v-551z" />
    <glyph glyph-name="S" unicode="S" horiz-adv-x="1236" 
d="M938 387q0 90 -68 141t-300 122t-331 171t-99 255t126 272q127 116 340 116q212 0 354 -101t173 -292l-236 -57q-31 113 -97 169q-67 56 -185 56t-178 -46t-60 -121q1 -75 67 -116q66 -40 308 -122t333 -178t91 -268q0 -173 -142 -296q-137 -123 -381 -123t-391 131
t-180 383l254 56q31 -188 100 -268q70 -79 212 -79t216 53q74 52 74 142z" />
    <glyph glyph-name="T" unicode="T" horiz-adv-x="1157" 
d="M700 0h-241v1210h-428v224h1095v-224h-426v-1210z" />
    <glyph glyph-name="U" unicode="U" horiz-adv-x="1345" 
d="M143 467v967h242v-955q0 -137 74 -212t214 -75t215 74t75 209v959h239v-967q0 -231 -145 -365t-385 -133t-384 133t-145 365z" />
    <glyph glyph-name="V" unicode="V" horiz-adv-x="1296" 
d="M768 0h-233l-515 1434h254l377 -1082h8l365 1082h252z" />
    <glyph glyph-name="W" unicode="W" horiz-adv-x="1843" 
d="M600 0h-254l-274 1434h245l195 -1010h4l340 1010h137l338 -1010h4l195 1010h242l-275 -1434h-252l-323 983h-4z" />
    <glyph glyph-name="X" unicode="X" horiz-adv-x="1230" 
d="M297 0h-266l446 764l-393 670h274l279 -519h6l275 519h266l-410 -711l426 -723h-274l-312 571h-4z" />
    <glyph glyph-name="Y" unicode="Y" horiz-adv-x="1196" 
d="M717 0h-238v604l-469 830h258l328 -611h4l330 611h256l-469 -830v-604z" />
    <glyph glyph-name="Z" unicode="Z" horiz-adv-x="1214" 
d="M1116 0h-1024v219l731 979v4h-698v232h997v-220l-735 -981v-4h729v-229z" />
    <glyph glyph-name="bracketleft" unicode="[" horiz-adv-x="741" 
d="M670 -373h-516v1868h516v-156h-348v-1556h348v-156z" />
    <glyph glyph-name="backslash" unicode="\" horiz-adv-x="927" 
d="M907 -27l-149 -63l-738 1552l150 68z" />
    <glyph glyph-name="bracketright" unicode="]" horiz-adv-x="741" 
d="M133 1495h516v-1868h-516v156h348v1556h-348v156z" />
    <glyph glyph-name="asciicircum" unicode="^" horiz-adv-x="1136" 
d="M324 666h-191l354 768h162l355 -768h-189l-246 561z" />
    <glyph glyph-name="underscore" unicode="_" horiz-adv-x="1253" 
d="M1141 -313h-1028v170h1028v-170z" />
    <glyph glyph-name="grave" unicode="`" horiz-adv-x="604" 
d="M512 1219h-197l-223 254h256z" />
    <glyph glyph-name="a" unicode="a" horiz-adv-x="1107" 
d="M307 303q0 -131 178 -131q125 0 195 51t70 131v217h-5q-8 -25 -55 -48t-175 -58t-168 -70t-40 -92zM975 0h-199v109h-4q-18 -29 -91 -84t-237 -55t-263 87q-99 89 -99 229t83 215t273 122t248 75q55 31 55 88q0 58 -51 94t-152 36q-102 0 -156 -49q-54 -48 -81 -142
l-199 76q37 145 149 230q111 85 301 85t306 -103t117 -311v-702z" />
    <glyph glyph-name="b" unicode="b" horiz-adv-x="1224" 
d="M371 0h-217v1495h233v-514h4q111 135 299 135t320 -158q133 -158 133 -416t-127 -416q-127 -157 -344 -157q-176 0 -297 135h-4v-104zM387 662v-246q0 -100 70 -168q71 -68 191 -68t191 93t71 269t-71 270q-71 93 -193 93q-122 -1 -190 -71t-69 -172z" />
    <glyph glyph-name="c" unicode="c" horiz-adv-x="1116" 
d="M570 -31q-206 0 -346 151q-142 151 -142 417q0 267 143 423t343 156t322 -110t142 -291l-219 -37q-35 227 -227 227q-125 0 -199 -96t-74 -267q0 -170 72 -266t201 -96q190 0 227 252l231 -49q-32 -199 -150 -307t-324 -107z" />
    <glyph glyph-name="d" unicode="d" horiz-adv-x="1224" 
d="M1071 0h-217v104h-4q-16 -25 -42 -46t-96 -55t-159 -34q-215 0 -344 156q-127 158 -127 419t137 417q137 155 321 155t294 -135h4v514h233v-1495zM838 416v246q0 102 -68 173t-190 71t-193 -94q-72 -93 -72 -269q0 -175 72 -269t192 -94q119 0 189 68t70 168z" />
    <glyph glyph-name="e" unicode="e" horiz-adv-x="1157" 
d="M319 649h529q-6 119 -76 190t-186 71t-189 -76q-72 -76 -78 -185zM592 -31q-225 0 -369 156q-141 158 -141 418q0 261 141 417t359 156t355 -156q138 -156 138 -417v-70h-758q4 -137 76 -217t192 -80t191 66q45 40 98 118l168 -137q-156 -254 -450 -254z" />
    <glyph glyph-name="f" unicode="f" horiz-adv-x="712" 
d="M436 0h-231v885h-164v200h168v158q0 135 66 194q67 58 202 58h201v-207h-154q-53 0 -73 -20t-21 -78v-105h272v-200h-266v-885z" />
    <glyph glyph-name="g" unicode="g" horiz-adv-x="1230" 
d="M854 408v262q0 98 -70 167t-192 69t-199 -96q-78 -95 -78 -267q0 -171 77 -267t199 -96q123 0 193 66t70 162zM618 -287q108 1 172 63q65 62 64 185v139h-4q-39 -57 -114 -94t-167 -37q-213 0 -350 153t-137 417t141 422q143 155 339 155t296 -135h4v104h225v-1091
q0 -234 -132 -360t-345 -126q-164 0 -280 75t-168 204l180 115q44 -96 106 -142t170 -47z" />
    <glyph glyph-name="h" unicode="h" horiz-adv-x="1216" 
d="M387 0h-233v1495h233v-516h4q37 55 122 96t169 41q176 0 284 -108t107 -289v-719h-231v664q0 110 -58 174t-164 64t-169 -62q-63 -61 -64 -158v-682z" />
    <glyph glyph-name="i" unicode="i" horiz-adv-x="548" 
d="M395 1264h-241v231h241v-231zM391 0h-233v1085h233v-1085z" />
    <glyph glyph-name="j" unicode="j" horiz-adv-x="548" 
d="M395 1264h-241v231h241v-231zM129 -399h-98v243h45q82 0 82 99v1142h233v-1200q0 -284 -262 -284z" />
    <glyph glyph-name="k" unicode="k" horiz-adv-x="1155" 
d="M387 0h-233v1495h233v-874h4l416 464h297l-393 -436l434 -649h-264l-344 514h-5l-145 -160v-354z" />
    <glyph glyph-name="l" unicode="l" horiz-adv-x="548" 
d="M395 0h-241v1495h241v-1495z" />
    <glyph glyph-name="m" unicode="m" horiz-adv-x="1761" 
d="M381 0h-227v1085h213v-104h4q39 61 111 98t160 37q87 0 162 -41t114 -108h4q44 65 122 107t168 42q186 0 296 -102t110 -273v-741h-215v688q0 213 -201 213q-96 0 -149 -53t-54 -146v-702h-217v688q0 100 -51 156t-148 57q-97 0 -149 -54t-53 -145v-702z" />
    <glyph glyph-name="n" unicode="n" horiz-adv-x="1206" 
d="M387 0h-233v1085h225v-104h4q45 59 126 97t167 38q180 0 283 -108t104 -297v-711h-232v649q0 252 -210 252q-105 0 -169 -61t-65 -166v-674z" />
    <glyph glyph-name="o" unicode="o" horiz-adv-x="1167" 
d="M1085 539q0 -268 -140 -419t-358 -151q-217 0 -361 151t-144 419t145 424q147 153 357 153t356 -154q145 -154 145 -423zM313 542q0 -174 74 -268t198 -94q123 0 197 96t74 266t-74 267q-74 96 -198 96t-197 -95q-74 -95 -74 -268z" />
    <glyph glyph-name="p" unicode="p" horiz-adv-x="1241" 
d="M387 -461h-233v1546h223v-104h4q104 135 300 135t337 -156t141 -419q0 -262 -136 -417q-135 -155 -331 -155t-301 135h-4v-565zM387 670v-262q0 -96 71 -162q70 -66 192 -66t199 95t77 267t-78 268q-78 95 -200 95q-122 -1 -192 -69t-69 -166z" />
    <glyph glyph-name="q" unicode="q" horiz-adv-x="1241" 
d="M1087 -461h-233v565h-4l-6 -6q-94 -129 -291 -129t-336 154q-135 156 -135 418t141 419q141 156 337 156t300 -135h4v104h223v-1546zM854 408v262q0 98 -70 167t-192 69t-199 -96q-78 -95 -78 -267q0 -171 77 -267t199 -96q123 0 193 66t70 162z" />
    <glyph glyph-name="r" unicode="r" horiz-adv-x="741" 
d="M387 0h-233v1085h221v-114h4q33 61 94 98t121 37t106 -21l-36 -227q-61 16 -86 16q-190 0 -191 -270v-604z" />
    <glyph glyph-name="s" unicode="s" horiz-adv-x="1058" 
d="M547 166q109 0 169 38t60 101t-59 92t-246 82t-273 126t-85 197q-1 124 107 219t292 95q358 0 444 -317l-196 -58q-61 180 -248 181q-84 0 -135 -34t-51 -85t55 -80t258 -85t275 -134t73 -205q0 -127 -108 -228q-107 -101 -327 -101t-338 112t-142 280l213 52
q27 -248 262 -248z" />
    <glyph glyph-name="t" unicode="t" horiz-adv-x="776" 
d="M205 362v523h-164v200h170v267h221v-267h273v-200h-271v-498q0 -92 29 -127t112 -35h87v-225h-105q-193 0 -273 84t-79 278z" />
    <glyph glyph-name="u" unicode="u" horiz-adv-x="1177" 
d="M143 383v702h234v-675q0 -121 43 -169t147 -48t164 59q59 59 60 174v659h233v-1085h-225v104h-4q-93 -135 -279 -135q-186 -1 -280 107t-93 307z" />
    <glyph glyph-name="v" unicode="v" horiz-adv-x="1128" 
d="M662 0h-195l-436 1085h241l291 -749h4l291 749h240z" />
    <glyph glyph-name="w" unicode="w" horiz-adv-x="1644" 
d="M535 0h-224l-239 1085h229l154 -755h4l258 755h211l241 -753h5l174 753h225l-260 -1085h-226l-264 815h-4z" />
    <glyph glyph-name="x" unicode="x" horiz-adv-x="1103" 
d="M283 0h-252l375 559l-353 526h246l252 -383h4l250 383h246l-351 -526l373 -559h-252l-268 408h-4z" />
    <glyph glyph-name="y" unicode="y" horiz-adv-x="1101" 
d="M463 -461h-225l204 510l-422 1036h246l285 -747h4l285 747h241z" />
    <glyph glyph-name="z" unicode="z" horiz-adv-x="1110" 
d="M1018 0h-926v193l613 673v4h-584v215h883v-188l-603 -670v-4h617v-223z" />
    <glyph glyph-name="braceleft" unicode="{" horiz-adv-x="792" 
d="M258 -53v426q0 67 -25 93t-83 26h-58v182h58q60 0 84 28t24 97v377q0 176 76 248t239 71h107v-164h-125q-69 0 -99 -42t-30 -142v-354q0 -102 -49 -151q-37 -40 -63 -49q-27 -9 -31 -9l39 -19q104 -58 104 -188v-402q0 -100 31 -142t106 -42h117v-164h-107
q-163 0 -239 72t-76 248z" />
    <glyph glyph-name="bar" unicode="|" horiz-adv-x="548" 
d="M354 -614h-159v2201h159v-2201z" />
    <glyph glyph-name="braceright" unicode="}" horiz-adv-x="792" 
d="M494 373v-426q0 -176 -76 -248t-240 -72h-106v164h116q76 0 107 42t31 142v402q0 139 131 203q4 2 6 2l6 2q-15 0 -44 18q-99 60 -99 191v354q0 100 -30 142t-99 42h-125v164h106q164 0 240 -72t76 -247v-377q0 -68 24 -97t84 -28h57v-182h-57q-60 0 -84 -26t-24 -93z
" />
    <glyph glyph-name="asciitilde" unicode="~" horiz-adv-x="1230" 
d="M383 762q-105 0 -150 -182l-141 45q23 133 98 227q76 94 199 94q74 2 165 -44t170 -92t122 -42q47 0 80 33t45 61t26 88l142 -45q-21 -129 -99 -225t-200 -96t-252 88q-121 90 -205 90z" />
    <glyph glyph-name="nbspace" unicode="&#xa0;" horiz-adv-x="409" 
 />
    <glyph glyph-name="exclamdown" unicode="&#xa1;" horiz-adv-x="673" 
d="M469 813h-285v272h285v-272zM446 -348h-241v977h241v-977z" />
    <glyph glyph-name="cent" unicode="&#xa2;" horiz-adv-x="1146" 
d="M334 541q0 -156 59 -250t170 -109v719q-105 -16 -167 -110t-62 -250zM635 -225h-72v196q-207 16 -334 166t-127 402q0 253 129 407t332 168v178h72v-178q172 -10 284 -119t134 -280l-219 -37q-35 211 -199 225v-721q162 19 199 250l231 -49q-31 -190 -143 -298t-287 -116
v-194z" />
    <glyph glyph-name="sterling" unicode="&#xa3;" horiz-adv-x="1325" 
d="M1190 0h-1016v223h68q106 0 106 105v301h-174v166h174v223q0 221 111 334q111 112 300 112t299 -104t134 -301l-225 -45q-25 129 -66 182t-131 53q-182 0 -182 -225v-229h373v-166h-373v-406h602v-223z" />
    <glyph glyph-name="currency" unicode="&#xa4;" horiz-adv-x="1349" 
d="M676 389q114 0 180 69t66 215t-68 218t-180 72t-178 -72q-68 -72 -68 -218t68 -215t180 -69zM680 1180q176 0 307 -113l127 127l82 -82l-131 -131q94 -137 94 -310t-96 -306l133 -132l-82 -81l-131 129q-131 -105 -311 -105t-305 107l-131 -131l-82 81l133 134
q-97 133 -97 304t97 308l-133 133l82 82l129 -131q139 117 315 117z" />
    <glyph glyph-name="yen" unicode="&#xa5;" horiz-adv-x="1366" 
d="M561 254h-414v190h414v166h-414v189h304l-359 635h264l322 -598h4l326 598h266l-363 -635h306v-189h-414v-166h414v-190h-416v-254h-240v254z" />
    <glyph glyph-name="brokenbar" unicode="&#xa6;" horiz-adv-x="583" 
d="M389 -268h-194v669h194v-669zM389 657h-194v670h194v-670z" />
    <glyph glyph-name="section" unicode="&#xa7;" horiz-adv-x="1316" 
d="M238 1098q0 164 114 265t294 101q181 0 299 -100t142 -287l-221 -45q-33 217 -217 217q-84 0 -130 -45t-46 -108q0 -64 38 -106t120 -75l340 -137q229 -92 233 -299q0 -84 -50 -160t-132 -118q59 -72 59 -189q-1 -162 -115 -264t-294 -102t-298 100t-143 287l222 45
q33 -217 217 -217q84 0 130 45t46 108q0 62 -37 102t-123 77l-340 135q-231 92 -231 299q-2 83 48 159t132 119q-57 70 -57 193zM963 475q0 92 -146 148l-282 108q-55 20 -93 47q-88 -62 -88 -150t148 -143l280 -108q61 -23 95 -49q86 66 86 147z" />
    <glyph glyph-name="dieresis" unicode="&#xa8;" horiz-adv-x="856" 
d="M743 1229h-227v219h227v-219zM342 1229h-229v219h229v-219z" />
    <glyph glyph-name="copyright" unicode="&#xa9;" horiz-adv-x="1447" 
d="M408 722q0 182 92 286q94 104 220 104t202 -73t94 -195l-160 -29q-25 143 -123 143q-71 0 -113 -62t-42 -175q0 -238 155 -238q107 0 127 162l162 -41q-20 -129 -96 -202q-76 -72 -206 -72t-221 105t-91 287zM723 213q215 -1 359 149t145 362q-1 212 -145 360t-359 148
t-358 -146t-143 -361t142 -363q144 -148 359 -149zM724 92q-268 0 -450 181t-182 451t181 450q181 182 449 182t452 -182q182 -182 182 -450t-182 -450t-450 -182z" />
    <glyph glyph-name="ordfeminine" unicode="&#xaa;" horiz-adv-x="722" 
d="M326 903q70 0 106 27t37 67v113h-2q-17 -28 -125 -56t-109 -85q0 -66 93 -66zM621 786h-132v62h-2l-18 -23q-14 -17 -59 -37t-97 -20q-113 0 -172 53t-59 137t47 125t161 69t145 44q30 16 30 48t-28 52t-79 21q-109 0 -141 -107l-127 52q25 84 93 133q69 49 181 49
t185 -64q72 -64 72 -188v-406z" />
    <glyph glyph-name="guillemotleft" unicode="&#xab;" horiz-adv-x="1175" 
d="M1022 195h-215l-225 380l221 381h215l-223 -381zM614 195h-215l-225 380l221 381h215l-223 -381z" />
    <glyph glyph-name="logicalnot" unicode="&#xac;" horiz-adv-x="1243" 
d="M864 709h-751v215h977v-549h-226v334z" />
    <glyph glyph-name="registered" unicode="&#xae;" horiz-adv-x="903" 
d="M401 1229v-127h60q80 0 80 63t-80 64h-60zM401 868h-77v430h143q72 0 111 -34t38 -99q0 -96 -96 -127l94 -170h-84l-86 166h-43v-166zM453 725q-152 0 -258 102q-103 106 -103 259t104 256q104 104 257 104q154 0 254 -105q104 -100 104 -255t-103 -258t-255 -103z
M160 1086q0 -124 84 -210t208 -86t208 86t83 210q0 124 -84 208q-83 84 -207 84t-208 -84t-84 -208z" />
    <glyph glyph-name="overscore" unicode="&#xaf;" horiz-adv-x="815" 
d="M702 1270h-589v151h589v-151z" />
    <glyph glyph-name="degree" unicode="&#xb0;" horiz-adv-x="794" 
d="M396 1135q130 -1 130 153t-130 154t-130 -154t130 -153zM396 983q-130 0 -212 87t-82 215t86 218t212 90t209 -89t83 -220t-83 -216t-213 -85z" />
    <glyph glyph-name="plusminus" unicode="&#xb1;" horiz-adv-x="1214" 
d="M1083 176h-944v184h944v-184zM510 856h-418v184h418v322h195v-322h417v-184h-417v-364h-195v364z" />
    <glyph glyph-name="twosuperior" unicode="&#xb2;" horiz-adv-x="718" 
d="M668 969h-607v127q-1 111 51 174t190 132q138 68 169 104t31 86t-37 81t-96 31q-139 0 -158 -166l-160 21q10 141 94 218q85 77 219 77t216 -74q82 -72 82 -182t-58 -175q-58 -66 -172 -118q-150 -76 -172 -111q-14 -20 -14 -55h422v-170z" />
    <glyph glyph-name="threesuperior" unicode="&#xb3;" horiz-adv-x="776" 
d="M365 1108q73 0 113 33t40 92q0 125 -147 125h-68v131h49q123 0 123 102q0 113 -119 113q-106 0 -129 -129l-155 29q12 118 90 184t198 66t197 -66q76 -64 76 -170q0 -62 -33 -110t-74 -64v-4q60 -16 104 -72t44 -160q0 -102 -83 -176t-225 -74t-230 76q-87 76 -105 221
l162 37q25 -184 172 -184z" />
    <glyph glyph-name="acute" unicode="&#xb4;" horiz-adv-x="604" 
d="M289 1219h-197l164 254h256z" />
    <glyph glyph-name="mu" unicode="&#xb5;" horiz-adv-x="1210" 
d="M391 -461h-227v1546h233v-647q0 -246 224 -245q104 0 158 58t55 163v671h233v-1085h-227v104h-4q-29 -55 -94 -95t-146 -40q-135 0 -203 74h-2v-504z" />
    <glyph glyph-name="paragraph" unicode="&#xb6;" horiz-adv-x="1126" 
d="M520 -279h-180v910q-141 4 -236 98q-94 94 -94 246t94 244t244 92h625v-1590h-178v1389h-275v-1389z" />
    <glyph glyph-name="middot" unicode="&#xb7;" horiz-adv-x="632" 
d="M459 621h-285v272h285v-272z" />
    <glyph glyph-name="cedilla" unicode="&#xb8;" horiz-adv-x="550" 
d="M360 -242q0 60 -98 62q-45 0 -84 -25l-12 -6l-90 49l96 162h113l-76 -119l2 -2q45 31 114 31t121 -43t52 -123t-62 -133t-164 -53q-145 0 -241 96l80 96q70 -66 149 -65q100 0 100 73z" />
    <glyph glyph-name="onesuperior" unicode="&#xb9;" horiz-adv-x="536" 
d="M383 969h-164v682l-188 -117v184l200 125h152v-874z" />
    <glyph glyph-name="ordmasculine" unicode="&#xba;" horiz-adv-x="716" 
d="M61 1108q0 158 86 248t211 90t211 -90t86 -248t-83 -249t-214 -91t-214 91t-83 249zM504 1107q0 93 -40 145t-107 52t-107 -52t-39 -146q0 -94 39 -145q40 -51 108 -51t107 52t39 145z" />
    <glyph glyph-name="guillemotright" unicode="&#xbb;" horiz-adv-x="1175" 
d="M362 956l222 -381l-226 -380h-215l228 380l-224 381h215zM770 956l221 -381l-225 -380h-215l227 380l-223 381h215z" />
    <glyph glyph-name="onequarter" unicode="&#xbc;" horiz-adv-x="1679" 
d="M1354 328v397h-4l-242 -397h246zM1352 174h-400v154l332 546h236v-546h98v-154h-98v-174h-168v174zM393 559h-164v682l-188 -117v185l201 125h151v-875zM383 -154l-135 80l1001 1669l133 -82z" />
    <glyph glyph-name="onehalf" unicode="&#xbd;" horiz-adv-x="1789" 
d="M1667 0h-606v127q0 111 51 174q52 63 190 132t168 105t31 85q0 49 -37 81t-96 31q-139 0 -158 -166l-159 21q10 141 94 218t218 77t216 -73q82 -72 82 -182t-58 -176t-171 -118q-150 -78 -168 -104t-19 -62h422v-170zM393 557h-164v682l-188 -117v185l201 125h151v-875z
M383 -156l-135 80l1001 1669l133 -82z" />
    <glyph glyph-name="threequarters" unicode="&#xbe;" horiz-adv-x="1820" 
d="M1495 328v397h-4l-242 -397h246zM1493 174h-399v154l331 546h236v-546h98v-154h-98v-174h-168v174zM549 823q0 125 -148 125h-67v131h49q123 0 123 103q0 112 -114 112t-134 -129l-156 29q12 118 90 184t200 66q120 0 196 -65t76 -171q0 -63 -33 -110t-74 -64v-4
q59 -16 103 -72t44 -160q0 -102 -82 -176q-84 -74 -226 -73q-142 0 -230 76t-105 221l162 37q25 -184 172 -185q72 0 113 33t41 92zM551 -154l-135 80l1001 1669l133 -82z" />
    <glyph glyph-name="questiondown" unicode="&#xbf;" horiz-adv-x="1083" 
d="M420 1085h282v-272h-282v272zM463 645h219v-80q0 -94 -45 -154q-45 -61 -131 -117t-96 -66q-12 -10 -54 -46q-61 -61 -61 -147t57 -138t170 -53q256 0 271 285l229 -23q-4 -223 -135 -354t-371 -131q-195 0 -326 113q-129 115 -129 282q-1 133 51 206t160 147l43 28
q55 37 76 54q72 55 72 131v63z" />
    <glyph glyph-name="Agrave" unicode="&#xc0;" horiz-adv-x="1269" 
d="M729 1567h-197l-223 254h256zM637 1083h-4l-217 -630h436zM1249 0h-239l-86 246h-580l-84 -246h-240l517 1434h196z" />
    <glyph glyph-name="Aacute" unicode="&#xc1;" horiz-adv-x="1269" 
d="M752 1567h-197l164 254h258zM637 1083h-4l-217 -630h436zM1249 0h-239l-86 246h-580l-84 -246h-240l517 1434h196z" />
    <glyph glyph-name="Acircumflex" unicode="&#xc2;" horiz-adv-x="1269" 
d="M504 1530l-123 98l137 176h258l139 -176l-127 -98l-141 180zM637 1083h-4l-217 -630h436zM1249 0h-239l-86 246h-580l-84 -246h-240l517 1434h196z" />
    <glyph glyph-name="Atilde" unicode="&#xc3;" horiz-adv-x="1269" 
d="M530 1780q68 0 144 -39t104 -39q57 0 74 67h121q-35 -213 -199 -213q-70 0 -146 39t-102 39q-59 1 -73 -67h-121q35 213 198 213zM637 1083h-4l-217 -630h436zM1249 0h-239l-86 246h-580l-84 -246h-240l517 1434h196z" />
    <glyph glyph-name="Adieresis" unicode="&#xc4;" horiz-adv-x="1269" 
d="M963 1567h-228v219h228v-219zM561 1567h-229v219h229v-219zM637 1083h-4l-217 -630h436zM1249 0h-239l-86 246h-580l-84 -246h-240l517 1434h196z" />
    <glyph glyph-name="Aring" unicode="&#xc5;" horiz-adv-x="1269" 
d="M648 1716q-38 0 -62 -28t-25 -78q0 -49 25 -79q26 -30 62 -30t63 30t26 79q0 49 -25 78q-26 28 -64 28zM637 1083h-4l-217 -630h436zM438 1608q0 90 60 153t151 63q89 0 149 -62t60 -154q0 -145 -117 -197l508 -1411h-239l-86 246h-580l-84 -246h-240l512 1423
q-94 57 -94 185z" />
    <glyph glyph-name="AE" unicode="&#xc6;" horiz-adv-x="1777" 
d="M840 481v729h-129l-267 -729h396zM1655 1434v-224h-574v-368h516v-209h-516v-410h574v-223h-815v268h-471l-101 -268h-248l539 1434h1096z" />
    <glyph glyph-name="Ccedilla" unicode="&#xc7;" horiz-adv-x="1359" 
d="M858 -242q0 29 -27 45q-27 17 -71 17t-84 -25l-12 -6l-91 49l80 135q-248 23 -405 209q-156 186 -156 544t180 548q180 191 437 190q223 0 375 -139t182 -371l-250 -39q-53 326 -305 326q-156 0 -265 -127q-104 -127 -104 -388t100 -397t269 -136q268 0 313 368l254 -51
q-20 -228 -160 -374t-354 -165l-57 -90l2 -2q45 31 113 31t121 -43q52 -43 52 -123t-62 -133t-163 -53q-146 0 -242 96l80 96q70 -66 150 -65q100 0 100 73z" />
    <glyph glyph-name="Egrave" unicode="&#xc8;" horiz-adv-x="1189" 
d="M741 1567h-196l-223 254h256zM1067 0h-893v1434h893v-224h-651v-368h594v-215h-594v-404h651v-223z" />
    <glyph glyph-name="Eacute" unicode="&#xc9;" horiz-adv-x="1189" 
d="M682 1567h-197l164 254h258zM1067 0h-893v1434h893v-224h-651v-368h594v-215h-594v-404h651v-223z" />
    <glyph glyph-name="Ecircumflex" unicode="&#xca;" horiz-adv-x="1189" 
d="M477 1530l-123 98l138 176h258l139 -176l-127 -98l-141 180zM1067 0h-893v1434h893v-224h-651v-368h594v-215h-594v-404h651v-223z" />
    <glyph glyph-name="Edieresis" unicode="&#xcb;" horiz-adv-x="1189" 
d="M926 1567h-228v219h228v-219zM524 1567h-229v219h229v-219zM1067 0h-893v1434h893v-224h-651v-368h594v-215h-594v-404h651v-223z" />
    <glyph glyph-name="Igrave" unicode="&#xcc;" horiz-adv-x="610" 
d="M383 1567h-197l-223 254h256zM426 0h-242v1434h242v-1434z" />
    <glyph glyph-name="Iacute" unicode="&#xcd;" horiz-adv-x="610" 
d="M365 1567h-197l164 254h258zM426 0h-242v1434h242v-1434z" />
    <glyph glyph-name="Icircumflex" unicode="&#xce;" horiz-adv-x="610" 
d="M135 1530l-123 98l138 176h258l139 -176l-127 -98l-141 180zM426 0h-242v1434h242v-1434z" />
    <glyph glyph-name="Idieresis" unicode="&#xcf;" horiz-adv-x="610" 
d="M594 1567h-227v219h227v-219zM193 1567h-230v219h230v-219zM426 0h-242v1434h242v-1434z" />
    <glyph glyph-name="Eth" unicode="&#xd0;" horiz-adv-x="1384" 
d="M444 645v-422h222q176 -1 277 107t101 372t-97 386t-269 122h-234v-366h310v-199h-310zM670 0h-467v645h-142v199h142v590h479q258 0 439 -182t182 -533q0 -397 -199 -567q-178 -152 -434 -152z" />
    <glyph glyph-name="Ntilde" unicode="&#xd1;" horiz-adv-x="1415" 
d="M594 1780q68 0 144 -39t104 -39q59 0 73 67h121q-35 -213 -198 -213q-70 0 -146 39t-102 39q-58 1 -74 -67h-121q35 213 199 213zM416 0h-242v1434h252l569 -1014h4v1014h242v-1434h-246l-575 1014h-4v-1014z" />
    <glyph glyph-name="Ograve" unicode="&#xd2;" horiz-adv-x="1417" 
d="M817 1567h-196l-224 254h256zM92 729q0 348 181 542q181 193 435 193t435 -194q182 -194 182 -543q0 -397 -190 -588q-172 -170 -422 -170t-430 172q-191 191 -191 588zM1075 718q0 257 -104 389t-261 132t-261 -130q-105 -130 -105 -388t99 -393t267 -135t267 134
q98 134 98 391z" />
    <glyph glyph-name="Oacute" unicode="&#xd3;" horiz-adv-x="1417" 
d="M801 1567h-197l164 254h258zM92 729q0 348 181 542q181 193 435 193t435 -194q182 -194 182 -543q0 -397 -190 -588q-172 -170 -422 -170t-430 172q-191 191 -191 588zM1075 718q0 257 -104 389t-261 132t-261 -130q-105 -130 -105 -388t99 -393t267 -135t267 134
q98 134 98 391z" />
    <glyph glyph-name="Ocircumflex" unicode="&#xd4;" horiz-adv-x="1417" 
d="M580 1530l-123 98l137 176h258l139 -176l-127 -98l-141 180zM92 729q0 348 181 542q181 193 435 193t435 -194q182 -194 182 -543q0 -397 -190 -588q-172 -170 -422 -170t-430 172q-191 191 -191 588zM1075 718q0 257 -104 389t-261 132t-261 -130q-105 -130 -105 -388
t99 -393t267 -135t267 134q98 134 98 391z" />
    <glyph glyph-name="Otilde" unicode="&#xd5;" horiz-adv-x="1417" 
d="M606 1780q68 0 144 -39t104 -39q59 0 74 67h121q-35 -213 -199 -213q-70 0 -146 39t-102 39q-58 1 -74 -67h-120q35 213 198 213zM92 729q0 348 181 542q181 193 435 193t435 -194q182 -194 182 -543q0 -397 -190 -588q-172 -170 -422 -170t-430 172q-191 191 -191 588z
M1075 718q0 257 -104 389t-261 132t-261 -130q-105 -130 -105 -388t99 -393t267 -135t267 134q98 134 98 391z" />
    <glyph glyph-name="Odieresis" unicode="&#xd6;" horiz-adv-x="1417" 
d="M1028 1567h-227v219h227v-219zM627 1567h-230v219h230v-219zM92 729q0 348 181 542q181 193 435 193t435 -194q182 -194 182 -543q0 -397 -190 -588q-172 -170 -422 -170t-430 172q-191 191 -191 588zM1075 718q0 257 -104 389t-261 132t-261 -130q-105 -130 -105 -388
t99 -393t267 -135t267 134q98 134 98 391z" />
    <glyph glyph-name="multiply" unicode="&#xd7;" horiz-adv-x="1110" 
d="M225 227l-133 133l332 330l-311 311l133 134l311 -312l309 310l131 -134l-309 -309l330 -328l-131 -133l-330 330z" />
    <glyph glyph-name="Oslash" unicode="&#xd8;" horiz-adv-x="1417" 
d="M711 1239q-158 0 -262 -130q-105 -130 -105 -376t86 -383l471 828q-86 61 -190 61zM711 193q168 0 266 134q98 133 98 377t-90 377l-471 -827q84 -61 197 -61zM92 729q0 348 181 542t438 193q166 0 303 -88l51 88l102 -63l-55 -98q213 -207 213 -590t-190 -574
q-172 -170 -424 -170q-170 0 -312 80l-47 -80l-104 62l53 94q-209 199 -209 604z" />
    <glyph glyph-name="Ugrave" unicode="&#xd9;" horiz-adv-x="1345" 
d="M799 1567h-197l-223 254h256zM143 467v967h242v-955q0 -137 74 -212t214 -75t215 74t75 209v959h239v-967q0 -231 -145 -365t-385 -133t-384 133t-145 365z" />
    <glyph glyph-name="Uacute" unicode="&#xda;" horiz-adv-x="1345" 
d="M793 1567h-197l164 254h258zM143 467v967h242v-955q0 -137 74 -212t214 -75t215 74t75 209v959h239v-967q0 -231 -145 -365t-385 -133t-384 133t-145 365z" />
    <glyph glyph-name="Ucircumflex" unicode="&#xdb;" horiz-adv-x="1345" 
d="M541 1530l-123 98l137 176h258l139 -176l-127 -98l-141 180zM143 467v967h242v-955q0 -137 74 -212t214 -75t215 74t75 209v959h239v-967q0 -231 -145 -365t-385 -133t-384 133t-145 365z" />
    <glyph glyph-name="Udieresis" unicode="&#xdc;" horiz-adv-x="1345" 
d="M993 1567h-227v219h227v-219zM592 1567h-230v219h230v-219zM143 467v967h242v-955q0 -137 74 -212t214 -75t215 74t75 209v959h239v-967q0 -231 -145 -365t-385 -133t-384 133t-145 365z" />
    <glyph glyph-name="Yacute" unicode="&#xdd;" horiz-adv-x="1196" 
d="M717 1567h-197l164 254h258zM717 0h-238v604l-469 830h258l328 -611h4l330 611h256l-469 -830v-604z" />
    <glyph glyph-name="Thorn" unicode="&#xde;" horiz-adv-x="1300" 
d="M416 973v-465h332q122 0 192 59t70 172t-71 173t-191 61h-332zM416 0h-242v1434h242v-238h315q244 0 381 -119t137 -341t-132 -337t-386 -114h-315v-285z" />
    <glyph glyph-name="germandbls" unicode="&#xdf;" horiz-adv-x="1161" 
d="M360 0h-227v983q0 231 123 356q122 125 316 125t314 -107t120 -285t-164 -267v-4q98 -35 163 -129t64 -234q0 -214 -122 -326t-355 -112h-66v199h43q285 0 285 250q0 236 -238 235h-90v176h47q100 0 162 50q61 50 61 142t-58 149q-60 56 -158 56q-219 0 -220 -284v-973z
" />
    <glyph glyph-name="agrave" unicode="&#xe0;" horiz-adv-x="1107" 
d="M674 1219h-197l-223 254h256zM307 303q0 -131 178 -131q125 0 195 51t70 131v217h-5q-8 -25 -55 -48t-175 -58t-168 -70t-40 -92zM975 0h-199v109h-4q-18 -29 -91 -84t-237 -55t-263 87q-99 89 -99 229t83 215t273 122t248 75q55 31 55 88q0 58 -51 94t-152 36
q-102 0 -156 -49q-54 -48 -81 -142l-199 76q37 145 149 230q111 85 301 85t306 -103t117 -311v-702z" />
    <glyph glyph-name="aacute" unicode="&#xe1;" horiz-adv-x="1107" 
d="M614 1219h-196l164 254h256zM307 303q0 -131 178 -131q125 0 195 51t70 131v217h-5q-8 -25 -55 -48t-175 -58t-168 -70t-40 -92zM975 0h-199v109h-4q-18 -29 -91 -84t-237 -55t-263 87q-99 89 -99 229t83 215t273 122t248 75q55 31 55 88q0 58 -51 94t-152 36
q-102 0 -156 -49q-54 -48 -81 -142l-199 76q37 145 149 230q111 85 301 85t306 -103t117 -311v-702z" />
    <glyph glyph-name="acircumflex" unicode="&#xe2;" horiz-adv-x="1107" 
d="M410 1190l-123 98l137 176h258l139 -176l-127 -98l-141 180zM307 303q0 -131 178 -131q125 0 195 51t70 131v217h-5q-8 -25 -55 -48t-175 -58t-168 -70t-40 -92zM975 0h-199v109h-4q-18 -29 -91 -84t-237 -55t-263 87q-99 89 -99 229t83 215t273 122t248 75q55 31 55 88
q0 58 -51 94t-152 36q-102 0 -156 -49q-54 -48 -81 -142l-199 76q37 145 149 230q111 85 301 85t306 -103t117 -311v-702z" />
    <glyph glyph-name="atilde" unicode="&#xe3;" horiz-adv-x="1107" 
d="M432 1442q66 0 142 -40t106 -40q59 0 74 70h120q-35 -215 -198 -215q-70 -1 -147 39t-101 40q-60 1 -74 -69h-121q37 215 199 215zM307 303q0 -131 178 -131q125 0 195 51t70 131v217h-5q-8 -25 -55 -48t-175 -58t-168 -70t-40 -92zM975 0h-199v109h-4q-18 -29 -91 -84
t-237 -55t-263 87q-99 89 -99 229t83 215t273 122t248 75q55 31 55 88q0 58 -51 94t-152 36q-102 0 -156 -49q-54 -48 -81 -142l-199 76q37 145 149 230q111 85 301 85t306 -103t117 -311v-702z" />
    <glyph glyph-name="adieresis" unicode="&#xe4;" horiz-adv-x="1107" 
d="M870 1229h-227v219h227v-219zM469 1229h-229v219h229v-219zM307 303q0 -131 178 -131q125 0 195 51t70 131v217h-5q-8 -25 -55 -48t-175 -58t-168 -70t-40 -92zM975 0h-199v109h-4q-18 -29 -91 -84t-237 -55t-263 87q-99 89 -99 229t83 215t273 122t248 75q55 31 55 88
q0 58 -51 94t-152 36q-102 0 -156 -49q-54 -48 -81 -142l-199 76q37 145 149 230q111 85 301 85t306 -103t117 -311v-702z" />
    <glyph glyph-name="aring" unicode="&#xe5;" horiz-adv-x="1107" 
d="M641 1288q1 49 -25 78t-64 29t-63 -29t-25 -78t26 -79q24 -29 61 -29t63 30t27 78zM307 303q0 -131 178 -131q125 0 195 51t70 131v217h-5q-8 -25 -55 -48t-175 -58t-168 -70t-40 -92zM975 0h-199v109h-4q-18 -29 -91 -84t-237 -55t-263 87q-99 89 -99 229t83 215
t273 122t248 75q55 31 55 88q0 58 -51 94t-152 36q-102 0 -156 -49q-54 -48 -81 -142l-199 76q27 119 111 199t215 106q-86 62 -86 166t60 168t150 63q90 0 150 -62q59 -62 60 -155q0 -127 -92 -184q143 -31 224 -131t81 -269v-702z" />
    <glyph glyph-name="ae" unicode="&#xe6;" horiz-adv-x="1828" 
d="M989 649h531q-8 119 -78 190t-187 71t-189 -76t-77 -185zM307 303q0 -131 178 -131q125 0 195 51t70 131v217h-5q-8 -25 -55 -48t-174 -57t-168 -71t-41 -92zM1266 -31q-246 0 -392 185h-4q-111 -184 -383 -185q-197 0 -301 89q-104 88 -104 226t82 215t270 121t248 76
q59 35 59 91q0 57 -50 93t-148 35q-190 0 -242 -192l-199 78q31 139 148 227t287 88q250 0 362 -149h4q143 149 355 149t350 -156t139 -417v-70h-758q4 -137 76 -217t198 -80t199 80q57 68 86 127l183 -121q-139 -293 -465 -293z" />
    <glyph glyph-name="ccedilla" unicode="&#xe7;" horiz-adv-x="1116" 
d="M729 -242q0 29 -27 45q-28 17 -72 17t-83 -25l-12 -6l-91 49l80 135q-198 23 -320 173t-122 403q0 255 143 411t343 156t322 -110t142 -291l-219 -37q-35 227 -227 227q-125 0 -199 -96t-74 -267q0 -170 72 -266t201 -96q190 0 227 252l231 -49q-31 -185 -135 -291
t-274 -121l-57 -90l2 -2q46 31 114 31t120 -43t52 -123t-62 -133t-163 -53q-146 0 -242 96l80 96q70 -66 150 -65q100 0 100 73z" />
    <glyph glyph-name="egrave" unicode="&#xe8;" horiz-adv-x="1157" 
d="M711 1219h-197l-223 254h256zM319 649h529q-6 119 -76 190t-186 71t-189 -76q-72 -76 -78 -185zM592 -31q-225 0 -369 156q-141 158 -141 418q0 261 141 417t359 156t355 -156q138 -156 138 -417v-70h-758q4 -137 76 -217t192 -80t191 66q45 40 98 118l168 -137
q-156 -254 -450 -254z" />
    <glyph glyph-name="eacute" unicode="&#xe9;" horiz-adv-x="1157" 
d="M698 1219h-196l164 254h256zM319 649h529q-6 119 -76 190t-186 71t-189 -76q-72 -76 -78 -185zM592 -31q-225 0 -369 156q-141 158 -141 418q0 261 141 417t359 156t355 -156q138 -156 138 -417v-70h-758q4 -137 76 -217t192 -80t191 66q45 40 98 118l168 -137
q-156 -254 -450 -254z" />
    <glyph glyph-name="ecircumflex" unicode="&#xea;" horiz-adv-x="1157" 
d="M457 1190l-123 98l137 176h258l139 -176l-127 -98l-141 180zM319 649h529q-6 119 -76 190t-186 71t-189 -76q-72 -76 -78 -185zM592 -31q-225 0 -369 156q-141 158 -141 418q0 261 141 417t359 156t355 -156q138 -156 138 -417v-70h-758q4 -137 76 -217t192 -80t191 66
q45 40 98 118l168 -137q-156 -254 -450 -254z" />
    <glyph glyph-name="edieresis" unicode="&#xeb;" horiz-adv-x="1157" 
d="M915 1229h-227v219h227v-219zM514 1229h-229v219h229v-219zM319 649h529q-6 119 -76 190t-186 71t-189 -76q-72 -76 -78 -185zM592 -31q-225 0 -369 156q-141 158 -141 418q0 261 141 417t359 156t355 -156q138 -156 138 -417v-70h-758q4 -137 76 -217t192 -80t191 66
q45 40 98 118l168 -137q-156 -254 -450 -254z" />
    <glyph glyph-name="igrave" unicode="&#xec;" horiz-adv-x="534" 
d="M381 0h-231v1085h231v-1085zM373 1219h-197l-223 254h256z" />
    <glyph glyph-name="iacute" unicode="&#xed;" horiz-adv-x="565" 
d="M385 0h-231v1085h231v-1085zM367 1219h-197l164 254h256z" />
    <glyph glyph-name="icircumflex" unicode="&#xee;" horiz-adv-x="538" 
d="M125 1190l-123 98l137 176h258l140 -176l-127 -98l-142 180zM385 0h-231v1085h231v-1085z" />
    <glyph glyph-name="idieresis" unicode="&#xef;" horiz-adv-x="546" 
d="M365 0h-232v1085h232v-1085zM588 1229h-228v219h228v-219zM186 1229h-229v219h229v-219z" />
    <glyph glyph-name="eth" unicode="&#xf0;" horiz-adv-x="1167" 
d="M592 186q258 0 258 358t-268 359q-268 0 -269 -360q0 -173 74 -265t205 -92zM408 1587h249q55 -57 117 -139l256 70l33 -103l-225 -61q248 -397 247 -797q0 -283 -137 -435t-360 -153q-223 0 -365 150q-141 152 -141 425t125 423t332 149q154 0 252 -86l4 2
q-39 115 -144 271l-282 -78l-33 102l246 68q-78 98 -174 188v4z" />
    <glyph glyph-name="ntilde" unicode="&#xf1;" horiz-adv-x="1206" 
d="M510 1442q66 0 142 -40t106 -40q59 0 73 70h121q-35 -215 -198 -215q-70 -1 -147 39t-101 40q-60 1 -74 -69h-121q37 215 199 215zM387 0h-233v1085h225v-104h4q45 59 126 97t167 38q180 0 283 -108t104 -297v-711h-232v649q0 252 -210 252q-105 0 -169 -61t-65 -166
v-674z" />
    <glyph glyph-name="ograve" unicode="&#xf2;" horiz-adv-x="1167" 
d="M686 1219h-197l-223 254h256zM1085 539q0 -268 -140 -419t-358 -151q-217 0 -361 151t-144 419t145 424q147 153 357 153t356 -154q145 -154 145 -423zM313 542q0 -174 74 -268t198 -94q123 0 197 96t74 266t-74 267q-74 96 -198 96t-197 -95q-74 -95 -74 -268z" />
    <glyph glyph-name="oacute" unicode="&#xf3;" horiz-adv-x="1167" 
d="M702 1219h-196l164 254h256zM1085 539q0 -268 -140 -419t-358 -151q-217 0 -361 151t-144 419t145 424q147 153 357 153t356 -154q145 -154 145 -423zM313 542q0 -174 74 -268t198 -94q123 0 197 96t74 266t-74 267q-74 96 -198 96t-197 -95q-74 -95 -74 -268z" />
    <glyph glyph-name="ocircumflex" unicode="&#xf4;" horiz-adv-x="1167" 
d="M446 1190l-122 98l137 176h258l139 -176l-127 -98l-141 180zM1085 539q0 -268 -140 -419t-358 -151q-217 0 -361 151t-144 419t145 424q147 153 357 153t356 -154q145 -154 145 -423zM313 542q0 -174 74 -268t198 -94q123 0 197 96t74 266t-74 267q-74 96 -198 96
t-197 -95q-74 -95 -74 -268z" />
    <glyph glyph-name="otilde" unicode="&#xf5;" horiz-adv-x="1167" 
d="M459 1442q67 0 143 -40t105 -40q59 0 73 70h121q-37 -215 -199 -215q-70 -1 -146 39t-101 40q-60 1 -74 -69h-121q35 215 199 215zM1085 539q0 -268 -140 -419t-358 -151q-217 0 -361 151t-144 419t145 424q147 153 357 153t356 -154q145 -154 145 -423zM313 542
q0 -174 74 -268t198 -94q123 0 197 96t74 266t-74 267q-74 96 -198 96t-197 -95q-74 -95 -74 -268z" />
    <glyph glyph-name="odieresis" unicode="&#xf6;" horiz-adv-x="1167" 
d="M920 1229h-228v219h228v-219zM518 1229h-229v219h229v-219zM1085 539q0 -268 -140 -419t-358 -151q-217 0 -361 151t-144 419t145 424q147 153 357 153t356 -154q145 -154 145 -423zM313 542q0 -174 74 -268t198 -94q123 0 197 96t74 266t-74 267q-74 96 -198 96
t-197 -95q-74 -95 -74 -268z" />
    <glyph glyph-name="divide" unicode="&#xf7;" horiz-adv-x="970" 
d="M879 633h-787v184h787v-184zM309 280q0 75 51 126t125 51t125 -51q52 -51 52 -126t-52 -125q-52 -51 -125 -51q-74 0 -125 50t-51 126zM485 1337q74 0 125 -51q52 -51 52 -125t-52 -125t-125 -51q-74 0 -125 51t-51 125t51 125t125 51z" />
    <glyph glyph-name="oslash" unicode="&#xf8;" horiz-adv-x="1167" 
d="M313 564q0 -148 41 -236l398 512q-72 66 -166 65q-123 0 -198 -96q-75 -97 -75 -245zM856 521q0 149 -45 233l-397 -510q63 -64 179 -64q115 0 189 96t74 245zM82 551q0 256 145 412q147 154 359 153q168 0 301 -104l78 102l77 -65l-84 -107q127 -158 127 -414t-140 -408
q-140 -151 -359 -151q-180 0 -307 101l-76 -99l-78 64l84 104q-127 156 -127 412z" />
    <glyph glyph-name="ugrave" unicode="&#xf9;" horiz-adv-x="1177" 
d="M686 1219h-197l-223 254h256zM143 383v702h234v-675q0 -121 43 -169t147 -48t164 59q59 59 60 174v659h233v-1085h-225v104h-4q-93 -135 -279 -135q-186 -1 -280 107t-93 307z" />
    <glyph glyph-name="uacute" unicode="&#xfa;" horiz-adv-x="1177" 
d="M682 1219h-197l164 254h256zM143 383v702h234v-675q0 -121 43 -169t147 -48t164 59q59 59 60 174v659h233v-1085h-225v104h-4q-93 -135 -279 -135q-186 -1 -280 107t-93 307z" />
    <glyph glyph-name="ucircumflex" unicode="&#xfb;" horiz-adv-x="1177" 
d="M442 1190l-123 98l138 176h258l139 -176l-127 -98l-141 180zM143 383v702h234v-675q0 -121 43 -169t147 -48t164 59q59 59 60 174v659h233v-1085h-225v104h-4q-93 -135 -279 -135q-186 -1 -280 107t-93 307z" />
    <glyph glyph-name="udieresis" unicode="&#xfc;" horiz-adv-x="1177" 
d="M913 1229h-227v219h227v-219zM512 1229h-229v219h229v-219zM143 383v702h234v-675q0 -121 43 -169t147 -48t164 59q59 59 60 174v659h233v-1085h-225v104h-4q-93 -135 -279 -135q-186 -1 -280 107t-93 307z" />
    <glyph glyph-name="yacute" unicode="&#xfd;" horiz-adv-x="1101" 
d="M657 1219h-196l164 254h256zM463 -461h-225l204 510l-422 1036h246l285 -747h4l285 747h241z" />
    <glyph glyph-name="thorn" unicode="&#xfe;" horiz-adv-x="1241" 
d="M387 670v-262q0 -94 71 -159q70 -65 192 -65t199 94t77 264q0 171 -78 265t-200 94q-122 -1 -192 -67t-69 -164zM387 -461h-233v1956h227v-506h4q111 127 303 127t332 -156q139 -156 139 -418q0 -261 -142 -417t-337 -156t-289 119h-4v-549z" />
    <glyph glyph-name="ydieresis" unicode="&#xff;" horiz-adv-x="1101" 
d="M862 1229h-227v219h227v-219zM461 1229h-230v219h230v-219zM463 -461h-225l204 510l-422 1036h246l285 -747h4l285 747h241z" />
    <glyph glyph-name="Amacron" unicode="&#x100;" horiz-adv-x="1269" 
d="M946 1567h-590v151h590v-151zM637 1083h-4l-217 -630h436zM1249 0h-239l-86 246h-580l-84 -246h-240l517 1434h196z" />
    <glyph glyph-name="amacron" unicode="&#x101;" horiz-adv-x="1107" 
d="M850 1270h-590v151h590v-151zM307 303q0 -131 178 -131q125 0 195 51t70 131v217h-5q-8 -25 -55 -48t-175 -58t-168 -70t-40 -92zM975 0h-199v109h-4q-18 -29 -91 -84t-237 -55t-263 87q-99 89 -99 229t83 215t273 122t248 75q55 31 55 88q0 58 -51 94t-152 36
q-102 0 -156 -49q-54 -48 -81 -142l-199 76q37 145 149 230q111 85 301 85t306 -103t117 -311v-702z" />
    <glyph glyph-name="Abreve" unicode="&#x102;" horiz-adv-x="1269" 
d="M385 1804h117q6 -47 46 -79q40 -31 104 -31t103 31q38 32 44 79h123q0 -114 -76 -186t-195 -72t-193 72t-73 186zM637 1083h-4l-217 -630h436zM1249 0h-239l-86 246h-580l-84 -246h-240l517 1434h196z" />
    <glyph glyph-name="abreve" unicode="&#x103;" horiz-adv-x="1107" 
d="M283 1456h116q6 -47 46 -79q41 -31 105 -31t102 32t44 78h123q0 -114 -76 -186q-77 -72 -195 -72t-192 72t-73 186zM307 303q0 -131 178 -131q125 0 195 51t70 131v217h-5q-8 -25 -55 -48t-175 -58t-168 -70t-40 -92zM975 0h-199v109h-4q-18 -29 -91 -84t-237 -55
t-263 87q-99 89 -99 229t83 215t273 122t248 75q55 31 55 88q0 58 -51 94t-152 36q-102 0 -156 -49q-54 -48 -81 -142l-199 76q37 145 149 230q111 85 301 85t306 -103t117 -311v-702z" />
    <glyph glyph-name="Aogonek" unicode="&#x104;" horiz-adv-x="1269" 
d="M637 1083h-4l-217 -630h436zM1085 -238q0 -72 76 -72t144 77l77 -72q-123 -137 -276 -137q-86 0 -140 39t-54 115t56 154q56 79 146 134h-104l-86 246h-580l-84 -246h-240l517 1434h196l516 -1434q-164 -141 -164 -238z" />
    <glyph glyph-name="aogonek" unicode="&#x105;" horiz-adv-x="1107" 
d="M307 303q0 -131 178 -131q125 0 195 51t70 131v217h-5q-8 -25 -55 -48t-175 -58t-168 -70t-40 -92zM776 0v109h-4q-18 -29 -91 -84t-237 -55t-263 87q-99 89 -99 229t83 215t273 122t248 75q55 31 55 88q0 58 -51 94t-152 36q-102 0 -156 -49q-54 -48 -81 -142l-199 76
q37 145 149 230q111 85 301 85t306 -103t117 -311v-702q-164 -141 -164 -238q0 -72 76 -72t143 77l78 -72q-123 -137 -277 -137q-86 0 -140 39t-54 115t56 154q57 79 147 134h-64z" />
    <glyph glyph-name="Cacute" unicode="&#x106;" horiz-adv-x="1359" 
d="M809 1567h-197l164 254h258zM696 -31q-256 1 -430 191t-174 556t180 558q180 191 437 190q223 0 375 -139t182 -371l-250 -39q-53 326 -305 326q-156 0 -265 -127q-104 -127 -104 -388t100 -397t269 -136q268 -1 313 368l254 -51q-26 -240 -176 -390t-406 -151z" />
    <glyph glyph-name="cacute" unicode="&#x107;" horiz-adv-x="1116" 
d="M645 1219h-196l163 254h256zM570 -31q-206 0 -346 151q-142 151 -142 417q0 267 143 423t343 156t322 -110t142 -291l-219 -37q-35 227 -227 227q-125 0 -199 -96t-74 -267q0 -170 72 -266t201 -96q190 0 227 252l231 -49q-32 -199 -150 -307t-324 -107z" />
    <glyph glyph-name="Ccircumflex" unicode="&#x108;" horiz-adv-x="1359" 
d="M575 1530l-122 98l137 176h258l139 -176l-127 -98l-141 180zM696 -31q-256 1 -430 191t-174 556t180 558q180 191 437 190q223 0 375 -139t182 -371l-250 -39q-53 326 -305 326q-156 0 -265 -127q-104 -127 -104 -388t100 -397t269 -136q268 -1 313 368l254 -51
q-26 -240 -176 -390t-406 -151z" />
    <glyph glyph-name="ccircumflex" unicode="&#x109;" horiz-adv-x="1116" 
d="M420 1190l-123 98l137 176h258l139 -176l-126 -98l-142 180zM570 -31q-206 0 -346 151q-142 151 -142 417q0 267 143 423t343 156t322 -110t142 -291l-219 -37q-35 227 -227 227q-125 0 -199 -96t-74 -267q0 -170 72 -266t201 -96q190 0 227 252l231 -49
q-32 -199 -150 -307t-324 -107z" />
    <glyph glyph-name="Cdotaccent" unicode="&#x10a;" horiz-adv-x="1359" 
d="M815 1567h-244v233h244v-233zM696 -31q-256 1 -430 191t-174 556t180 558q180 191 437 190q223 0 375 -139t182 -371l-250 -39q-53 326 -305 326q-156 0 -265 -127q-104 -127 -104 -388t100 -397t269 -136q268 -1 313 368l254 -51q-26 -240 -176 -390t-406 -151z" />
    <glyph glyph-name="cdotaccent" unicode="&#x10b;" horiz-adv-x="1116" 
d="M692 1227h-243v233h243v-233zM570 -31q-206 0 -346 151q-142 151 -142 417q0 267 143 423t343 156t322 -110t142 -291l-219 -37q-35 227 -227 227q-125 0 -199 -96t-74 -267q0 -170 72 -266t201 -96q190 0 227 252l231 -49q-32 -199 -150 -307t-324 -107z" />
    <glyph glyph-name="Ccaron" unicode="&#x10c;" horiz-adv-x="1359" 
d="M827 1567h-258l-137 176l123 98l143 -180l142 180l125 -98zM696 -31q-256 1 -430 191t-174 556t180 558q180 191 437 190q223 0 375 -139t182 -371l-250 -39q-53 326 -305 326q-156 0 -265 -127q-104 -127 -104 -388t100 -397t269 -136q268 -1 313 368l254 -51
q-26 -240 -176 -390t-406 -151z" />
    <glyph glyph-name="ccaron" unicode="&#x10d;" horiz-adv-x="1116" 
d="M698 1217h-258l-137 176l123 98l143 -180l142 180l125 -98zM570 -31q-206 0 -346 151q-142 151 -142 417q0 267 143 423t343 156t322 -110t142 -291l-219 -37q-35 227 -227 227q-125 0 -199 -96t-74 -267q0 -170 72 -266t201 -96q190 0 227 252l231 -49
q-32 -199 -150 -307t-324 -107z" />
    <glyph glyph-name="Dcaron" unicode="&#x10e;" horiz-adv-x="1345" 
d="M694 1567h-258l-137 176l123 98l143 -180l142 180l124 -98zM631 0h-457v1434h469q250 0 428 -170q88 -84 140 -224t53 -321q0 -395 -199 -567q-178 -152 -434 -152zM416 1210v-987h211q180 0 278 109q101 106 101 368t-98 386t-269 124h-223z" />
    <glyph glyph-name="dcaron" unicode="&#x10f;" horiz-adv-x="1298" 
d="M1292 1167h-139l64 328h194zM1071 0h-217v104h-4q-16 -25 -42 -46t-96 -55t-159 -34q-215 0 -344 156q-127 158 -127 419t137 417q137 155 321 155t294 -135h4v514h233v-1495zM838 416v246q0 102 -68 173t-190 71t-193 -94q-72 -93 -72 -269q0 -175 72 -269t192 -94
q119 0 189 68t70 168z" />
    <glyph glyph-name="Dcroat" unicode="&#x110;" horiz-adv-x="1363" 
d="M434 645v-422h221q175 -1 277 107t102 372t-97 386t-269 122h-234v-366h309v-199h-309zM659 0h-466v645h-142v199h142v590h479q258 0 439 -182t181 -533q0 -397 -198 -567q-179 -152 -435 -152z" />
    <glyph glyph-name="dslash" unicode="&#x111;" horiz-adv-x="1224" 
d="M838 416v246q0 100 -69 170t-191 69q-122 0 -192 -91q-71 -91 -71 -267q0 -175 71 -267t192 -92q120 0 190 67t70 165zM1071 0h-217v104h-4q-121 -135 -297 -135q-215 0 -344 156q-127 158 -127 418q0 261 132 417t339 156q170 0 281 -135h4v283h-232v170h232v61h233v-61
h113v-170h-113v-1264z" />
    <glyph glyph-name="Emacron" unicode="&#x112;" horiz-adv-x="1189" 
d="M909 1567h-590v151h590v-151zM1067 0h-893v1434h893v-224h-651v-368h594v-215h-594v-404h651v-223z" />
    <glyph glyph-name="emacron" unicode="&#x113;" horiz-adv-x="1157" 
d="M893 1270h-590v151h590v-151zM319 649h529q-6 119 -76 190t-186 71t-189 -76q-72 -76 -78 -185zM592 -31q-225 0 -369 156q-141 158 -141 418q0 261 141 417t359 156t355 -156q138 -156 138 -417v-70h-758q4 -137 76 -217t192 -80t191 66q45 40 98 118l168 -137
q-156 -254 -450 -254z" />
    <glyph glyph-name="Ebreve" unicode="&#x114;" horiz-adv-x="1189" 
d="M360 1804h117q6 -47 46 -79q41 -31 105 -31t102 32t44 78h123q0 -114 -76 -186q-77 -72 -195 -72t-192 72t-74 186zM1067 0h-893v1434h893v-224h-651v-368h594v-215h-594v-404h651v-223z" />
    <glyph glyph-name="ebreve" unicode="&#x115;" horiz-adv-x="1157" 
d="M334 1456h117q6 -47 46 -79q40 -31 104 -31t102 32t45 78h122q0 -114 -76 -186t-194 -72t-192 72t-74 186zM319 649h529q-6 119 -76 190t-186 71t-189 -76q-72 -76 -78 -185zM592 -31q-225 0 -369 156q-141 158 -141 418q0 261 141 417t359 156t355 -156
q138 -156 138 -417v-70h-758q4 -137 76 -217t192 -80t191 66q45 40 98 118l168 -137q-156 -254 -450 -254z" />
    <glyph glyph-name="Edotaccent" unicode="&#x116;" horiz-adv-x="1189" 
d="M756 1567h-244v233h244v-233zM1067 0h-893v1434h893v-224h-651v-368h594v-215h-594v-404h651v-223z" />
    <glyph glyph-name="edotaccent" unicode="&#x117;" horiz-adv-x="1157" 
d="M727 1227h-244v233h244v-233zM319 649h529q-6 119 -76 190t-186 71t-189 -76q-72 -76 -78 -185zM592 -31q-225 0 -369 156q-141 158 -141 418q0 261 141 417t359 156t355 -156q138 -156 138 -417v-70h-758q4 -137 76 -217t192 -80t191 66q45 40 98 118l168 -137
q-156 -254 -450 -254z" />
    <glyph glyph-name="Eogonek" unicode="&#x118;" horiz-adv-x="1189" 
d="M174 0v1434h893v-224h-651v-368h594v-215h-594v-404h651v-223h-149q-164 -141 -164 -238q0 -72 76 -72t143 77l78 -72q-123 -137 -277 -137q-86 0 -140 39t-54 115t56 154q56 79 146 134h-608z" />
    <glyph glyph-name="eogonek" unicode="&#x119;" horiz-adv-x="1157" 
d="M319 649h529q-6 119 -76 190t-186 71t-189 -76q-72 -76 -78 -185zM578 -442q-86 0 -141 39q-54 39 -54 112q0 143 162 262q-207 16 -336 170q-127 158 -127 410q0 253 141 409t359 156t355 -156q138 -156 138 -417v-70h-758q4 -137 76 -217t192 -80t191 66q45 41 98 118
l168 -137q-133 -209 -348 -246q-137 -123 -137 -215q-1 -72 75 -72t144 77l78 -72q-123 -137 -276 -137z" />
    <glyph glyph-name="Ecaron" unicode="&#x11a;" horiz-adv-x="1189" 
d="M756 1567h-258l-138 176l123 98l144 -180l141 180l125 -98zM1067 0h-893v1434h893v-224h-651v-368h594v-215h-594v-404h651v-223z" />
    <glyph glyph-name="ecaron" unicode="&#x11b;" horiz-adv-x="1157" 
d="M725 1217h-258l-137 176l123 98l143 -180l141 180l125 -98zM319 649h529q-6 119 -76 190t-186 71t-189 -76q-72 -76 -78 -185zM592 -31q-225 0 -369 156q-141 158 -141 418q0 261 141 417t359 156t355 -156q138 -156 138 -417v-70h-758q4 -137 76 -217t192 -80t191 66
q45 40 98 118l168 -137q-156 -254 -450 -254z" />
    <glyph glyph-name="Gcircumflex" unicode="&#x11c;" horiz-adv-x="1351" 
d="M545 1530l-123 98l137 176h258l139 -176l-127 -98l-141 180zM697 -31q-257 1 -431 191t-174 554t180 558q180 193 437 192q215 0 363 -131t183 -352l-243 -39q-57 297 -303 297q-155 0 -261 -130t-106 -383t100 -393t258 -140t244 87q84 87 82 244h-297v209h531v-172
q0 -279 -154 -434q-151 -158 -409 -158z" />
    <glyph glyph-name="gcircumflex" unicode="&#x11d;" horiz-adv-x="1230" 
d="M485 1190l-123 98l138 176h258l139 -176l-127 -98l-141 180zM854 408v262q0 98 -70 167t-192 69t-199 -96q-78 -95 -78 -267q0 -171 77 -267t199 -96q123 0 193 66t70 162zM618 -287q108 1 172 63q65 62 64 185v139h-4q-39 -57 -114 -94t-167 -37q-213 0 -350 153
t-137 417t141 422q143 155 339 155t296 -135h4v104h225v-1091q0 -234 -132 -360t-345 -126q-164 0 -280 75t-168 204l180 115q44 -96 106 -142t170 -47z" />
    <glyph glyph-name="Gbreve" unicode="&#x11e;" horiz-adv-x="1351" 
d="M401 1804h117q6 -47 46 -79q40 -31 104 -31t103 32q38 32 44 78h123q0 -114 -76 -186t-194 -72t-193 72q-74 72 -74 186zM697 -31q-257 1 -431 191t-174 554t180 558q180 193 437 192q215 0 363 -131t183 -352l-243 -39q-57 297 -303 297q-155 0 -261 -130t-106 -383
t100 -393t258 -140t244 87q84 87 82 244h-297v209h531v-172q0 -279 -154 -434q-151 -158 -409 -158z" />
    <glyph glyph-name="gbreve" unicode="&#x11f;" horiz-adv-x="1230" 
d="M360 1456h117q6 -47 46 -79q41 -31 105 -31t102 32t44 78h123q0 -114 -76 -186q-77 -72 -195 -72t-192 72t-74 186zM854 408v262q0 98 -70 167t-192 69t-199 -96q-78 -95 -78 -267q0 -171 77 -267t199 -96q123 0 193 66t70 162zM618 -287q108 1 172 63q65 62 64 185v139
h-4q-39 -57 -114 -94t-167 -37q-213 0 -350 153t-137 417t141 422q143 155 339 155t296 -135h4v104h225v-1091q0 -234 -132 -360t-345 -126q-164 0 -280 75t-168 204l180 115q44 -96 106 -142t170 -47z" />
    <glyph glyph-name="Gdotaccent" unicode="&#x120;" horiz-adv-x="1351" 
d="M813 1567h-244v233h244v-233zM697 -31q-257 1 -431 191t-174 554t180 558q180 193 437 192q215 0 363 -131t183 -352l-243 -39q-57 297 -303 297q-155 0 -261 -130t-106 -383t100 -393t258 -140t244 87q84 87 82 244h-297v209h531v-172q0 -279 -154 -434
q-151 -158 -409 -158z" />
    <glyph glyph-name="gdotaccent" unicode="&#x121;" horiz-adv-x="1230" 
d="M750 1227h-244v233h244v-233zM854 408v262q0 98 -70 167t-192 69t-199 -96q-78 -95 -78 -267q0 -171 77 -267t199 -96q123 0 193 66t70 162zM618 -287q108 1 172 63q65 62 64 185v139h-4q-39 -57 -114 -94t-167 -37q-213 0 -350 153t-137 417t141 422q143 155 339 155
t296 -135h4v104h225v-1091q0 -234 -132 -360t-345 -126q-164 0 -280 75t-168 204l180 115q44 -96 106 -142t170 -47z" />
    <glyph glyph-name="Gcommaaccent" unicode="&#x122;" horiz-adv-x="1351" 
d="M735 -315h-108v215h235v-189q0 -211 -227 -227v88q100 14 100 113zM697 -31q-257 1 -431 191t-174 554t180 558q180 193 437 192q215 0 363 -131t183 -352l-243 -39q-57 297 -303 297q-155 0 -261 -130t-106 -383t100 -393t258 -140t244 87q84 87 82 244h-297v209h531
v-172q0 -279 -154 -434q-151 -158 -409 -158z" />
    <glyph glyph-name="gcommaaccent" unicode="&#x123;" horiz-adv-x="1230" 
d="M643 1434h98v-224h-227v191q0 205 215 219v-76q-86 -16 -86 -110zM854 408v262q0 98 -70 167t-192 69t-199 -96q-78 -95 -78 -267q0 -171 77 -267t199 -96q123 0 193 66t70 162zM618 -287q108 1 172 63q65 62 64 185v139h-4q-39 -57 -114 -94t-167 -37q-213 0 -350 153
t-137 417t141 422q143 155 339 155t296 -135h4v104h225v-1091q0 -234 -132 -360t-345 -126q-164 0 -280 75t-168 204l180 115q44 -96 106 -142t170 -47z" />
    <glyph glyph-name="Hcircumflex" unicode="&#x124;" horiz-adv-x="1372" 
d="M528 1530l-122 98l137 176h258l139 -176l-127 -98l-141 180zM416 0h-242v1434h242v-590h540v590h242v-1434h-242v635h-540v-635z" />
    <glyph glyph-name="hcircumflex" unicode="&#x125;" horiz-adv-x="1216" 
d="M573 1190l-122 98l137 176h258l139 -176l-127 -98l-141 180zM387 0h-233v1495h233v-516h4q37 55 122 96t169 41q176 0 284 -108t107 -289v-719h-231v664q0 110 -58 174t-164 64t-169 -62q-63 -61 -64 -158v-682z" />
    <glyph glyph-name="Hbar" unicode="&#x126;" horiz-adv-x="1411" 
d="M434 1024v-180h541v180h-541zM434 0h-239v1024h-103v201h103v209h239v-209h541v209h242v-209h102v-201h-102v-1024h-242v635h-541v-635z" />
    <glyph glyph-name="hbar" unicode="&#x127;" horiz-adv-x="1161" 
d="M381 0h-234v1264h-106v170h106v61h234v-61h231v-170h-231v-283h4q39 57 115 96t157 39q172 0 277 -107q104 -108 104 -290v-719h-233v664q0 110 -54 174q-53 64 -155 64t-158 -60q-56 -59 -57 -160v-682z" />
    <glyph glyph-name="Itilde" unicode="&#x128;" horiz-adv-x="610" 
d="M156 1780q68 0 144 -39t103 -39q59 0 74 67h121q-35 -213 -199 -213q-69 0 -145 39t-102 39q-58 1 -74 -67h-121q35 213 199 213zM426 0h-242v1434h242v-1434z" />
    <glyph glyph-name="itilde" unicode="&#x129;" horiz-adv-x="542" 
d="M362 0h-231v1085h231v-1085zM150 1442q66 0 142 -40t105 -40q59 0 74 70h121q-35 -215 -199 -215q-71 -1 -147 39t-101 40q-59 1 -73 -69h-121q37 215 199 215z" />
    <glyph glyph-name="Imacron" unicode="&#x12a;" horiz-adv-x="610" 
d="M573 1567h-589v151h589v-151zM426 0h-242v1434h242v-1434z" />
    <glyph glyph-name="imacron" unicode="&#x12b;" horiz-adv-x="573" 
d="M377 0h-232v1085h232v-1085zM582 1270h-590v151h590v-151z" />
    <glyph glyph-name="Ibreve" unicode="&#x12c;" horiz-adv-x="610" 
d="M10 1804h117q6 -47 46 -79q41 -31 105 -31t102 32t44 78h123q0 -114 -76 -186q-77 -72 -195 -72t-192 72t-74 186zM426 0h-242v1434h242v-1434z" />
    <glyph glyph-name="ibreve" unicode="&#x12d;" horiz-adv-x="559" 
d="M381 0h-231v1085h231v-1085zM10 1456h117q6 -47 46 -79q41 -31 105 -31t102 32t44 78h123q0 -114 -76 -186q-77 -72 -195 -72t-192 72t-74 186z" />
    <glyph glyph-name="Iogonek" unicode="&#x12e;" horiz-adv-x="610" 
d="M184 0v1434h242v-1434q-164 -141 -164 -238q0 -72 76 -72t143 77l78 -72q-123 -137 -276 -137q-86 0 -141 39q-54 39 -54 115t56 154q57 79 147 134h-107z" />
    <glyph glyph-name="iogonek" unicode="&#x12f;" horiz-adv-x="542" 
d="M395 1264h-241v231h241v-231zM158 0v1085h233v-1085q-164 -141 -164 -238q0 -72 76 -72t143 77l78 -72q-123 -137 -276 -137q-86 0 -140 39t-54 115t56 154q56 79 146 134h-98z" />
    <glyph glyph-name="Idot" unicode="&#x130;" horiz-adv-x="610" 
d="M401 1567h-243v233h243v-233zM426 0h-242v1434h242v-1434z" />
    <glyph glyph-name="dotlessi" unicode="&#x131;" horiz-adv-x="538" 
d="M385 0h-231v1085h231v-1085z" />
    <glyph glyph-name="IJ" unicode="&#x132;" horiz-adv-x="1490" 
d="M940 193q80 1 114 39t33 128v1074h240v-1053q0 -209 -101 -310q-102 -101 -270 -101t-270 92t-127 237l223 74q33 -180 158 -180zM426 0h-242v1434h242v-1434z" />
    <glyph glyph-name="ij" unicode="&#x133;" horiz-adv-x="1056" 
d="M893 1264h-242v231h242v-231zM627 -399h-99v243h45q82 0 82 99v1142h234v-1200q0 -284 -262 -284zM385 1264h-242v231h242v-231zM381 0h-234v1085h234v-1085z" />
    <glyph glyph-name="Jcircumflex" unicode="&#x134;" horiz-adv-x="962" 
d="M526 1530l-123 98l138 176h258l139 -176l-127 -98l-141 180zM412 193q80 1 114 39t33 128v1074h240v-1053q1 -209 -101 -310t-270 -101t-270 92t-127 237l223 74q33 -180 158 -180z" />
    <glyph glyph-name="jcircumflex" unicode="&#x135;" horiz-adv-x="534" 
d="M131 1190l-123 98l137 176h258l140 -176l-127 -98l-142 180zM129 -399h-98v243h45q82 0 82 99v1142h233v-1200q0 -284 -262 -284z" />
    <glyph glyph-name="Kcommaaccent" unicode="&#x136;" horiz-adv-x="1273" 
d="M639 -315h-109v215h236v-189q0 -211 -227 -227v88q100 14 100 113zM395 0h-241v1434h241v-639h4l535 639h293l-531 -631l588 -803h-291l-465 629h-4l-129 -164v-465z" />
    <glyph glyph-name="kcommaaccent" unicode="&#x137;" horiz-adv-x="1155" 
d="M473 -315v215h236v-189q-1 -211 -228 -227v88q100 14 101 113h-109zM387 0h-233v1495h233v-874h4l416 464h297l-393 -436l434 -649h-264l-344 514h-5l-145 -160v-354z" />
    <glyph glyph-name="kgreenlandic" unicode="&#x138;" horiz-adv-x="1155" 
d="M387 0h-233v1083h233v-462l420 464h297l-393 -436l434 -649h-264l-349 514l-145 -160v-354z" />
    <glyph glyph-name="Lacute" unicode="&#x139;" horiz-adv-x="1058" 
d="M369 1567h-197l164 254h258zM1018 0h-844v1434h242v-1211h602v-223z" />
    <glyph glyph-name="lacute" unicode="&#x13a;" horiz-adv-x="548" 
d="M348 1597h-196l163 254h258zM395 0h-241v1495h241v-1495z" />
    <glyph glyph-name="Lcommaaccent" unicode="&#x13b;" horiz-adv-x="1058" 
d="M436 -315v215h236v-189q-1 -211 -228 -227v88q100 14 101 113h-109zM1018 0h-844v1434h242v-1211h602v-223z" />
    <glyph glyph-name="lcommaaccent" unicode="&#x13c;" horiz-adv-x="548" 
d="M272 -315h-108v215h235v-189q0 -211 -227 -227v88q100 14 100 113zM395 0h-241v1495h241v-1495z" />
    <glyph glyph-name="Lcaron" unicode="&#x13d;" horiz-adv-x="1058" 
d="M870 1167h-139l64 328h194zM1018 0h-844v1434h242v-1211h602v-223z" />
    <glyph glyph-name="lcaron" unicode="&#x13e;" horiz-adv-x="653" 
d="M637 1167h-139l63 328h195zM395 0h-241v1495h241v-1495z" />
    <glyph glyph-name="Ldot" unicode="&#x13f;" horiz-adv-x="1058" 
d="M938 621h-285v272h285v-272zM1018 0h-844v1434h242v-1211h602v-223z" />
    <glyph glyph-name="ldot" unicode="&#x140;" horiz-adv-x="780" 
d="M780 659h-284v273h284v-273zM395 0h-241v1495h241v-1495z" />
    <glyph glyph-name="Lslash" unicode="&#x141;" horiz-adv-x="1128" 
d="M1087 0h-868v666l-137 -140l-82 84l219 219v605h242v-402l227 228l80 -84l-307 -308v-645h626v-223z" />
    <glyph glyph-name="lslash" unicode="&#x142;" horiz-adv-x="626" 
d="M430 0h-233v717l-177 -176l-81 84l258 256v614h233v-430l176 176l82 -82l-258 -260v-899z" />
    <glyph glyph-name="Nacute" unicode="&#x143;" horiz-adv-x="1415" 
d="M797 1567h-197l164 254h258zM416 0h-242v1434h252l569 -1014h4v1014h242v-1434h-246l-575 1014h-4v-1014z" />
    <glyph glyph-name="nacute" unicode="&#x144;" horiz-adv-x="1206" 
d="M745 1219h-196l164 254h256zM387 0h-233v1085h225v-104h4q45 59 126 97t167 38q180 0 283 -108t104 -297v-711h-232v649q0 252 -210 252q-105 0 -169 -61t-65 -166v-674z" />
    <glyph glyph-name="Ncommaaccent" unicode="&#x145;" horiz-adv-x="1415" 
d="M598 -315v215h236v-189q-1 -211 -228 -227v88q100 14 101 113h-109zM416 0h-242v1434h252l569 -1014h4v1014h242v-1434h-246l-575 1014h-4v-1014z" />
    <glyph glyph-name="ncommaaccent" unicode="&#x146;" horiz-adv-x="1206" 
d="M604 -315h-108v215h235v-189q0 -211 -227 -227v88q100 14 100 113zM387 0h-233v1085h225v-104h4q45 59 126 97t167 38q180 0 283 -108t104 -297v-711h-232v649q0 252 -210 252q-105 0 -169 -61t-65 -166v-674z" />
    <glyph glyph-name="Ncaron" unicode="&#x147;" horiz-adv-x="1415" 
d="M836 1567h-258l-138 176l123 98l144 -180l141 180l125 -98zM416 0h-242v1434h252l569 -1014h4v1014h242v-1434h-246l-575 1014h-4v-1014z" />
    <glyph glyph-name="ncaron" unicode="&#x148;" horiz-adv-x="1206" 
d="M741 1217h-258l-137 176l123 98l143 -180l142 180l125 -98zM387 0h-233v1085h225v-104h4q45 59 126 97t167 38q180 0 283 -108t104 -297v-711h-232v649q0 252 -210 252q-105 0 -169 -61t-65 -166v-674z" />
    <glyph glyph-name="Eng" unicode="&#x14a;" horiz-adv-x="1409" 
d="M416 0h-242v1434h225l590 -983h4v983h242v-1596q0 -283 -270 -282h-129v233h92q90 0 90 102v113l-598 979h-4v-983z" />
    <glyph glyph-name="eng" unicode="&#x14b;" horiz-adv-x="1202" 
d="M387 0h-233v1085h225v-104h4q45 61 121 98t162 37q176 0 284 -127t109 -338v-811q0 -287 -262 -286h-127v223h78q80 0 79 98v774q0 252 -219 252q-104 0 -162 -63t-59 -170v-668z" />
    <glyph glyph-name="Omacron" unicode="&#x14c;" horiz-adv-x="1417" 
d="M1008 1567h-590v151h590v-151zM92 729q0 348 181 542q181 193 435 193t435 -194q182 -194 182 -543q0 -397 -190 -588q-172 -170 -422 -170t-430 172q-191 191 -191 588zM1075 718q0 257 -104 389t-261 132t-261 -130q-105 -130 -105 -388t99 -393t267 -135t267 134
q98 134 98 391z" />
    <glyph glyph-name="omacron" unicode="&#x14d;" horiz-adv-x="1167" 
d="M885 1270h-590v151h590v-151zM1085 539q0 -268 -140 -419t-358 -151q-217 0 -361 151t-144 419t145 424q147 153 357 153t356 -154q145 -154 145 -423zM313 542q0 -174 74 -268t198 -94q123 0 197 96t74 266t-74 267q-74 96 -198 96t-197 -95q-74 -95 -74 -268z" />
    <glyph glyph-name="Obreve" unicode="&#x14e;" horiz-adv-x="1417" 
d="M444 1804h117q6 -47 46 -79q41 -31 105 -31t102 32t44 78h123q0 -114 -76 -186q-77 -72 -195 -72t-192 72t-74 186zM92 729q0 348 181 542q181 193 435 193t435 -194q182 -194 182 -543q0 -397 -190 -588q-172 -170 -422 -170t-430 172q-191 191 -191 588zM1075 718
q0 257 -104 389t-261 132t-261 -130q-105 -130 -105 -388t99 -393t267 -135t267 134q98 134 98 391z" />
    <glyph glyph-name="obreve" unicode="&#x14f;" horiz-adv-x="1167" 
d="M326 1456h116q6 -47 46 -79q40 -31 104 -31t103 32q38 32 44 78h123q0 -114 -76 -186t-194 -72t-192 72t-74 186zM1085 539q0 -268 -140 -419t-358 -151q-217 0 -361 151t-144 419t145 424q147 153 357 153t356 -154q145 -154 145 -423zM313 542q0 -174 74 -268t198 -94
q123 0 197 96t74 266t-74 267q-74 96 -198 96t-197 -95q-74 -95 -74 -268z" />
    <glyph glyph-name="Ohungarumlaut" unicode="&#x150;" horiz-adv-x="1417" 
d="M946 1567h-166l154 235h225zM635 1567h-164l154 235h223zM92 729q0 348 181 542q181 193 435 193t435 -194q182 -194 182 -543q0 -397 -190 -588q-172 -170 -422 -170t-430 172q-191 191 -191 588zM1075 718q0 257 -104 389t-261 132t-261 -130q-105 -130 -105 -388
t99 -393t267 -135t267 134q98 134 98 391z" />
    <glyph glyph-name="ohungarumlaut" unicode="&#x151;" horiz-adv-x="1167" 
d="M823 1243h-166l154 236h225zM512 1243h-164l154 236h223zM1085 539q0 -268 -140 -419t-358 -151q-217 0 -361 151t-144 419t145 424q147 153 357 153t356 -154q145 -154 145 -423zM313 542q0 -174 74 -268t198 -94q123 0 197 96t74 266t-74 267q-74 96 -198 96t-197 -95
q-74 -95 -74 -268z" />
    <glyph glyph-name="OE" unicode="&#x152;" horiz-adv-x="2037" 
d="M721 1239q-172 0 -270 -129t-99 -381q0 -537 369 -536q213 0 307 141v758q-102 147 -307 147zM1915 0h-887v82q-115 -113 -323 -113q-250 0 -424 172q-188 193 -189 588q0 348 178 543q180 193 435 192q209 0 323 -112v82h887v-224h-643v-350h586v-213h-586v-424h643
v-223z" />
    <glyph glyph-name="oe" unicode="&#x153;" horiz-adv-x="1921" 
d="M1090 651h528q0 111 -74 187t-194 76t-191 -76q-69 -76 -69 -187zM313 541q0 -173 74 -267t198 -94q123 0 197 96t74 266t-75 266q-75 97 -197 97t-196 -96q-75 -96 -75 -268zM1366 -31q-258 0 -393 209q-133 -209 -387 -209q-216 0 -360 151t-144 419t145 424
q147 154 359 153q246 0 383 -209q133 209 379 209q219 0 355 -150t136 -423v-70h-749q4 -137 76 -217t196 -80q201 0 291 201l176 -103q-53 -135 -175 -220t-288 -85z" />
    <glyph glyph-name="Racute" unicode="&#x154;" horiz-adv-x="1306" 
d="M682 1567h-197l164 254h258zM416 1214v-454h311q264 0 264 227t-264 227h-311zM416 0h-242v1434h571q223 0 357 -119t133 -328q0 -161 -85 -269t-235 -147l310 -571h-269l-290 551h-250v-551z" />
    <glyph glyph-name="racute" unicode="&#x155;" horiz-adv-x="741" 
d="M485 1219h-196l164 254h256zM387 0h-233v1085h221v-114h4q33 61 94 98t121 37t106 -21l-36 -227q-61 16 -86 16q-190 0 -191 -270v-604z" />
    <glyph glyph-name="Rcommaaccent" unicode="&#x156;" horiz-adv-x="1306" 
d="M643 -315h-108v215h235v-189q0 -211 -227 -227v88q100 14 100 113zM416 1214v-454h311q264 0 264 227t-264 227h-311zM416 0h-242v1434h571q223 0 357 -119t133 -328q0 -161 -85 -269t-235 -147l310 -571h-269l-290 551h-250v-551z" />
    <glyph glyph-name="rcommaaccent" unicode="&#x157;" horiz-adv-x="741" 
d="M272 -315h-108v215h235v-189q0 -211 -227 -227v88q100 14 100 113zM387 0h-233v1085h221v-114h4q33 61 94 98t121 37t106 -21l-36 -227q-61 16 -86 16q-190 0 -191 -270v-604z" />
    <glyph glyph-name="Rcaron" unicode="&#x158;" horiz-adv-x="1306" 
d="M741 1567h-258l-137 176l123 98l143 -180l142 180l125 -98zM416 1214v-454h311q264 0 264 227t-264 227h-311zM416 0h-242v1434h571q223 0 357 -119t133 -328q0 -161 -85 -269t-235 -147l310 -571h-269l-290 551h-250v-551z" />
    <glyph glyph-name="rcaron" unicode="&#x159;" horiz-adv-x="741" 
d="M530 1217h-258l-137 176l123 98l143 -180l142 180l125 -98zM387 0h-233v1085h221v-114h4q33 61 94 98t121 37t106 -21l-36 -227q-61 16 -86 16q-190 0 -191 -270v-604z" />
    <glyph glyph-name="Sacute" unicode="&#x15a;" horiz-adv-x="1236" 
d="M725 1567h-197l164 254h258zM938 387q0 90 -68 141t-300 122t-331 171t-99 255t126 272q127 116 340 116q212 0 354 -101t173 -292l-236 -57q-31 113 -97 169q-67 56 -185 56t-178 -46t-60 -121q1 -75 67 -116q66 -40 308 -122t333 -178t91 -268q0 -173 -142 -296
q-137 -123 -381 -123t-391 131t-180 383l254 56q31 -188 100 -268q70 -79 212 -79t216 53q74 52 74 142z" />
    <glyph glyph-name="sacute" unicode="&#x15b;" horiz-adv-x="1058" 
d="M629 1219h-197l164 254h256zM547 166q109 0 169 38t60 101t-59 92t-246 82t-273 126t-85 197q-1 124 107 219t292 95q358 0 444 -317l-196 -58q-61 180 -248 181q-84 0 -135 -34t-51 -85t55 -80t258 -85t275 -134t73 -205q0 -127 -108 -228q-107 -101 -327 -101t-338 112
t-142 280l213 52q27 -248 262 -248z" />
    <glyph glyph-name="Scircumflex" unicode="&#x15c;" horiz-adv-x="1236" 
d="M487 1530l-122 98l137 176h258l139 -176l-127 -98l-141 180zM938 387q0 90 -68 141t-300 122t-331 171t-99 255t126 272q127 116 340 116q212 0 354 -101t173 -292l-236 -57q-31 113 -97 169q-67 56 -185 56t-178 -46t-60 -121q1 -75 67 -116q66 -40 308 -122t333 -178
t91 -268q0 -173 -142 -296q-137 -123 -381 -123t-391 131t-180 383l254 56q31 -188 100 -268q70 -79 212 -79t216 53q74 52 74 142z" />
    <glyph glyph-name="scircumflex" unicode="&#x15d;" horiz-adv-x="1058" 
d="M385 1190l-123 98l137 176h258l140 -176l-127 -98l-142 180zM547 166q109 0 169 38t60 101t-59 92t-246 82t-273 126t-85 197q-1 124 107 219t292 95q358 0 444 -317l-196 -58q-61 180 -248 181q-84 0 -135 -34t-51 -85t55 -80t258 -85t275 -134t73 -205
q0 -127 -108 -228q-107 -101 -327 -101t-338 112t-142 280l213 52q27 -248 262 -248z" />
    <glyph glyph-name="Scedilla" unicode="&#x15e;" horiz-adv-x="1236" 
d="M938 387q0 90 -68 141t-300 122t-331 171t-99 255t126 272q127 116 340 116q212 0 354 -101t173 -292l-236 -57q-31 113 -97 169q-67 56 -185 56t-178 -46t-60 -121q1 -75 67 -116q66 -40 308 -122t333 -178t91 -264q0 -169 -124 -287t-343 -134l-58 -90l2 -2
q45 31 114 31t121 -43t52 -123t-62 -133t-163 -53q-146 0 -242 96l80 96q70 -66 149 -65q100 0 101 73q0 29 -27 45q-28 17 -72 17t-83 -25l-13 -6l-90 49l78 133q-223 15 -354 145t-160 367l254 56q31 -188 100 -268q70 -79 212 -79t216 53q74 52 74 142z" />
    <glyph glyph-name="scedilla" unicode="&#x15f;" horiz-adv-x="1058" 
d="M688 -242q0 60 -98 62q-45 0 -84 -25l-12 -6l-91 49l80 135q-182 17 -286 123t-125 266l213 52q27 -248 262 -248q109 0 169 38t60 101t-59 92t-246 82t-273 126t-85 197q-1 124 107 219t292 95q358 0 444 -317l-196 -58q-61 180 -248 181q-84 0 -135 -34t-51 -85t55 -80
t258 -85t275 -134t73 -202q0 -124 -101 -223t-294 -108l-55 -90l2 -2q47 31 115 31t119 -43q52 -43 52 -123t-62 -133t-163 -53q-146 0 -242 96l80 96q70 -66 150 -65q100 0 100 73z" />
    <glyph glyph-name="Scaron" unicode="&#x160;" horiz-adv-x="1236" 
d="M750 1567h-258l-138 176l123 98l144 -180l141 180l125 -98zM938 387q0 90 -68 141t-300 122t-331 171t-99 255t126 272q127 116 340 116q212 0 354 -101t173 -292l-236 -57q-31 113 -97 169q-67 56 -185 56t-178 -46t-60 -121q1 -75 67 -116q66 -40 308 -122t333 -178
t91 -268q0 -173 -142 -296q-137 -123 -381 -123t-391 131t-180 383l254 56q31 -188 100 -268q70 -79 212 -79t216 53q74 52 74 142z" />
    <glyph glyph-name="scaron" unicode="&#x161;" horiz-adv-x="1058" 
d="M641 1217h-258l-137 176l123 98l143 -180l141 180l125 -98zM547 166q109 0 169 38t60 101t-59 92t-246 82t-273 126t-85 197q-1 124 107 219t292 95q358 0 444 -317l-196 -58q-61 180 -248 181q-84 0 -135 -34t-51 -85t55 -80t258 -85t275 -134t73 -205q0 -127 -108 -228
q-107 -101 -327 -101t-338 112t-142 280l213 52q27 -248 262 -248z" />
    <glyph glyph-name="Tcommaaccent" unicode="&#x162;" horiz-adv-x="1157" 
d="M575 -315h-108v215h235v-189q0 -211 -227 -227v88q100 14 100 113zM700 0h-241v1210h-428v224h1095v-224h-426v-1210z" />
    <glyph glyph-name="tcommaaccent" unicode="&#x163;" horiz-adv-x="776" 
d="M301 -315v215h236v-189q-1 -211 -228 -227v88q100 14 101 113h-109zM205 362v523h-164v200h170v267h221v-267h273v-200h-271v-498q0 -92 29 -127t112 -35h87v-225h-105q-193 0 -273 84t-79 278z" />
    <glyph glyph-name="Tcaron" unicode="&#x164;" horiz-adv-x="1157" 
d="M715 1567h-258l-138 176l123 98l144 -180l141 180l125 -98zM700 0h-241v1210h-428v224h1095v-224h-426v-1210z" />
    <glyph glyph-name="tcaron" unicode="&#x165;" horiz-adv-x="776" 
d="M725 1167h-139l63 328h195zM205 362v523h-164v200h170v267h221v-267h273v-200h-271v-498q0 -92 29 -127t112 -35h87v-225h-105q-193 0 -273 84t-79 278z" />
    <glyph glyph-name="Tbar" unicode="&#x166;" horiz-adv-x="1157" 
d="M700 0h-241v610h-307v191h307v409h-428v224h1095v-224h-426v-409h308v-191h-308v-610z" />
    <glyph glyph-name="tbar" unicode="&#x167;" horiz-adv-x="776" 
d="M205 362v117h-164v191h164v215h-164v200h170v267h221v-267h273v-200h-271v-215h271v-191h-271v-92q0 -92 29 -127t112 -35h87v-225h-105q-193 0 -273 84t-79 278z" />
    <glyph glyph-name="Utilde" unicode="&#x168;" horiz-adv-x="1345" 
d="M569 1780q68 0 144 -39t104 -39q59 0 74 67h121q-35 -213 -199 -213q-69 0 -145 39t-103 39q-57 1 -73 -67h-121q35 213 198 213zM143 467v967h242v-955q0 -137 74 -212t214 -75t215 74t75 209v959h239v-967q0 -231 -145 -365t-385 -133t-384 133t-145 365z" />
    <glyph glyph-name="utilde" unicode="&#x169;" horiz-adv-x="1177" 
d="M475 1442q67 0 143 -40t105 -40q59 0 74 70h121q-37 -215 -199 -215q-70 -1 -147 39t-101 40q-60 1 -74 -69h-121q35 215 199 215zM143 383v702h234v-675q0 -121 43 -169t147 -48t164 59q59 59 60 174v659h233v-1085h-225v104h-4q-93 -135 -279 -135q-186 -1 -280 107
t-93 307z" />
    <glyph glyph-name="Umacron" unicode="&#x16a;" horiz-adv-x="1345" 
d="M971 1567h-590v151h590v-151zM143 467v967h242v-955q0 -137 74 -212t214 -75t215 74t75 209v959h239v-967q0 -231 -145 -365t-385 -133t-384 133t-145 365z" />
    <glyph glyph-name="umacron" unicode="&#x16b;" horiz-adv-x="1177" 
d="M879 1270h-590v151h590v-151zM143 383v702h234v-675q0 -121 43 -169t147 -48t164 59q59 59 60 174v659h233v-1085h-225v104h-4q-93 -135 -279 -135q-186 -1 -280 107t-93 307z" />
    <glyph glyph-name="Ubreve" unicode="&#x16c;" horiz-adv-x="1345" 
d="M410 1804h116q6 -47 46 -79q40 -31 104 -31t103 32q38 32 44 78h123q0 -114 -76 -186t-194 -72t-192 72t-74 186zM143 467v967h242v-955q0 -137 74 -212t214 -75t215 74t75 209v959h239v-967q0 -231 -145 -365t-385 -133t-384 133t-145 365z" />
    <glyph glyph-name="ubreve" unicode="&#x16d;" horiz-adv-x="1177" 
d="M322 1456h116q6 -47 46 -79q40 -31 104 -31t103 32q38 32 44 78h123q0 -114 -76 -186t-194 -72t-192 72t-74 186zM143 383v702h234v-675q0 -121 43 -169t147 -48t164 59q59 59 60 174v659h233v-1085h-225v104h-4q-93 -135 -279 -135q-186 -1 -280 107t-93 307z" />
    <glyph glyph-name="Uring" unicode="&#x16e;" horiz-adv-x="1345" 
d="M770 1610q0 50 -26 78t-63 28q-38 0 -63 -28q-24 -28 -24 -78q0 -49 24 -79t62 -30t64 30t26 79zM471 1607q0 91 60 154q61 63 151 63t149 -62t59 -155t-58 -155q-60 -62 -152 -61q-92 0 -151 62q-58 63 -58 154zM143 467v967h242v-955q0 -137 74 -212t214 -75t215 74
t75 209v959h239v-967q0 -231 -145 -365t-385 -133t-384 133t-145 365z" />
    <glyph glyph-name="uring" unicode="&#x16f;" horiz-adv-x="1177" 
d="M672 1288q0 49 -26 78t-63 29q-38 0 -63 -29q-24 -29 -24 -78t24 -79q24 -29 62 -29t64 30t26 78zM583 1069q-93 0 -152 61q-58 62 -58 154t60 156q61 64 151 63q90 0 149 -62q59 -63 59 -157t-58 -154t-151 -61zM143 383v702h234v-675q0 -121 43 -169t147 -48t164 59
q59 59 60 174v659h233v-1085h-225v104h-4q-93 -135 -279 -135q-186 -1 -280 107t-93 307z" />
    <glyph glyph-name="Uhungarumlaut" unicode="&#x170;" horiz-adv-x="1345" 
d="M928 1567h-166l153 235h226zM616 1567h-163l153 235h223zM143 467v967h242v-955q0 -137 74 -212t214 -75t215 74t75 209v959h239v-967q0 -231 -145 -365t-385 -133t-384 133t-145 365z" />
    <glyph glyph-name="uhungarumlaut" unicode="&#x171;" horiz-adv-x="1177" 
d="M821 1251h-166l154 236h225zM510 1251h-164l154 236h223zM143 383v702h234v-675q0 -121 43 -169t147 -48t164 59q59 59 60 174v659h233v-1085h-225v104h-4q-93 -135 -279 -135q-186 -1 -280 107t-93 307z" />
    <glyph glyph-name="Uogonek" unicode="&#x172;" horiz-adv-x="1345" 
d="M676 -442q-86 0 -140 39t-55 112q0 139 158 260q-229 9 -363 143t-133 355v967h242v-955q0 -137 74 -212t214 -75t215 74t75 209v959h239v-967q0 -197 -108 -326t-299 -161q-139 -127 -140 -218q-1 -72 75 -72t144 77l78 -72q-123 -137 -276 -137z" />
    <glyph glyph-name="uogonek" unicode="&#x173;" horiz-adv-x="1177" 
d="M881 -442q-86 0 -141 39q-54 39 -54 115t56 154q56 79 147 134h-90v104h-4q-93 -135 -279 -135t-279 108t-94 306v702h234v-675q0 -121 43 -169t147 -48t164 59q59 59 60 174v659h233v-1085q-164 -141 -164 -238q0 -72 76 -72t143 77l78 -72q-123 -137 -276 -137z" />
    <glyph glyph-name="Wcircumflex" unicode="&#x174;" horiz-adv-x="1843" 
d="M770 1530l-123 98l137 176h258l140 -176l-127 -98l-142 180zM600 0h-254l-274 1434h245l195 -1010h4l340 1010h137l338 -1010h4l195 1010h242l-275 -1434h-252l-323 983h-4z" />
    <glyph glyph-name="wcircumflex" unicode="&#x175;" horiz-adv-x="1644" 
d="M655 1190l-123 98l138 176h258l139 -176l-127 -98l-141 180zM535 0h-224l-239 1085h229l154 -755h4l258 755h211l241 -753h5l174 753h225l-260 -1085h-226l-264 815h-4z" />
    <glyph glyph-name="Ycircumflex" unicode="&#x176;" horiz-adv-x="1196" 
d="M461 1530l-123 98l137 176h258l139 -176l-127 -98l-141 180zM717 0h-238v604l-469 830h258l328 -611h4l330 611h256l-469 -830v-604z" />
    <glyph glyph-name="ycircumflex" unicode="&#x177;" horiz-adv-x="1101" 
d="M418 1190l-123 98l137 176h258l139 -176l-127 -98l-141 180zM463 -461h-225l204 510l-422 1036h246l285 -747h4l285 747h241z" />
    <glyph glyph-name="Ydieresis" unicode="&#x178;" horiz-adv-x="1196" 
d="M920 1567h-228v219h228v-219zM518 1567h-229v219h229v-219zM717 0h-238v604l-469 830h258l328 -611h4l330 611h256l-469 -830v-604z" />
    <glyph glyph-name="Zacute" unicode="&#x179;" horiz-adv-x="1214" 
d="M670 1567h-197l164 254h258zM1116 0h-1024v219l731 979v4h-698v232h997v-220l-735 -981v-4h729v-229z" />
    <glyph glyph-name="zacute" unicode="&#x17a;" horiz-adv-x="1110" 
d="M623 1219h-197l164 254h256zM1018 0h-926v193l613 673v4h-584v215h883v-188l-603 -670v-4h617v-223z" />
    <glyph glyph-name="Zdotaccent" unicode="&#x17b;" horiz-adv-x="1214" 
d="M702 1567h-243v233h243v-233zM1116 0h-1024v219l731 979v4h-698v232h997v-220l-735 -981v-4h729v-229z" />
    <glyph glyph-name="zdotaccent" unicode="&#x17c;" horiz-adv-x="1110" 
d="M672 1227h-244v233h244v-233zM1018 0h-926v193l613 673v4h-584v215h883v-188l-603 -670v-4h617v-223z" />
    <glyph glyph-name="Zcaron" unicode="&#x17d;" horiz-adv-x="1214" 
d="M739 1567h-258l-137 176l123 98l143 -180l142 180l125 -98zM1116 0h-1024v219l731 979v4h-698v232h997v-220l-735 -981v-4h729v-229z" />
    <glyph glyph-name="zcaron" unicode="&#x17e;" horiz-adv-x="1110" 
d="M676 1217h-258l-137 176l122 98l144 -180l141 180l125 -98zM1018 0h-926v193l613 673v4h-584v215h883v-188l-603 -670v-4h617v-223z" />
    <glyph glyph-name="longs" unicode="&#x17f;" horiz-adv-x="638" 
d="M403 0h-227v885h-135v200h139v142q0 135 67 193t202 59h180v-207h-133q-52 0 -72 -20t-21 -78v-1174z" />
    <glyph glyph-name="florin" unicode="&#x192;" horiz-adv-x="1030" 
d="M742 1526q142 0 257 -129l-122 -172q-61 70 -121 69q-94 0 -115 -120l-41 -222h289l-33 -188h-289l-194 -1118h-234l195 1118h-201l33 188h201l49 254q31 164 107 242q77 78 219 78z" />
    <glyph glyph-name="Aringacute" unicode="&#x1fa;" horiz-adv-x="1269" 
d="M648 1716q-38 0 -62 -28t-25 -78q0 -49 25 -79q26 -30 62 -30t63 30t26 79q0 49 -25 78q-26 28 -64 28zM637 1083h-4l-217 -630h436zM438 1608q0 80 49 140t125 73l121 186h258l-207 -233q74 -66 74 -166q0 -145 -117 -197l508 -1411h-239l-86 246h-580l-84 -246h-240
l512 1423q-94 57 -94 185z" />
    <glyph glyph-name="aringacute" unicode="&#x1fb;" horiz-adv-x="1107" 
d="M560 1395q-38 0 -62 -29t-25 -78q0 -49 25 -79q26 -29 62 -29t63 30t26 78q0 49 -25 78q-26 29 -64 29zM307 303q0 -131 178 -131q125 0 195 51t70 131v217h-5q-8 -25 -55 -48t-175 -58t-168 -70t-40 -92zM975 0h-199v109h-4q-18 -29 -91 -84t-237 -55t-263 87
q-99 89 -99 229t83 215t273 122t248 75q55 31 55 88q0 58 -51 94t-152 36q-102 0 -156 -49q-54 -48 -81 -142l-199 76q31 121 116 201t216 106q-84 61 -84 178q0 78 47 137t121 76l121 187h256l-203 -230q78 -66 78 -182t-94 -172q299 -68 299 -400v-702z" />
    <glyph glyph-name="AEacute" unicode="&#x1fc;" horiz-adv-x="1777" 
d="M903 1567h-196l163 254h258zM829 481v729h-129l-266 -729h395zM1645 1434v-224h-574v-368h516v-209h-516v-410h574v-223h-816v268h-471l-100 -268h-248l539 1434h1096z" />
    <glyph glyph-name="aeacute" unicode="&#x1fd;" horiz-adv-x="1828" 
d="M655 1219h-196l164 254h256zM989 649h531q-8 119 -78 190t-187 71t-189 -76t-77 -185zM307 303q0 -131 178 -131q125 0 195 51t70 131v217h-5q-8 -25 -55 -48t-174 -57t-168 -71t-41 -92zM1266 -31q-246 0 -392 185h-4q-111 -184 -383 -185q-197 0 -301 89
q-104 88 -104 226t82 215t270 121t248 76q59 35 59 91q0 57 -50 93t-148 35q-190 0 -242 -192l-199 78q31 139 148 227t287 88q250 0 362 -149h4q143 149 355 149t350 -156t139 -417v-70h-758q4 -137 76 -217t198 -80t199 80q57 68 86 127l183 -121q-139 -293 -465 -293z
" />
    <glyph glyph-name="Oslashacute" unicode="&#x1fe;" horiz-adv-x="1417" 
d="M700 1239q-158 0 -262 -130t-104 -376t86 -383l471 828q-86 61 -191 61zM700 193q168 0 267 134q98 133 98 377t-90 377l-471 -827q82 -61 196 -61zM82 729q0 348 181 542t437 193q166 0 304 -88l51 88l102 -63l-55 -98q213 -207 213 -590t-191 -574q-172 -170 -424 -170
q-170 0 -311 80l-47 -80l-104 62l53 94q-209 199 -209 604zM834 1567h-197l164 254h256z" />
    <glyph glyph-name="oslashacute" unicode="&#x1ff;" horiz-adv-x="1167" 
d="M303 564q0 -148 41 -236l397 512q-72 66 -166 65q-123 0 -197 -96q-74 -97 -75 -245zM846 521q0 149 -45 233l-398 -510q63 -64 179 -64t190 96t74 245zM72 551q0 256 145 412q147 154 358 153q170 0 302 -104l77 102l78 -65l-84 -107q127 -158 127 -414t-140 -408
q-140 -151 -360 -151q-180 0 -307 101l-75 -99l-78 64l84 104q-127 156 -127 412zM688 1219h-196l163 254h256z" />
    <glyph glyph-name="Scommaaccent" unicode="&#x218;" horiz-adv-x="1236" 
d="M561 -315v215h236v-189q-1 -211 -228 -227v88q100 14 101 113h-109zM938 387q0 90 -68 141t-300 122t-331 171t-99 255t126 272q127 116 340 116q212 0 354 -101t173 -292l-236 -57q-31 113 -97 169q-67 56 -185 56t-178 -46t-60 -121q1 -75 67 -116q66 -40 308 -122
t333 -178t91 -268q0 -173 -142 -296q-137 -123 -381 -123t-391 131t-180 383l254 56q31 -188 100 -268q70 -79 212 -79t216 53q74 52 74 142z" />
    <glyph glyph-name="scommaaccent" unicode="&#x219;" horiz-adv-x="1058" 
d="M432 -315v215h236v-189q-1 -211 -228 -227v88q100 14 101 113h-109zM547 166q109 0 169 38t60 101t-59 92t-246 82t-273 126t-85 197q-1 124 107 219t292 95q358 0 444 -317l-196 -58q-61 180 -248 181q-84 0 -135 -34t-51 -85t55 -80t258 -85t275 -134t73 -205
q0 -127 -108 -228q-107 -101 -327 -101t-338 112t-142 280l213 52q27 -248 262 -248z" />
    <glyph glyph-name="dotlessj" unicode="&#x237;" horiz-adv-x="534" 
d="M129 -399h-98v243h45q82 0 82 99v1142h233v-1200q0 -284 -262 -284z" />
    <glyph glyph-name="circumflex" unicode="&#x2c6;" horiz-adv-x="636" 
d="M174 1190l-123 98l137 176h258l140 -176l-127 -98l-142 180z" />
    <glyph glyph-name="caron" unicode="&#x2c7;" horiz-adv-x="634" 
d="M446 1217h-258l-137 176l123 98l143 -180l142 180l125 -98z" />
    <glyph glyph-name="breve" unicode="&#x2d8;" horiz-adv-x="679" 
d="M72 1456h116q6 -47 46 -79q40 -31 104 -31t103 32q38 32 44 78h123q0 -114 -76 -186t-194 -72t-192 72t-74 186z" />
    <glyph glyph-name="dotaccent" unicode="&#x2d9;" horiz-adv-x="550" 
d="M397 1227h-243v233h243v-233z" />
    <glyph glyph-name="ring" unicode="&#x2da;" horiz-adv-x="604" 
d="M302 1395q-38 0 -62 -29t-25 -78q0 -49 25 -79q26 -29 62 -29t63 30t26 78q0 49 -25 78q-26 29 -64 29zM302 1069q-93 0 -151 61q-59 62 -59 154t60 156t151 63q89 0 149 -62q60 -63 60 -157t-58 -155q-59 -60 -152 -60z" />
    <glyph glyph-name="ogonek" unicode="&#x2db;" horiz-adv-x="573" 
d="M246 -442q-86 0 -141 39q-54 39 -54 115q1 76 57 154q56 79 146 134h135q-164 -141 -164 -238q-1 -72 75 -72t144 77l78 -72q-123 -137 -276 -137z" />
    <glyph glyph-name="tilde" unicode="&#x2dc;" horiz-adv-x="825" 
d="M291 1442q67 0 143 -40t105 -40q59 0 73 70h121q-37 -215 -198 -215q-70 -1 -147 39t-101 40q-60 1 -74 -69h-121q35 215 199 215z" />
    <glyph glyph-name="hungarumlaut" unicode="&#x2dd;" horiz-adv-x="995" 
d="M629 1219h-166l153 235h226zM317 1219h-163l153 235h223z" />
    <glyph glyph-name="uni0312" unicode="&#x312;" horiz-adv-x="575" 
d="M303 1434h98v-224h-227v191q0 205 215 219v-76q-86 -16 -86 -110z" />
    <glyph glyph-name="pi" unicode="&#x3c0;" horiz-adv-x="1462" 
d="M154 1214v220h1175v-220h-158v-909q0 -190 27 -305h-221q-35 63 -35 293v921h-338q0 -258 -49 -560t-98 -480l-49 -174h-230l55 193q33 119 87 441t55 580h-221z" />
    <glyph glyph-name="Wgrave" unicode="&#x1e80;" horiz-adv-x="1843" 
d="M1001 1567h-196l-223 254h256zM600 0h-254l-274 1434h245l195 -1010h4l340 1010h137l338 -1010h4l195 1010h242l-275 -1434h-252l-323 983h-4z" />
    <glyph glyph-name="wgrave" unicode="&#x1e81;" horiz-adv-x="1644" 
d="M907 1219h-196l-224 254h256zM535 0h-224l-239 1085h229l154 -755h4l258 755h211l241 -753h5l174 753h225l-260 -1085h-226l-264 815h-4z" />
    <glyph glyph-name="Wacute" unicode="&#x1e82;" horiz-adv-x="1843" 
d="M1008 1567h-197l164 254h258zM600 0h-254l-274 1434h245l195 -1010h4l340 1010h137l338 -1010h4l195 1010h242l-275 -1434h-252l-323 983h-4z" />
    <glyph glyph-name="wacute" unicode="&#x1e83;" horiz-adv-x="1644" 
d="M903 1219h-196l163 254h256zM535 0h-224l-239 1085h229l154 -755h4l258 755h211l241 -753h5l174 753h225l-260 -1085h-226l-264 815h-4z" />
    <glyph glyph-name="Wdieresis" unicode="&#x1e84;" horiz-adv-x="1843" 
d="M1219 1567h-228v219h228v-219zM817 1567h-229v219h229v-219zM600 0h-254l-274 1434h245l195 -1010h4l340 1010h137l338 -1010h4l195 1010h242l-275 -1434h-252l-323 983h-4z" />
    <glyph glyph-name="wdieresis" unicode="&#x1e85;" horiz-adv-x="1644" 
d="M1110 1229h-227v219h227v-219zM709 1229h-230v219h230v-219zM535 0h-224l-239 1085h229l154 -755h4l258 755h211l241 -753h5l174 753h225l-260 -1085h-226l-264 815h-4z" />
    <glyph glyph-name="Ygrave" unicode="&#x1ef2;" horiz-adv-x="1196" 
d="M723 1567h-197l-223 254h256zM717 0h-238v604l-469 830h258l328 -611h4l330 611h256l-469 -830v-604z" />
    <glyph glyph-name="ygrave" unicode="&#x1ef3;" horiz-adv-x="1101" 
d="M659 1219h-196l-223 254h256zM463 -461h-225l204 510l-422 1036h246l285 -747h4l285 747h241z" />
    <glyph glyph-name="endash" unicode="&#x2013;" horiz-adv-x="1206" 
d="M1114 573h-1022v201h1022v-201z" />
    <glyph glyph-name="emdash" unicode="&#x2014;" horiz-adv-x="2004" 
d="M1810 573h-1615v201h1615v-201z" />
    <glyph glyph-name="quoteleft" unicode="&#x2018;" horiz-adv-x="632" 
d="M154 1434h284v-273h-100q0 -65 20 -93t80 -38v-125q-285 20 -284 289v240z" />
    <glyph glyph-name="quoteright" unicode="&#x2019;" horiz-adv-x="632" 
d="M274 1161h-100v273h285v-240q0 -269 -285 -289v125q61 10 81 38q19 28 19 93z" />
    <glyph glyph-name="quotesinglbase" unicode="&#x201a;" horiz-adv-x="632" 
d="M264 0h-100v272h285v-239q0 -269 -285 -289v125q61 10 81 38q19 28 19 93z" />
    <glyph glyph-name="quotedblleft" unicode="&#x201c;" horiz-adv-x="1042" 
d="M563 1194v240h285v-273h-100q0 -65 20 -93t80 -38v-125q-285 20 -285 289zM154 1434h284v-273h-100q0 -65 20 -93t80 -38v-125q-285 20 -284 289v240z" />
    <glyph glyph-name="quotedblright" unicode="&#x201d;" horiz-adv-x="1042" 
d="M573 1161v273h285v-240q0 -269 -285 -289v125q61 10 81 38q19 28 20 93h-101zM264 1161h-100v273h285v-240q0 -269 -285 -289v125q61 10 81 38q19 28 19 93z" />
    <glyph glyph-name="quotedblbase" unicode="&#x201e;" horiz-adv-x="1042" 
d="M274 0h-100v272h285v-239q0 -269 -285 -289v125q61 10 81 38q19 28 19 93zM684 0h-100v272h284v-239q1 -269 -284 -289v125q61 10 81 38q19 28 19 93z" />
    <glyph glyph-name="dagger" unicode="&#x2020;" horiz-adv-x="1292" 
d="M752 -461h-211v1286h-449v201h449v469h211v-469h448v-201h-448v-1286z" />
    <glyph glyph-name="daggerdbl" unicode="&#x2021;" horiz-adv-x="1292" 
d="M752 -461h-211v461h-449v197h449v632h-449v197h449v469h211v-469h448v-197h-448v-632h448v-197h-448v-461z" />
    <glyph glyph-name="bullet" unicode="&#x2022;" horiz-adv-x="661" 
d="M102 692q0 102 62 167t166 65q102 0 166 -66t63 -167q0 -101 -63 -166q-64 -65 -166 -65t-165 66q-63 64 -63 166z" />
    <glyph glyph-name="ellipsis" unicode="&#x2026;" horiz-adv-x="1789" 
d="M1616 0h-283v272h283v-272zM1038 0h-282v272h282v-272zM459 0h-285v272h285v-272z" />
    <glyph glyph-name="perthousand" unicode="&#x2030;" horiz-adv-x="2740" 
d="M528 -154l-135 80l1002 1669l133 -82zM1108 398q0 200 101 303t237 103t238 -106t102 -298t-96 -308t-248 -117q-150 0 -242 112q-92 111 -92 311zM1610 399q0 236 -163 236t-163 -236q0 -121 42 -189t120 -69q78 1 121 69t43 189zM468 629q-150 -1 -243 111
q-92 112 -92 312t101 303q102 103 238 103t238 -106t101 -298t-97 -308t-246 -117zM635 1053q0 236 -164 235q-162 0 -162 -235q0 -121 42 -190t120 -69t121 70q43 68 43 189zM1929 398q1 200 101 303t237 103t239 -106t101 -298q1 -192 -97 -308t-248 -117q-150 0 -241 112
q-92 111 -92 311zM2267 141q78 0 121 69t43 189q0 236 -162 236t-162 -236q0 -121 41 -189t119 -69z" />
    <glyph glyph-name="guilsinglleft" unicode="&#x2039;" horiz-adv-x="770" 
d="M616 174h-204l-238 401l223 381h205l-223 -381z" />
    <glyph glyph-name="guilsinglright" unicode="&#x203a;" horiz-adv-x="770" 
d="M362 956l224 -381l-238 -401h-205l238 401l-223 381h204z" />
    <glyph glyph-name="fraction" unicode="&#x2044;" horiz-adv-x="663" 
d="M-100 -154l-136 80l1002 1669l133 -82z" />
    <glyph glyph-name="zerosuperior" unicode="&#x2070;" horiz-adv-x="784" 
d="M391 1118q82 0 120 68t38 222t-38 219t-120 65t-120 -65t-38 -219t38 -222t120 -68zM61 1409q-1 219 89 332t242 113t241 -114q90 -112 90 -331t-88 -335t-244 -116t-243 116t-87 335z" />
    <glyph glyph-name="foursuperior" unicode="&#x2074;" horiz-adv-x="778" 
d="M442 1296v398h-4l-241 -398h245zM440 1143h-399v153l332 547h235v-547h99v-153h-99v-174h-168v174z" />
    <glyph glyph-name="fivesuperior" unicode="&#x2075;" horiz-adv-x="772" 
d="M389 1112q72 0 116 42t44 115t-44 115t-112 43q-113 0 -178 -90l-127 64l78 442h461v-153h-338l-35 -199l4 -2q14 25 61 47t115 20q115 0 196 -82t81 -214q0 -134 -91 -218t-231 -84q-246 1 -328 228l152 71q43 -145 176 -145z" />
    <glyph glyph-name="sixsuperior" unicode="&#x2076;" horiz-adv-x="784" 
d="M723 1254q0 -134 -88 -216q-90 -80 -215 -80q-164 0 -261 114t-97 314t96 334q96 133 260 133q114 0 186 -60t92 -161l-151 -39q-27 113 -137 113q-78 0 -126 -72t-51 -184h5q22 39 78 68t135 28q115 0 195 -79t79 -213zM420 1116q147 0 147 154q0 68 -41 108
q-42 40 -112 41q-70 0 -112 -44q-42 -45 -42 -111t43 -107t117 -41z" />
    <glyph glyph-name="sevensuperior" unicode="&#x2077;" horiz-adv-x="626" 
d="M0 1690v153h596v-180l-369 -694h-194l401 717l-2 4h-432z" />
    <glyph glyph-name="eightsuperior" unicode="&#x2078;" horiz-adv-x="704" 
d="M201 1241q1 -129 151 -129t150 129q0 61 -41 99t-110 38t-109 -38t-41 -99zM78 1624q0 96 78 163t196 67t197 -68q80 -66 80 -162q0 -121 -115 -174v-4q150 -57 150 -223q0 -121 -87 -193t-225 -72t-225 72q-86 72 -86 193q0 168 152 223v4q-115 49 -115 174zM350 1714
q-55 0 -86 -30t-31 -75q0 -46 31 -74t86 -28t87 29t32 73q0 45 -32 75t-87 30z" />
    <glyph glyph-name="ninesuperior" unicode="&#x2079;" horiz-adv-x="770" 
d="M361 1704q-69 0 -111 -43t-41 -109q0 -66 42 -106t113 -41q70 0 110 36q40 35 40 105t-42 114t-111 44zM387 1108q76 0 118 62t36 186h-4q-13 -35 -67 -66t-134 -30q-111 0 -199 79q-86 82 -86 215t87 216t225 83t237 -112q98 -115 98 -337t-83 -334t-236 -112
q-244 0 -299 211l149 56q35 -117 158 -117z" />
    <glyph glyph-name="plussuperior" unicode="&#x207a;" horiz-adv-x="872" 
d="M510 1059h-145v303h-273v139h273v275h145v-275h270v-139h-270v-303z" />
    <glyph glyph-name="minussuperior" unicode="&#x207b;" horiz-adv-x="811" 
d="M719 1501v-139h-627v139h627z" />
    <glyph glyph-name="zeroinferior" unicode="&#x2080;" horiz-adv-x="784" 
d="M391 -260q82 0 120 68t38 222t-38 219t-120 65t-120 -66q-38 -64 -38 -218t38 -222t120 -68zM61 31q-1 219 89 331t242 113q152 0 241 -113q90 -114 90 -332t-88 -334t-244 -116t-243 116t-87 335z" />
    <glyph glyph-name="oneinferior" unicode="&#x2081;" horiz-adv-x="536" 
d="M383 -410h-164v682l-188 -116v184l200 125h152v-875z" />
    <glyph glyph-name="twoinferior" unicode="&#x2082;" horiz-adv-x="718" 
d="M668 -410h-607v127q-1 111 51 175t190 132t169 104t31 85t-37 81t-96 32q-139 0 -158 -166l-160 20q10 141 94 218q85 77 219 77t216 -73t82 -182t-58 -175t-172 -119q-150 -78 -168 -104t-18 -62h422v-170z" />
    <glyph glyph-name="threeinferior" unicode="&#x2083;" horiz-adv-x="776" 
d="M365 -270q73 0 113 32t40 93q0 125 -147 125h-68v131h49q123 0 123 102q0 113 -119 113q-106 0 -129 -129l-155 28q12 117 90 184t198 67t197 -66q76 -64 76 -170q0 -62 -33 -110t-74 -64v-5q60 -16 104 -72t44 -159q0 -102 -83 -176t-225 -74t-230 76q-87 76 -105 221
l162 37q25 -184 172 -184z" />
    <glyph glyph-name="fourinferior" unicode="&#x2084;" horiz-adv-x="778" 
d="M442 -82v397h-4l-241 -397h245zM440 -236h-399v154l332 547h235v-547h99v-154h-99v-174h-168v174z" />
    <glyph glyph-name="fiveinferior" unicode="&#x2085;" horiz-adv-x="772" 
d="M389 -266q72 0 116 42t44 114t-44 116q-44 43 -112 43q-113 0 -178 -90l-127 64l78 442h461v-154h-338l-35 -198l4 -2q14 25 61 47t115 20q115 0 196 -82t81 -215t-91 -217t-231 -84q-246 0 -328 227l152 72q43 -145 176 -145z" />
    <glyph glyph-name="sixinferior" unicode="&#x2086;" horiz-adv-x="784" 
d="M449 166q115 0 195 -79t79 -213q0 -134 -88 -215t-215 -81q-164 0 -261 114t-97 314t96 334t260 133q114 0 186 -60t92 -161l-151 -39q-27 113 -137 113q-78 0 -126 -72t-51 -184h5q22 40 78 68t135 28zM420 -264q147 0 147 153q0 68 -41 109q-42 41 -112 41t-112 -44
t-42 -111q0 -68 43 -108t117 -40z" />
    <glyph glyph-name="seveninferior" unicode="&#x2087;" horiz-adv-x="626" 
d="M0 311v154h596v-180l-369 -695h-194l401 717l-2 4h-432z" />
    <glyph glyph-name="eightinferior" unicode="&#x2088;" horiz-adv-x="704" 
d="M201 -137q1 -129 151 -129t150 129q0 61 -41 99t-110 38t-109 -38t-41 -99zM78 246q0 96 78 163t196 67t197 -66q80 -65 80 -175t-115 -163v-4q150 -57 150 -224q0 -120 -87 -192t-225 -72t-225 72q-86 72 -86 192q0 169 152 224v4q-115 49 -115 174zM233 230
q0 -46 31 -74t86 -27q55 0 87 29q32 28 32 72t-32 75t-87 31t-86 -30t-31 -76z" />
    <glyph glyph-name="nineinferior" unicode="&#x2089;" horiz-adv-x="770" 
d="M361 326q-69 0 -111 -43t-41 -109q0 -66 42 -106t113 -41q70 -1 110 35t40 106t-42 114t-111 44zM320 -119q-96 0 -182 81q-87 81 -87 214t87 216t225 83q139 0 237 -113t98 -336q0 -222 -83 -334t-236 -112q-244 0 -299 211l149 55q33 -117 158 -116q76 0 118 62t36 185
h-4q-13 -35 -67 -65t-150 -31z" />
    <glyph glyph-name="Euro" unicode="&#x20ac;" horiz-adv-x="1570" 
d="M133 463v170h141q-2 20 -2 96v53h-139v170h162q55 246 219 379q168 133 383 133t368 -139t181 -371l-242 -36q-14 137 -93 234t-212 97t-228 -78t-130 -219h381v-170h-408v-57q0 -14 4 -92h404v-170h-373q37 -133 129 -206t224 -73t215 102t95 273l246 -49
q-26 -240 -176 -390t-383 -151q-233 0 -389 126t-211 368h-166z" />
    <glyph glyph-name="trademark" unicode="&#x2122;" horiz-adv-x="1552" 
d="M864 739h-141v695h160l221 -494h4l219 494h164v-695h-143v435h-5l-190 -435h-94l-191 424h-4v-424zM432 739h-147v555h-193v140h529v-140h-189v-555z" />
    <glyph glyph-name="Omega" unicode="&#x2126;" horiz-adv-x="1409" 
d="M633 0h-514v184h188q-195 207 -195 557q0 351 169 537q168 186 423 186q256 0 424 -187t168 -537t-196 -556h190v-184h-514v168q127 27 202 166t75 389t-92 380t-254 130t-256 -131q-95 -131 -95 -380t75 -388t202 -166v-168z" />
    <glyph glyph-name="onethird" unicode="&#x2153;" horiz-adv-x="1744" 
d="M1487 264q0 125 -148 125h-67v131h49q123 0 123 103q0 113 -114 113t-134 -130l-156 29q12 117 90 183t199 67q121 0 197 -65t76 -171q0 -63 -33 -110t-74 -64v-4q59 -17 103 -73t44 -158t-82 -177q-82 -73 -226 -73q-142 0 -230 76t-105 221l162 37q25 -184 172 -185
q72 0 113 33t41 92zM393 559h-164v682l-188 -117v185l201 125h151v-875zM383 -154l-135 80l1001 1669l133 -82z" />
    <glyph glyph-name="twothirds" unicode="&#x2154;" horiz-adv-x="1939" 
d="M1681 268q0 125 -147 125h-68v131h50q123 0 122 103q0 113 -118 112q-106 0 -129 -129l-156 29q12 117 90 183t199 67q120 0 196 -65t76 -171q0 -63 -33 -110t-73 -64v-4q59 -17 103 -73t44 -158t-83 -176t-225 -74t-230 76q-87 76 -105 221l162 37q25 -184 172 -185
q72 0 112 33t41 92zM647 559h-606v127q0 111 51 174q52 63 190 132t168 105t31 86q0 50 -37 81t-96 30q-139 0 -158 -166l-159 21q10 141 94 218t218 77t216 -73t82 -182t-58 -175t-171 -119q-150 -76 -172 -111q-14 -20 -15 -55h422v-170zM592 -154l-135 80l1001 1669
l133 -82z" />
    <glyph glyph-name="onefifth" unicode="&#x2155;" horiz-adv-x="1742" 
d="M1530 300q0 73 -44 116t-112 43q-113 0 -178 -90l-127 63l78 442h461v-153h-338l-35 -199l4 -2q14 24 61 46t115 22q115 0 196 -82t81 -215t-91 -217t-231 -84q-244 0 -328 227l152 72q43 -145 176 -146q72 0 116 42t44 115zM393 559h-164v682l-188 -117v185l201 125h151
v-875zM383 -154l-135 80l1001 1669l133 -82z" />
    <glyph glyph-name="twofifths" unicode="&#x2156;" horiz-adv-x="1953" 
d="M1741 300q0 73 -44 116t-112 43q-113 0 -178 -90l-127 63l78 442h461v-153h-338l-35 -199l4 -2q14 24 61 46t115 22q115 0 196 -82t81 -215q1 -133 -91 -217t-231 -84q-246 0 -328 227l152 72q43 -145 176 -146q72 0 116 42t44 115zM647 559h-606v127q0 111 51 174
q52 63 190 132t168 105t31 86q0 50 -37 81t-96 30q-139 0 -158 -166l-159 21q10 141 94 218t218 77t216 -73t82 -182t-58 -175t-171 -119q-150 -76 -172 -111q-14 -20 -15 -55h422v-170zM592 -154l-135 80l1001 1669l133 -82z" />
    <glyph glyph-name="threefifths" unicode="&#x2157;" horiz-adv-x="1937" 
d="M1724 300q0 73 -44 116t-111 43q-113 0 -178 -90l-127 63l77 442h461v-153h-338l-34 -199l4 -2q14 24 61 46t115 22q116 0 196 -82t80 -215t-91 -217t-230 -84q-246 0 -328 227l152 72q43 -145 176 -146q71 0 115 42t44 115zM549 823q0 125 -148 125h-67v131h49
q123 0 123 103q0 112 -114 112t-134 -129l-156 29q12 118 90 184t200 66q120 0 196 -65t76 -171q0 -63 -33 -110t-74 -64v-4q59 -16 103 -72t44 -160q0 -102 -82 -176q-84 -74 -226 -73q-142 0 -230 76t-105 221l162 37q25 -184 172 -185q72 0 113 33t41 92zM551 -154
l-135 80l1001 1669l133 -82z" />
    <glyph glyph-name="fourfifths" unicode="&#x2158;" horiz-adv-x="1947" 
d="M1735 300q0 73 -44 116t-112 43q-113 0 -178 -90l-127 63l78 442h460v-153h-337l-35 -199l4 -2q14 24 61 46t115 22q115 0 196 -82q80 -82 80 -215t-91 -217t-230 -84q-244 0 -328 227l152 72q43 -145 176 -146q72 0 116 42t44 115zM453 887v397h-4l-242 -397h246z
M451 733h-400v154l332 547h235v-547h99v-154h-99v-174h-167v174zM565 -154l-135 80l1002 1669l133 -82z" />
    <glyph glyph-name="onesixth" unicode="&#x2159;" horiz-adv-x="1736" 
d="M1411 578q115 0 195 -79t80 -213t-89 -216q-90 -80 -215 -80q-164 0 -261 114t-97 314t96 334t260 133q115 -1 187 -61t92 -160l-152 -39q-27 113 -137 112q-78 1 -126 -71t-50 -185h4q23 39 79 68t134 29zM1382 147q147 0 148 154q0 68 -41 109t-112 41t-113 -44
t-41 -111t43 -108t116 -41zM393 559h-164v682l-188 -117v185l201 125h151v-875zM383 -154l-135 80l1001 1669l133 -82z" />
    <glyph glyph-name="fivesixths" unicode="&#x215a;" horiz-adv-x="1906" 
d="M1571 578q115 0 195 -79t79 -213q0 -134 -88 -216q-90 -80 -215 -80q-164 0 -261 114t-97 314t96 334t260 133q114 -1 186 -61t93 -160l-152 -39q-27 113 -137 112q-78 1 -126 -71t-50 -185h4q23 39 79 68t134 29zM1542 147q147 0 148 154q0 68 -41 109t-112 41t-113 -44
t-42 -111t43 -108t117 -41zM559 859q0 73 -44 116t-112 43q-113 0 -178 -90l-127 63l78 443h461v-154h-338l-35 -199l4 -2q14 25 62 47t114 21q115 0 196 -82t81 -215t-91 -217t-231 -84q-243 0 -327 227l151 72q43 -145 176 -146q72 0 116 42t44 115zM535 -154l-136 80
l1002 1669l133 -82z" />
    <glyph glyph-name="oneeighth" unicode="&#x215b;" horiz-adv-x="1708" 
d="M1057 272q1 -129 151 -129t150 129q0 62 -41 100t-110 38t-109 -38t-41 -100zM934 655q0 96 78 163t196 67t197 -68q80 -63 80 -173t-115 -163v-4q150 -57 150 -223q0 -121 -87 -193q-87 -71 -225 -71t-225 72q-86 72 -86 192q0 168 152 223v4q-115 49 -115 174z
M1090 640q0 -46 30 -74t86 -28q55 0 87 30q32 28 32 72t-32 75t-87 31t-86 -30q-30 -30 -30 -76zM393 559h-164v682l-188 -117v185l201 125h151v-875zM383 -154l-135 80l1001 1669l133 -82z" />
    <glyph glyph-name="threeeighths" unicode="&#x215c;" horiz-adv-x="1927" 
d="M1276 272q0 -129 150 -129t151 129q0 62 -41 100t-110 38q-70 0 -110 -38t-40 -100zM1153 655q0 96 77 163q78 67 196 67t198 -68q80 -63 80 -173t-115 -163v-4q150 -57 150 -223q0 -121 -87 -193q-88 -71 -226 -71t-224 72t-86 192q0 168 152 223v4q-115 49 -115 174z
M1309 640q1 -46 31 -74t85 -28t87 30q32 28 32 72t-32 75t-87 31t-86 -30q-30 -30 -30 -76zM549 823q0 125 -148 125h-67v131h49q123 0 123 103q0 112 -114 112t-134 -129l-156 29q12 118 90 184t200 66q120 0 196 -65t76 -171q0 -63 -33 -110t-74 -64v-4q59 -16 103 -72
t44 -160q0 -102 -82 -176q-84 -74 -226 -73q-142 0 -230 76t-105 221l162 37q25 -184 172 -185q72 0 113 33t41 92zM551 -154l-135 80l1001 1669l133 -82z" />
    <glyph glyph-name="fiveeighths" unicode="&#x215d;" horiz-adv-x="1898" 
d="M1247 272q0 -129 151 -129t150 129q0 62 -41 100t-109 38t-110 -38q-41 -38 -41 -100zM1124 655q0 96 78 163t196 67t197 -68q80 -63 80 -173t-114 -163v-4q150 -57 149 -223q0 -121 -87 -193q-87 -71 -225 -71t-224 72t-87 192q0 168 152 223v4q-115 49 -115 174z
M1280 640q0 -46 31 -74t86 -28t87 30q32 28 32 72t-32 75t-87 31t-86 -30t-31 -76zM559 859q0 73 -44 116t-112 43q-113 0 -178 -90l-127 63l78 443h461v-154h-338l-35 -199l4 -2q14 25 62 47t114 21q115 0 196 -82t81 -215t-91 -217t-231 -84q-243 0 -327 227l151 72
q43 -145 176 -146q72 0 116 42t44 115zM535 -154l-136 80l1002 1669l133 -82z" />
    <glyph glyph-name="seveneighths" unicode="&#x215e;" horiz-adv-x="1775" 
d="M1124 272q0 -129 151 -129t150 129q0 62 -41 100q-42 38 -110 38t-109 -38t-41 -100zM1001 655q0 96 77 163t196 67t199 -68q80 -63 79 -162q0 -121 -114 -174v-4q150 -57 149 -223q0 -121 -87 -193q-87 -71 -225 -71t-224 72t-86 192q-1 168 151 223v4q-115 49 -115 174
zM1157 640q0 -46 31 -74t86 -28t87 30q32 28 32 72t-32 75t-87 31t-86 -30t-31 -76zM31 1280v154h596v-181l-369 -694h-195l402 717l-2 4h-432zM406 -154l-136 80l1002 1669l133 -82z" />
    <glyph glyph-name="leftwardsarrow" unicode="&#x2190;" horiz-adv-x="1423" 
d="M1290 815v-207h-946l256 -418l-180 -108l-379 627l377 624l182 -108l-256 -410h946z" />
    <glyph glyph-name="upwardsarrow" unicode="&#x2191;" horiz-adv-x="1374" 
d="M793 80h-209v952l-414 -262l-109 182l627 379l625 -379l-107 -182l-415 262v-477q2 -211 2 -475z" />
    <glyph glyph-name="rightwordsarrow" unicode="&#x2192;" horiz-adv-x="1423" 
d="M113 608v207h946l-256 410l182 108l377 -624l-379 -627l-180 108l256 418h-946z" />
    <glyph glyph-name="downwardsarrow" unicode="&#x2193;" horiz-adv-x="1374" 
d="M573 1331h209q0 -266 -2 -477v-475l416 262l107 -182l-625 -379l-627 379l109 182l413 -262v952z" />
    <glyph glyph-name="leftrightarrow" unicode="&#x2194;" horiz-adv-x="1705" 
d="M1090 193l258 415h-988l256 -415l-178 -107l-377 623l375 620l180 -108l-256 -406h986l-256 406l180 108l375 -620l-377 -623z" />
    <glyph glyph-name="updownarrow" unicode="&#x2195;" horiz-adv-x="1376" 
d="M688 -92l-627 379l109 182l414 -260v987l-414 -262l-109 184l627 377l627 -377l-107 -184l-413 262v-987l413 260l107 -182z" />
    <glyph glyph-name="northwestarrow" unicode="&#x2196;" horiz-adv-x="1271" 
d="M528 1014l672 -674l-147 -150l-674 678l-109 -477l-198 47l172 713l708 172l47 -201z" />
    <glyph glyph-name="northeastarrow" unicode="&#x2197;" horiz-adv-x="1271" 
d="M883 868l-674 -678l-148 150l672 674l-471 108l47 201l709 -172l172 -713l-199 -47z" />
    <glyph glyph-name="southeastarrow" unicode="&#x2198;" horiz-adv-x="1271" 
d="M733 395l-672 674l148 150l674 -678l108 477l199 -47l-172 -713l-709 -172l-47 201z" />
    <glyph glyph-name="southwestarrow" unicode="&#x2199;" horiz-adv-x="1271" 
d="M379 541l674 678l147 -150l-672 -674l471 -108l-47 -201l-708 172l-172 713l198 47z" />
    <glyph glyph-name="downwardsarrowwithtiprightwards" unicode="&#x21b3;" horiz-adv-x="1425" 
d="M113 606v828h221v-617h727l-256 408l180 108l379 -624l-381 -627l-180 108l256 416h-946z" />
    <glyph glyph-name="downwardsarrowwithtipleftwards" unicode="&#x21b5;" horiz-adv-x="1425" 
d="M1122 1434h221v-828h-946l256 -416l-180 -108l-381 627l379 624l180 -108l-256 -408h727v617z" />
    <glyph glyph-name="partialdiff" unicode="&#x2202;" horiz-adv-x="1181" 
d="M565 190q246 0 283 547q-160 80 -272 80t-168 -57q-96 -96 -97 -295q1 -133 65 -204t189 -71zM596 1614q168 0 281 -113q203 -203 202 -670q0 -381 -131 -622q-133 -240 -387 -240q-213 0 -344 131t-133 370q-2 238 113 394t340 160q137 2 321 -80q-2 215 -71 342
t-197 127q-95 0 -242 -98l-100 166l96 59q29 16 108 45t144 29z" />
    <glyph glyph-name="increment" unicode="&#x2206;" horiz-adv-x="1312" 
d="M657 1096l-282 -867h563zM1272 0h-1231l502 1434h229z" />
    <glyph glyph-name="product" unicode="&#x220f;" horiz-adv-x="1370" 
d="M524 -289h-217v1405h-235v215h1226v-215h-233v-1405h-217v1405h-324v-1405z" />
    <glyph glyph-name="summation" unicode="&#x2211;" horiz-adv-x="1196" 
d="M1104 -205h-991v203l491 637l-471 594v205h971v-232h-658l435 -565l-461 -612h684v-230z" />
    <glyph glyph-name="minus" unicode="&#x2212;" horiz-adv-x="1253" 
d="M1161 664h-1069v184h1069v-184z" />
    <glyph glyph-name="radical" unicode="&#x221a;" horiz-adv-x="1280" 
d="M10 674v198h447l164 -512l360 1074h238l-500 -1434h-199l-235 674h-275z" />
    <glyph glyph-name="infinity" unicode="&#x221e;" horiz-adv-x="1458" 
d="M309 622q0 -84 42 -140t126 -56q121 0 193 195q-72 203 -195 202q-82 0 -124 -58t-42 -143zM985 426q86 0 125 54t39 142t-41 144q-41 57 -125 57q-118 1 -192 -202q72 -195 194 -195zM461 219q-154 0 -252 113q-96 115 -96 289q0 173 98 289t250 116q94 0 171 -59
t97 -103q20 42 98 102t172 60q152 0 249 -116q98 -116 98 -290t-96 -287q-96 -114 -251 -114q-94 0 -169 51t-99 97q-23 -43 -99 -95t-171 -53z" />
    <glyph glyph-name="integral" unicode="&#x222b;" horiz-adv-x="841" 
d="M72 -492v201q135 2 185 45t50 146v1185q-1 249 101 345t362 96v-201q-137 -2 -186 -47t-49 -154v-1177q1 -247 -101 -343t-362 -96z" />
    <glyph glyph-name="approxequal" unicode="&#x2248;" horiz-adv-x="1230" 
d="M383 545q-106 0 -150 -183l-141 46q23 133 98 227q76 94 199 94q74 2 165 -44t170 -92t122 -42q47 0 80 33q33 34 45 62t26 87l142 -45q-21 -129 -99 -225t-200 -96t-252 88q-121 90 -205 90zM846 995q47 0 80 33t45 62t26 88l142 -45q-21 -129 -99 -225t-198 -97
q-94 -4 -253 89t-206 89q-105 0 -150 -182l-141 45q23 131 98 227q76 95 203 95t248 -91q129 -88 205 -88z" />
    <glyph glyph-name="notequal" unicode="&#x2260;" horiz-adv-x="1173" 
d="M113 844v184h553l137 246l117 -70l-101 -176h242v-184h-346l-101 -180h447v-185h-551l-139 -248l-115 68l100 180h-243v185h348l100 180h-448z" />
    <glyph glyph-name="lessequal" unicode="&#x2264;" horiz-adv-x="1087" 
d="M891 305l-799 481l2 144l799 477l102 -162l-645 -387l645 -387zM979 0h-887v184h887v-184z" />
    <glyph glyph-name="greaterequal" unicode="&#x2265;" horiz-adv-x="1087" 
d="M174 1407l799 -477l2 -144l-799 -481l-104 166l645 387l-645 387zM88 184h887v-184h-887v184z" />
    <glyph glyph-name="lozenge" unicode="&#x25ca;" horiz-adv-x="1185" 
d="M291 727l301 -539l303 541l-303 510zM725 0h-266l-408 729l404 705h276l404 -705z" />
    <glyph glyph-name="commaaccent" unicode="&#xf6c3;" horiz-adv-x="583" 
d="M174 -315v215h236v-189q-1 -211 -228 -227v88q100 14 101 113h-109z" />
    <glyph glyph-name="apple" unicode="&#xf8ff;" horiz-adv-x="1548" 
d="M659 773q0 59 -42 103t-102 44t-103 -44t-43 -103q0 -60 43 -102t103 -42t102 42t42 102zM1182 774q0 58 -44 102t-104 44t-101 -44q-42 -44 -42 -103q0 -60 42 -102t101 -42t104 43q44 43 44 102zM174 0v866q0 238 175 418t424 180t423 -180q178 -178 178 -418v-866h-57
l-133 133l-140 -133l-129 133l-145 -133l-141 133l-129 -133l-138 133l-135 -133h-53z" />
    <glyph glyph-name="CR" horiz-adv-x="681" 
 />
    <glyph glyph-name="dieresis.cap" horiz-adv-x="856" 
d="M743 1567h-227v219h227v-219zM342 1567h-229v219h229v-219z" />
    <glyph glyph-name="tilde.cap" horiz-adv-x="825" 
d="M291 1780q67 0 143 -39t105 -39q59 0 73 67h121q-35 -213 -198 -213q-70 0 -146 39t-102 39q-58 1 -74 -67h-121q35 213 199 213z" />
    <glyph glyph-name="macron.cap" horiz-adv-x="815" 
d="M702 1567h-589v151h589v-151z" />
    <glyph glyph-name="acute.cap" horiz-adv-x="606" 
d="M289 1567h-197l164 254h258z" />
    <glyph glyph-name="circumflex.cap" horiz-adv-x="636" 
d="M174 1530l-123 98l137 176h258l140 -176l-127 -98l-142 180z" />
    <glyph glyph-name="caron.cap" horiz-adv-x="634" 
d="M446 1567h-258l-137 176l123 98l143 -180l142 180l125 -98z" />
    <glyph glyph-name="ring.cap" horiz-adv-x="604" 
d="M302 1716q-38 0 -62 -28t-25 -78q0 -49 25 -79q26 -30 62 -30t63 30t26 79q0 49 -25 78q-26 28 -64 28zM92 1607q0 91 60 154t151 63q89 0 149 -62t60 -155t-59 -155t-151 -61t-152 63q-58 62 -58 153z" />
    <glyph glyph-name="breve.cap" horiz-adv-x="679" 
d="M72 1804h116q6 -47 46 -79q40 -31 104 -31t103 32q38 32 44 78h123q0 -114 -76 -186t-194 -72t-192 72t-74 186z" />
    <glyph glyph-name="hungarumlaut.cap" horiz-adv-x="964" 
d="M639 1567h-166l154 235h225zM328 1567h-164l153 235h224z" />
    <glyph glyph-name="dotaccent.cap" horiz-adv-x="550" 
d="M397 1567h-243v233h243v-233z" />
    <glyph glyph-name="grave.cap" horiz-adv-x="604" 
d="M512 1567h-197l-223 254h256z" />
    <glyph glyph-name="a.ss01" horiz-adv-x="1210" 
d="M1057 0h-203v106h-4q-80 -137 -289 -137t-344 155t-135 416q0 260 134 418t337 158q92 0 169 -37t118 -98h4v104h213v-1085zM838 414v248q0 102 -68 173t-190 71t-193 -94q-72 -93 -72 -269q0 -175 72 -269t192 -94q119 0 189 67t70 167z" />
    <glyph glyph-name="agrave.ss01" horiz-adv-x="1210" 
d="M1057 0h-203v106h-4q-80 -137 -289 -137t-344 155t-135 416q0 260 134 418t337 158q92 0 169 -37t118 -98h4v104h213v-1085zM838 414v248q0 102 -68 173t-190 71t-193 -94q-72 -93 -72 -269q0 -175 72 -269t192 -94q119 0 189 67t70 167zM664 1219h-197l-223 254h256z
" />
    <glyph glyph-name="aacute.ss01" horiz-adv-x="1210" 
d="M1057 0h-203v106h-4q-80 -137 -289 -137t-344 155t-135 416q0 260 134 418t337 158q92 0 169 -37t118 -98h4v104h213v-1085zM838 414v248q0 102 -68 173t-190 71t-193 -94q-72 -93 -72 -269q0 -175 72 -269t192 -94q119 0 189 67t70 167zM635 1219h-197l164 254h256z" />
    <glyph glyph-name="acircumflex.ss01" horiz-adv-x="1210" 
d="M1047 0h-203v106h-4q-80 -137 -289 -137t-344 155t-135 416q0 260 134 418t337 158q92 0 169 -37t117 -98h5v104h213v-1085zM827 414v248q0 102 -67 173q-68 71 -190 71t-193 -94q-72 -93 -72 -269q0 -175 72 -269t193 -94t189 67t68 167zM449 1190l-123 98l137 176h258
l139 -176l-127 -98l-141 180z" />
    <glyph glyph-name="atilde.ss01" horiz-adv-x="1210" 
d="M1057 0h-203v106h-4q-80 -137 -289 -137t-344 155t-135 416q0 260 134 418t337 158q92 0 169 -37t118 -98h4v104h213v-1085zM838 414v248q0 102 -68 173t-190 71t-193 -94q-72 -93 -72 -269q0 -175 72 -269t192 -94q119 0 189 67t70 167zM479 1442q66 0 143 -40t105 -40
q59 0 74 70h121q-37 -215 -199 -215q-71 -1 -147 39t-101 40q-60 1 -74 -69h-120q35 215 198 215z" />
    <glyph glyph-name="adieresis.ss01" horiz-adv-x="1210" 
d="M1057 0h-203v106h-4q-80 -137 -289 -137t-344 155t-135 416q0 260 134 418t337 158q92 0 169 -37t118 -98h4v104h213v-1085zM838 414v248q0 102 -68 173t-190 71t-193 -94q-72 -93 -72 -269q0 -175 72 -269t192 -94q119 0 189 67t70 167zM918 1229h-228v219h228v-219z
M516 1229h-229v219h229v-219z" />
    <glyph glyph-name="amacron.ss01" horiz-adv-x="1210" 
d="M1047 0h-203v106h-4q-80 -137 -289 -137t-344 155t-135 416q0 260 134 418t337 158q92 0 169 -37t117 -98h5v104h213v-1085zM827 414v248q0 102 -67 173q-68 71 -190 71t-193 -94q-72 -93 -72 -269q0 -175 72 -269t193 -94t189 67t68 167zM887 1270h-590v151h590v-151z
" />
    <glyph glyph-name="abreve.ss01" horiz-adv-x="1210" 
d="M1057 0h-203v106h-4q-80 -137 -289 -137t-344 155t-135 416q0 260 134 418t337 158q92 0 169 -37t118 -98h4v104h213v-1085zM838 414v248q0 102 -68 173t-190 71t-193 -94q-72 -93 -72 -269q0 -175 72 -269t192 -94q119 0 189 67t70 167zM334 1456h117q6 -47 46 -79
q40 -31 104 -31t102 32t45 78h122q0 -114 -76 -186t-194 -72t-192 72t-74 186z" />
    <glyph glyph-name="aring.ss01" horiz-adv-x="1210" 
d="M637 1288q1 49 -25 78t-64 29t-63 -29t-25 -78t26 -79q24 -29 61 -29t63 30t27 78zM827 414v248q0 102 -67 173q-68 71 -190 71t-193 -94q-72 -93 -72 -269q0 -175 72 -269t193 -94t189 67t68 167zM1047 0h-203v106h-4q-80 -137 -289 -137t-344 155t-135 419
q0 217 98 367t260 192q-92 57 -92 184q0 90 60 154t150 63q90 0 150 -62q59 -62 60 -155q0 -131 -99 -188q113 -35 170 -117h5v104h213v-1085z" />
    <glyph glyph-name="aringacute.ss01" horiz-adv-x="1210" 
d="M566 1395q-38 0 -62 -29t-25 -78q0 -49 25 -79q26 -29 62 -29t63 30t26 78q0 49 -25 78q-26 29 -64 29zM838 414v248q0 102 -68 173t-190 71t-193 -94q-72 -93 -72 -269q0 -175 72 -269t192 -94q119 0 189 67t70 167zM1057 0h-203v106h-4q-80 -137 -289 -137t-344 155
q-135 156 -135 398t100 392t264 190q-90 59 -90 182q0 74 43 132t111 77l135 209h256l-211 -240q86 -63 86 -186t-100 -180q104 -33 164 -117h4v104h213v-1085z" />
    <glyph glyph-name="aogonek.ss01" horiz-adv-x="1210" 
d="M838 414v248q0 102 -68 173t-190 71t-193 -94q-72 -93 -72 -269q0 -175 72 -269t192 -94q119 0 189 67t70 167zM854 0v106h-4q-80 -137 -289 -137t-344 155t-135 416q0 260 134 418t337 158q92 0 169 -37t118 -98h4v104h213v-1085q-164 -141 -164 -238q0 -72 76 -72
t143 77l78 -72q-123 -137 -277 -137q-86 0 -140 39t-54 115t56 154q57 79 147 134h-68z" />
    <glyph glyph-name="caron.alt" horiz-adv-x="606" 
d="M313 1167h-139l64 328h194z" />
    <glyph glyph-name="parenleft.cap" horiz-adv-x="774" 
d="M154 718q0 175 38 335t88 259q48 99 112 194t96 129t73 77l121 -100q-166 -196 -251 -392t-85 -478t93 -520q93 -237 243 -425l-121 -98q-76 68 -223 321q-80 141 -132 332t-52 366z" />
    <glyph glyph-name="parenright.cap" horiz-adv-x="774" 
d="M600 720q0 -178 -52 -368t-132 -332q-147 -253 -223 -321l-121 98q145 182 240 425q96 242 96 524t-86 475q-82 193 -250 391l121 100q43 -43 75 -79t92 -126t112 -194t90 -260q38 -155 38 -333z" />
    <glyph glyph-name="bracketleft.cap" horiz-adv-x="741" 
d="M670 -264h-516v1964h516v-156h-348v-1653h348v-155z" />
    <glyph glyph-name="bracketright.cap" horiz-adv-x="741" 
d="M51 1700h516v-1964h-516v155h348v1653h-348v156z" />
    <glyph glyph-name="braceleft.cap" horiz-adv-x="792" 
d="M258 35v508q0 67 -25 93t-83 26h-58v182h58q60 0 84 28t24 97v411q0 176 76 248t239 72h107v-164h-125q-69 0 -99 -42t-30 -142v-389q0 -102 -49 -151q-37 -40 -63 -49q-27 -9 -31 -9l39 -19q104 -58 104 -188v-484q0 -100 31 -142t106 -42h117v-164h-107q-163 0 -239 72
t-76 248z" />
    <glyph glyph-name="braceright.cap" horiz-adv-x="792" 
d="M494 543v-508q0 -176 -76 -248t-240 -72h-106v164h116q76 0 107 42t31 142v484q0 139 131 203q4 2 6 2l6 2q-15 0 -44 18q-99 60 -99 191v389q0 100 -30 142t-99 42h-125v164h106q164 0 240 -72t76 -248v-411q0 -68 24 -97t84 -28h57v-182h-57q-60 0 -84 -26t-24 -93z
" />
    <glyph glyph-name="published" horiz-adv-x="1447" 
d="M784 627h-96v-287h-153v762h249q125 0 198 -64t73 -174q0 -111 -73 -174t-198 -63zM688 967v-205h96q119 0 119 102t-119 103h-96zM723 213q215 -1 359 149t145 362q-1 212 -145 360t-359 148t-358 -146t-143 -361t142 -363q144 -148 359 -149zM724 92q-268 0 -450 181
t-182 451t181 450q181 182 449 182t452 -182q182 -182 182 -450t-182 -450t-450 -182z" />
    <glyph glyph-name="zero.numr" horiz-adv-x="784" 
d="M549 1000q0 154 -38 218t-120 64t-120 -64t-38 -218t38 -223t120 -69t120 70q38 68 38 222zM61 1000q-1 220 89 332t242 112t241 -113q90 -113 90 -331t-88 -335q-88 -116 -244 -116t-243 116t-87 335z" />
    <glyph glyph-name="one.numr" horiz-adv-x="536" 
d="M383 559h-164v682l-188 -117v185l200 125h152v-875z" />
    <glyph glyph-name="two.numr" horiz-adv-x="718" 
d="M668 559h-607v127q-1 111 51 174t190 132t169 105t31 86t-37 81t-96 30q-139 0 -158 -166l-160 21q10 141 94 218q85 77 219 77t216 -73t82 -182t-58 -175t-172 -119q-150 -76 -172 -111q-14 -20 -14 -55h422v-170z" />
    <glyph glyph-name="three.numr" horiz-adv-x="704" 
d="M508 823q0 125 -148 125h-67v131h49q123 0 123 103q0 112 -114 112t-134 -129l-156 29q13 118 91 184t198 66t197 -65q76 -65 76 -171q0 -63 -33 -110t-74 -64v-4q60 -16 104 -72t44 -160q0 -102 -83 -176t-225 -73q-142 0 -230 76t-106 221l162 37q25 -184 172 -185
q72 0 113 33t41 92z" />
    <glyph glyph-name="four.numr" horiz-adv-x="778" 
d="M442 887v397h-4l-241 -397h245zM440 733h-399v154l332 547h235v-547h99v-154h-99v-174h-168v174z" />
    <glyph glyph-name="five.numr" horiz-adv-x="772" 
d="M549 859q0 73 -44 116t-112 43q-113 0 -178 -90l-127 63l78 443h461v-154h-338l-35 -199l4 -2q14 25 61 47t115 21q115 0 196 -82t81 -215t-91 -217t-231 -84q-246 0 -328 227l152 72q43 -145 176 -146q72 0 116 42t44 115z" />
    <glyph glyph-name="six.numr" horiz-adv-x="784" 
d="M449 1137q115 0 195 -79t79 -213q0 -134 -88 -216q-90 -80 -215 -80q-164 0 -261 114t-97 314q0 199 96 333t260 134q114 0 186 -60t92 -161l-151 -39q-27 113 -137 112q-78 0 -126 -72t-51 -184h5q22 39 78 68t135 29zM420 707q147 0 147 153q0 68 -41 109
q-42 41 -112 41t-112 -44t-42 -111t43 -107t117 -41z" />
    <glyph glyph-name="seven.numr" horiz-adv-x="626" 
d="M0 1280v154h596v-181l-369 -694h-194l401 717l-2 4h-432z" />
    <glyph glyph-name="eight.numr" horiz-adv-x="704" 
d="M201 831q1 -129 151 -129t150 129q0 61 -41 99t-110 39q-69 -1 -109 -39t-41 -99zM78 1214q0 96 78 163t196 67t197 -67q80 -67 80 -163q0 -121 -115 -174v-4q150 -57 150 -223q0 -121 -87 -193t-225 -71q-138 0 -225 72q-86 72 -86 192q0 168 152 223v4
q-115 49 -115 174zM233 1199q0 -46 31 -74q31 -27 86 -27t87 28t32 73q0 44 -32 75t-87 31t-86 -30t-31 -76z" />
    <glyph glyph-name="nine.numr" horiz-adv-x="770" 
d="M364 995q70 0 110 36t40 106q0 69 -42 113t-111 44t-111 -43t-41 -109q0 -66 42 -106q42 -41 113 -41zM387 698q76 0 118 62t36 186h-4q-13 -36 -67 -66t-150 -30t-183 80q-86 82 -86 215t87 216t225 83t237 -113q98 -115 98 -337t-83 -334t-236 -111q-244 0 -299 211
l149 55q35 -117 158 -117z" />
    <glyph glyph-name="zero.dnom" horiz-adv-x="784" 
d="M549 440q0 154 -38 218t-120 65q-82 0 -120 -65t-38 -218t38 -222q38 -68 120 -68t120 68t38 222zM723 440q0 -218 -88 -334t-244 -116t-243 116t-87 335q-1 219 89 331t242 113q152 0 241 -113q90 -114 90 -332z" />
    <glyph glyph-name="one.dnom" horiz-adv-x="536" 
d="M383 0h-164v682l-188 -117v185l200 124h152v-874z" />
    <glyph glyph-name="two.dnom" horiz-adv-x="718" 
d="M668 0h-607v127q-1 111 51 174t190 132t169 105t31 85t-37 81t-96 31q-139 0 -158 -166l-160 21q10 141 94 218q85 77 219 77t216 -73q82 -72 82 -182t-58 -176t-172 -118q-150 -78 -168 -104t-18 -62h422v-170z" />
    <glyph glyph-name="three.dnom" horiz-adv-x="776" 
d="M518 264q0 125 -147 125h-68v131h49q123 0 123 103q0 113 -119 112q-106 0 -129 -129l-155 29q12 117 90 183t198 67q120 0 197 -65q76 -65 76 -171q0 -63 -33 -110t-74 -64v-4q60 -17 104 -73t44 -158t-83 -177q-83 -73 -225 -73t-230 76q-87 76 -105 221l162 37
q25 -184 172 -185q73 0 113 33t40 92z" />
    <glyph glyph-name="four.dnom" horiz-adv-x="778" 
d="M442 328v397h-4l-241 -397h245zM440 174h-399v154l332 546h235v-546h99v-154h-99v-174h-168v174z" />
    <glyph glyph-name="five.dnom" horiz-adv-x="772" 
d="M549 300q0 73 -44 116t-112 43q-113 0 -178 -90l-127 63l78 442h461v-153h-338l-35 -199l4 -2q14 24 61 46t115 22q115 0 196 -82t81 -215t-91 -217t-231 -84q-246 0 -328 227l152 72q43 -145 176 -146q72 0 116 42t44 115z" />
    <glyph glyph-name="six.dnom" horiz-adv-x="784" 
d="M449 578q115 0 195 -79t79 -213q0 -134 -88 -216q-90 -80 -215 -80q-164 0 -261 114t-97 314t96 334t260 133q114 -1 186 -61t92 -160l-151 -39q-27 113 -137 112q-78 1 -126 -71t-51 -185h5q22 39 78 68t135 29zM420 147q147 0 147 154q0 68 -41 109q-42 41 -112 41
t-112 -44t-42 -111t43 -108t117 -41z" />
    <glyph glyph-name="seven.dnom" horiz-adv-x="626" 
d="M0 721v153h596v-180l-369 -694h-194l401 717l-2 4h-432z" />
    <glyph glyph-name="eight.dnom" horiz-adv-x="704" 
d="M201 272q1 -129 151 -129t150 129q0 62 -41 100t-110 38t-109 -38t-41 -100zM78 655q0 96 78 163t196 67t197 -68q80 -63 80 -173t-115 -163v-4q150 -57 150 -223q0 -121 -87 -193q-87 -71 -225 -71t-225 72q-86 72 -86 192q0 168 152 223v4q-115 49 -115 174zM233 640
q0 -46 31 -74t86 -28t87 30q32 28 32 72t-32 75t-87 31t-86 -30t-31 -76z" />
    <glyph glyph-name="nine.dnom" horiz-adv-x="770" 
d="M364 436q70 0 110 36t40 106t-42 113q-42 44 -111 44t-111 -43q-42 -42 -41 -108q0 -66 42 -107t113 -41zM387 139q76 1 118 63t36 185h-4q-13 -35 -67 -65t-150 -31q-96 0 -183 80q-86 84 -86 216t87 215t225 83q139 0 237 -113t98 -336t-83 -335t-236 -111
q-244 0 -299 211l149 55q33 -117 158 -117z" />
    <glyph glyph-name="plusinferior" horiz-adv-x="872" 
d="M510 -319h-145v303h-273v139h273v274h145v-274h270v-139h-270v-303z" />
    <glyph glyph-name="minusinferior" horiz-adv-x="811" 
d="M719 123v-139h-627v139h627z" />
    <glyph glyph-name="zero.tnum" 
d="M969 739q0 502 -303 502t-304 -502q0 -285 75 -415t229 -131q154 1 228 131t75 415zM666 -31q-258 1 -402 195t-143 558q0 364 146 554q147 188 399 188t398 -188t146 -553t-143 -559t-401 -195z" />
    <glyph glyph-name="one.tnum" 
d="M246 0v233h354v930l-309 -194v260l330 205h208v-1201h336v-233h-919z" />
    <glyph glyph-name="two.tnum" 
d="M1161 0h-983v180q0 195 87 304t323 227q201 106 246 143q90 74 90 175t-70 161t-184 59q-248 0 -273 -297l-229 29q14 231 149 357t353 126t351 -120q132 -120 132 -311t-125 -304q-94 -85 -284 -183t-221 -124q-32 -26 -48 -51q-35 -53 -35 -140h721v-231z" />
    <glyph glyph-name="three.tnum" 
d="M682 184q131 0 204 62t72 172q0 238 -290 237h-88v195h69q109 0 179 48t71 144q0 96 -60 152t-167 55q-203 0 -240 -235l-221 41q18 188 145 299q127 110 323 110q197 0 321 -106t124 -297q0 -104 -55 -177t-133 -102v-6q98 -27 177 -124t79 -246q0 -199 -135 -318
t-369 -119t-378 127q-142 127 -171 373l234 49q45 -334 309 -334z" />
    <glyph glyph-name="four.tnum" 
d="M809 516v739h-4l-447 -739h451zM809 293h-686v223l555 918h360v-918h170v-223h-170v-293h-229v293z" />
    <glyph glyph-name="six.tnum" 
d="M688 1249q-141 0 -230 -131t-93 -354l2 -2q133 188 385 188q182 0 320 -129t138 -355t-143 -362q-145 -135 -358 -135q-254 1 -422 185t-168 529t160 563t421 218q196 0 308 -105t147 -263l-219 -58q-57 211 -248 211zM707 188q131 0 205 79t73 209q0 130 -76 207
t-207 77q-130 0 -210 -83t-80 -205t82 -203t213 -81z" />
    <glyph glyph-name="five.tnum" 
d="M680 188q123 0 204 78t81 216t-79 214t-206 76q-193 0 -299 -160l-193 95l125 727h750v-224h-567l-64 -366l2 -2q102 117 318 116q178 0 311 -136t133 -358t-149 -360q-150 -135 -364 -135q-213 1 -351 105t-197 286l227 93q37 -125 116 -195t202 -70z" />
    <glyph glyph-name="seven.tnum" 
d="M940 1212h-709v222h951v-250l-643 -1184h-273l674 1208v4z" />
    <glyph glyph-name="nine.tnum" 
d="M643 690q127 0 204 72t77 198t-80 207q-80 82 -203 82t-200 -79q-77 -78 -77 -202t76 -201t203 -77zM678 184q143 0 218 119t71 356h-4q-17 -53 -105 -115t-261 -62t-318 132q-143 134 -143 356t145 357q143 137 354 137q243 0 401 -187t158 -561t-136 -560t-386 -187
q-207 -1 -325 101t-159 256l215 75q57 -217 275 -217z" />
    <glyph glyph-name="eight.tnum" 
d="M952 430q0 108 -80 176t-210 68t-208 -68q-79 -68 -79 -176t75 -174t214 -66q140 0 214 66t74 174zM137 410q0 131 76 236t186 138v4q-188 84 -188 297q0 158 125 269q127 110 330 110q204 0 330 -110t126 -269q0 -213 -190 -297v-4q112 -37 186 -141t74 -233
q0 -207 -146 -324t-382 -117q-238 0 -382 117t-145 324zM436 1067q0 -86 64 -141q64 -56 164 -56t164 56t65 142q0 85 -60 139q-60 55 -169 55q-108 0 -168 -54t-60 -141z" />
    <glyph glyph-name="Euro.tnum" 
d="M57 463v170h142q-2 20 -2 96v53h-140v170h160q49 248 200 380t349 132t339 -140q142 -140 163 -370l-250 -39q-18 150 -83 238t-173 88t-184 -73q-78 -73 -109 -216h295v-170h-318v-57q0 -74 3 -92h315v-170h-289q70 -270 289 -270q112 0 178 98t84 270l248 -29
q-20 -264 -156 -414t-349 -149q-212 0 -355 126t-193 368h-164z" />
    <glyph glyph-name="dollar.tnum" 
d="M393 1072q0 -70 49 -110t176 -79v356q-111 -4 -168 -51t-57 -116zM723 193q135 0 208 53t73 142q0 88 -60 136t-221 97v-428zM618 1587h105v-127q186 -14 310 -112t161 -273l-227 -61q-66 201 -244 221v-385q299 -90 407 -190t109 -259q0 -193 -138 -309t-378 -123v-170
h-107v174q-223 19 -358 149t-166 361l254 56q27 -160 88 -240t182 -98v225q2 100 2 225q-246 68 -356 168t-108 253q0 154 127 268t337 122v125z" />
    <glyph glyph-name="sterling.tnum" 
d="M1171 0h-1015v223h67q106 0 107 105v301h-174v166h174v223q0 221 110 334q110 112 300 112t300 -104t134 -301l-226 -45q-25 129 -65 182q-41 53 -131 53q-182 0 -183 -225v-229h373v-166h-373v-406h602v-223z" />
    <glyph glyph-name="yen.tnum" 
d="M543 254h-414v190h414v166h-414v189h303l-358 635h264l321 -598h5l325 598h266l-362 -635h305v-189h-414v-166h414v-190h-416v-254h-239v254z" />
    <glyph glyph-name="cent.tnum" 
d="M416 541q0 -156 59 -250t170 -109v719q-105 -16 -167 -110t-62 -250zM717 -225h-72v196q-207 16 -334 166t-127 402q0 253 129 407t332 168v178h72v-178q171 -10 283 -119t135 -280l-220 -37q-35 211 -198 225v-721q161 19 198 250l232 -49q-31 -190 -143 -298t-287 -116
v-194z" />
    <glyph glyph-name="florin.tnum" 
d="M840 1526q141 0 258 -129l-123 -172q-61 70 -121 69q-94 0 -115 -120l-41 -222h289l-33 -188h-288l-195 -1118h-233l194 1118h-201l33 188h201l49 254q31 164 108 242t218 78z" />
    <glyph glyph-name="percent.tnum" 
d="M133 281l-88 131l1155 780l86 -131zM600 214q0 200 101 303t237 103t238 -106t102 -298t-96 -308t-248 -117q-150 0 -242 112q-92 111 -92 311zM1102 215q0 236 -163 236t-163 -236q0 -121 42 -189t120 -69q78 1 121 69t43 189zM402 834q-150 0 -242 112t-92 311
q0 200 101 303t237 103q136 -1 238 -107q101 -106 101 -298t-96 -308q-97 -116 -247 -116zM569 1257q-1 236 -163 236t-162 -236q0 -121 42 -189t120 -69q78 1 120 69t43 189z" />
    <glyph glyph-name="perthousand.tnum" horiz-adv-x="2662" 
d="M1677 214q-1 200 101 303t238 103t238 -106t101 -298t-97 -308t-246 -117q-150 0 -243 112q-92 111 -92 311zM2179 215q0 236 -163 236t-163 -236q0 -121 42 -189t120 -69q78 1 121 69t43 189zM393 281l-88 131l1155 780l86 -131zM860 214q0 200 100 303t238 103
q136 0 238 -106t102 -298t-98 -308t-246 -117q-150 0 -242 112q-92 111 -92 311zM1362 215q0 236 -163 236t-163 -236q0 -121 42 -189t120 -69q78 1 121 69t43 189zM662 834q-150 0 -242 112t-92 311q0 200 100 303t238 103q138 -1 238 -107q102 -106 102 -298t-98 -308
q-96 -116 -246 -116zM829 1257q-1 236 -163 236t-162 -236q0 -121 42 -189t120 -69q78 1 120 69t43 189z" />
    <glyph glyph-name="plus.tnum" 
d="M762 205h-193v459h-407v182h407v414h193v-414h407v-182h-407v-459z" />
    <glyph glyph-name="minus.tnum" 
d="M1200 664h-1069v184h1069v-184z" />
    <glyph glyph-name="plusminus.tnum" 
d="M1141 176h-944v184h944v-184zM567 856h-417v184h417v322h195v-322h418v-184h-418v-364h-195v364z" />
    <glyph glyph-name="multiply.tnum" 
d="M336 227l-133 133l332 330l-312 311l133 134l312 -312l309 310l131 -134l-309 -309l329 -328l-131 -133l-329 330z" />
    <glyph glyph-name="divide.tnum" 
d="M1059 633h-787v184h787v-184zM489 280q-1 75 51 126t126 51t125 -51t51 -126t-51 -125q-51 -51 -125 -51t-126 50t-51 126zM666 1337q74 0 125 -51t51 -125t-51 -125t-125 -51t-125 51t-52 125t51 125t126 51z" />
    <glyph glyph-name="equal.tnum" 
d="M1139 844h-949v184h949v-184zM1139 479h-949v185h949v-185z" />
    <glyph glyph-name="notequal.tnum" 
d="M190 844v184h553l138 246l116 -70l-100 -176h242v-184h-346l-101 -180h447v-185h-551l-139 -248l-115 68l100 180h-244v185h349l100 180h-449z" />
    <glyph glyph-name="less.tnum" 
d="M1014 168l-799 481l2 144l799 477l100 -162l-647 -387l647 -389z" />
    <glyph glyph-name="greater.tnum" 
d="M315 1270l799 -477l2 -144l-799 -481l-102 164l647 389l-647 387z" />
    <glyph glyph-name="greaterequal.tnum" 
d="M315 1407l799 -477l2 -144l-799 -481l-104 166l645 387l-645 387zM229 184h887v-184h-887v184z" />
    <glyph glyph-name="lessequal.tnum" 
d="M1012 305l-799 481l2 144l799 477l102 -162l-645 -387l645 -387zM1100 0h-887v184h887v-184z" />
    <glyph glyph-name="approxequal.tnum" 
d="M432 545q-106 0 -149 -183l-142 46q23 133 99 227t198 94q74 2 165 -44t170 -92t122 -42q47 0 80 33q33 34 45 62t27 87l141 -45q-20 -129 -98 -225t-202 -96q-122 0 -251 88q-121 90 -205 90zM895 995q47 0 80 33t45 62t27 88l141 -45q-20 -129 -98 -225t-199 -97
q-94 -4 -253 89t-206 89q-106 0 -149 -182l-142 45q23 131 99 226q76 96 202 96t248 -91q129 -88 205 -88z" />
    </font>
</defs>
</svg>
